<?xml version="1.0" encoding="utf-8"?>
<!-- Generator: Adobe Illustrator 21.0.0, SVG Export Plug-In . SVG Version: 6.00 Build 0)  -->
<svg version="1.1" id="Layer_1" xmlns="http://www.w3.org/2000/svg" xmlns:xlink="http://www.w3.org/1999/xlink" x="0px" y="0px"
	 viewBox="0 0 133 133" style="enable-background:new 0 0 133 133;" xml:space="preserve">
<style type="text/css">
	.st0{fill:none;stroke:#3A4145;stroke-miterlimit:10;}
	.st1{fill:#8A9099;}
	.st2{fill:#C6C6C5;}
	.st3{fill:#606161;}
	.st4{fill:#4F4F4F;}
	.st5{fill:#686C73;}
	.st6{fill-rule:evenodd;clip-rule:evenodd;fill:#8A9099;}
</style>
<g>
	<rect x="0.5" y="0.5" class="st0" width="132" height="132"/>
	<path class="st6" d="M91.9,14.3H41.1c-2.3,0-4.1,1.8-4.1,4.1v95.9c0,2.3,1.8,4.3,4.1,4.3h50.8c2.3,0,4.1-2,4.1-4.3V18.5
		C96,16.1,94.3,14.3,91.9,14.3L91.9,14.3z M60.9,23.1L60.9,23.1h10.6c0.5,0,0.8,0.3,0.8,0.6c0,0.5-0.3,0.8-0.8,0.8H60.9
		c-0.5,0-0.8-0.4-0.8-0.8C60.1,23.4,60.4,23.1,60.9,23.1L60.9,23.1z M91.3,102L91.3,102H41.7V30.8h49.5V102z M61.7,106.4h7.8
		c1,0,1.7,0.8,1.7,1.7v5.5c0,0.9-0.7,1.7-1.7,1.7h-7.8c-0.9,0-1.7-0.8-1.7-1.7v-5.5C59.9,107.2,60.7,106.4,61.7,106.4L61.7,106.4z"
		/>
</g>
</svg>
