<?xml version="1.0" encoding="utf-8"?>
<!-- Generator: Adobe Illustrator 21.0.0, SVG Export Plug-In . SVG Version: 6.00 Build 0)  -->
<svg version="1.1" id="Layer_1" xmlns="http://www.w3.org/2000/svg" xmlns:xlink="http://www.w3.org/1999/xlink" x="0px" y="0px"
	 viewBox="0 0 133 133" style="enable-background:new 0 0 133 133;" xml:space="preserve">
<style type="text/css">
	.st0{fill:none;stroke:#3A4145;stroke-miterlimit:10;}
	.st1{fill:#8A9099;}
	.st2{fill:#C6C6C5;}
	.st3{fill:#606161;}
	.st4{fill:#4F4F4F;}
	.st5{fill:#686C73;}
	.st6{fill-rule:evenodd;clip-rule:evenodd;fill:#8A9099;}
</style>
<g>
	<rect x="0.5" y="0.5" class="st0" width="132" height="132"/>
	<path class="st1" d="M115.8,79.7c0-0.1,0-0.2,0-0.3c0-30.7-5.6-66-49.3-66c-17.4,0-28.7,5.6-36.1,14.2
		C19.2,40.7,17.2,60.8,17.2,79.4c0,0.1,0,0.2,0,0.3c-1.1,1-2.1,2.1-3,3.2c-2.1,2.8-3.3,6-3.1,9.3l0.6,10.2
		c0.3,6.1,5.2,11.4,12.3,14.4c1.3,0.6,2.8,1.1,4.2,1.5c1,0.3,1.9,0.5,3,0.7c-1-0.2-1.8-0.4-2.7-0.7l-2.3-43.9
		c0.4-0.2,0.9-0.3,1.3-0.5c0.7-0.2,1.4-0.5,2.1-0.7c0.3-0.1,0.5-0.1,0.7-0.2l2.4,46.2c-0.5-0.1-0.9-0.1-1.5-0.3
		c2.4,0.5,3.8,0.6,5.2,0.6c0.5,0,0.9,0,1.4,0c1.9,0,3.2-3.7,3-8.2l-1.8-31.5c-0.3-4.6-1.9-8.1-3.6-7.9c-0.9,0.1-1.7,0.2-2.6,0.4
		c0.5-11.7,2.4-22.5,8.3-29.9c5-6.4,12.9-10.3,25.3-10.3c26.8,0,32.7,18.5,33.6,40.2c-1-0.2-1.8-0.3-2.6-0.4
		c-0.6-0.1-1.2,0.3-1.7,1.1c-0.5,0.8-1,1.9-1.3,3.2c-0.3,1.1-0.5,2.3-0.5,3.6l-1.8,31.5c-0.3,4.6,1.1,8.3,3,8.2c0.4,0,0.8,0,1.2,0
		c1.2,0,2.4-0.1,4.2-0.4c0.4-0.1,0.8-0.1,1.2-0.2c-0.6,0.1-1,0.2-1.5,0.3l2.4-46.2c0.2,0.1,0.4,0.1,0.7,0.2c0.7,0.2,1.4,0.4,2.1,0.7
		c0.4,0.2,0.9,0.3,1.3,0.5l-2.3,43.9c-0.9,0.2-1.8,0.5-2.7,0.7c5-1,9.4-2.9,12.8-5.4c4-3,6.5-6.9,6.8-11.3l0.6-10.2
		C122.1,87.5,119.8,83.2,115.8,79.7z M111.5,76.7c-0.9-0.6-1.9-1.1-3-1.5c-0.2-12.1-1.8-32.3-15.9-43.4c-6.1-4.8-14.5-7.9-26.2-7.9
		c-15.1,0-24.8,5.2-31,12.6c-9.6,11.5-10.9,28.1-11,38.6c-1.1,0.5-2.1,1-3.1,1.6c0.1-5.8,0.3-11.6,1.1-17.2
		c1.4-11.1,4.5-21.3,10.8-28.8C39.7,23,49.5,18,64.4,17.6c0.7,0,1.4-0.1,2.1-0.1C105.1,17.5,111.3,47,111.5,76.7
		C111.6,76.7,111.6,76.7,111.5,76.7z"/>
</g>
</svg>
