<?xml version="1.0" encoding="utf-8"?>
<!-- Generator: Adobe Illustrator 21.0.0, SVG Export Plug-In . SVG Version: 6.00 Build 0)  -->
<svg version="1.1" id="Layer_1" xmlns="http://www.w3.org/2000/svg" xmlns:xlink="http://www.w3.org/1999/xlink" x="0px" y="0px"
	 viewBox="0 0 133 133" style="enable-background:new 0 0 133 133;" xml:space="preserve">
<style type="text/css">
	.st0{fill:none;stroke:#3A4145;stroke-miterlimit:10;}
	.st1{fill:#8A9099;}
	.st2{fill:#C6C6C5;}
	.st3{fill:#606161;}
	.st4{fill:#4F4F4F;}
	.st5{fill:#686C73;}
	.st6{fill-rule:evenodd;clip-rule:evenodd;fill:#8A9099;}
</style>
<g>
	<rect x="0.5" y="0.5" class="st0" width="132" height="132"/>
	<path class="st1" d="M87.1,46.6H84V20.1c0,0,0-5.2-4.4-5.2c0,0-4.4,0-4.4,5.2v26.4H57.8V20.1c0,0,0-5.2-4.4-5.2c0,0-4.4,0-4.4,5.2
		v26.4h-3c0,0-11.5,0-8.1,11l6.3,20.6c0,0,3.4,11,14.9,11h1.8v28.9h11.2V89.1H74c0,0,11.5,0,14.9-11l6.3-20.6
		C95.2,57.6,98.6,46.6,87.1,46.6L87.1,46.6z"/>
</g>
</svg>
