<?xml version="1.0" encoding="utf-8"?>
<!-- Generator: Adobe Illustrator 21.0.0, SVG Export Plug-In . SVG Version: 6.00 Build 0)  -->
<svg version="1.1" id="Layer_1" xmlns="http://www.w3.org/2000/svg" xmlns:xlink="http://www.w3.org/1999/xlink" x="0px" y="0px"
	 viewBox="0 0 133 133" style="enable-background:new 0 0 133 133;" xml:space="preserve">
<style type="text/css">
	.st0{fill:none;stroke:#3A4145;stroke-miterlimit:10;}
	.st1{fill:#8A9099;}
	.st2{font-family:'Arial-BoldMT';}
	.st3{font-size:37.0812px;}
	.st4{fill:#C6C6C5;}
	.st5{fill:#606161;}
	.st6{fill:#4F4F4F;}
	.st7{fill:#686C73;}
	.st8{fill-rule:evenodd;clip-rule:evenodd;fill:#8A9099;}
</style>
<g>
	<rect x="0.5" y="0.5" class="st0" width="132" height="132"/>
	<g>
		<path class="st1" d="M101.5,14.1H31.5c-9.6,0-17.5,7.8-17.5,17.5v69.9c0,9.6,7.8,17.5,17.5,17.5h69.9c9.6,0,17.5-7.8,17.5-17.5
			V31.5C118.9,21.9,111.1,14.1,101.5,14.1L101.5,14.1z M110.2,101.5c0,4.8-3.9,8.8-8.8,8.8H31.5c-4.8,0-8.7-3.9-8.7-8.8V31.5
			c0-4.8,3.9-8.7,8.7-8.7h69.9c4.8,0,8.8,3.9,8.8,8.7V101.5z M110.2,101.5"/>
		<path class="st1" d="M95.4,44.7H59.5c-2.4,0-4.4,1.9-4.4,4.3c0,2.4,2,4.4,4.4,4.4h35.9c2.4,0,4.4-2,4.4-4.4
			C99.7,46.6,97.8,44.7,95.4,44.7L95.4,44.7z M95.4,44.7"/>
		<path class="st1" d="M95.4,30.9H59.5c-2.4,0-4.4,1.9-4.4,4.3c0,2.4,2,4.4,4.4,4.4h35.9c2.4,0,4.4-2,4.4-4.4
			C99.7,32.8,97.8,30.9,95.4,30.9L95.4,30.9z M95.4,30.9"/>
		<path class="st1" d="M93.1,62.1H38.3c-3.7,0-6.7,2-6.7,4.4c0,2.4,3,4.3,6.7,4.3h54.8c3.7,0,6.7-1.9,6.7-4.3
			C99.7,64.1,96.7,62.1,93.1,62.1L93.1,62.1z M93.1,62.1"/>
		<path class="st1" d="M93.1,79.6H38.3c-3.7,0-6.7,2-6.7,4.4c0,2.4,3,4.4,6.7,4.4h54.8c3.7,0,6.7-2,6.7-4.4
			C99.7,81.6,96.7,79.6,93.1,79.6L93.1,79.6z M93.1,79.6"/>
		<path class="st1" d="M93.1,97.1H38.3c-3.7,0-6.7,2-6.7,4.4c0,2.4,3,4.4,6.7,4.4h54.8c3.7,0,6.7-2,6.7-4.4
			C99.7,99.1,96.7,97.1,93.1,97.1L93.1,97.1z M93.1,97.1"/>
		<text transform="matrix(1 0 0 1 27.543 57.1523)" class="st1 st2 st3">A</text>
	</g>
</g>
</svg>
