<?xml version="1.0" encoding="utf-8"?>
<!-- Generator: Adobe Illustrator 21.0.0, SVG Export Plug-In . SVG Version: 6.00 Build 0)  -->
<svg version="1.1" id="Layer_1" xmlns="http://www.w3.org/2000/svg" xmlns:xlink="http://www.w3.org/1999/xlink" x="0px" y="0px"
	 viewBox="0 0 133 133" style="enable-background:new 0 0 133 133;" xml:space="preserve">
<style type="text/css">
	.st0{fill:none;stroke:#3A4145;stroke-miterlimit:10;}
	.st1{fill:#8A9099;}
	.st2{fill:#C6C6C5;}
	.st3{fill:#606161;}
	.st4{fill:#4F4F4F;}
	.st5{fill:#686C73;}
	.st6{fill-rule:evenodd;clip-rule:evenodd;fill:#8A9099;}
</style>
<g>
	<rect x="0.5" y="0.5" class="st0" width="132" height="132"/>
	<g>
		<path class="st2" d="M82.5,37.5h-32V15.6c0-0.8,0.6-1.4,1.4-1.4h29.1c0.8,0,1.4,0.6,1.4,1.4V37.5L82.5,37.5z"/>
		<path class="st3" d="M67.5,21.2v-7h-2v8.5c0.9,0,1.6,0.5,2,1.2c0.2,0.3,0.3,0.7,0.3,1.2c0,0.4-0.1,0.8-0.3,1.2
			c-0.4,0.7-1.1,1.2-2,1.2v10.1h2v-8.6c1.4-0.7,2.3-2.2,2.3-3.8C69.8,23.4,68.8,21.9,67.5,21.2L67.5,21.2z"/>
		<polygon class="st3" points="60.8,28 54.6,28 54.6,24.6 60.8,24.6 60.8,28 		"/>
		<polygon class="st3" points="78.4,28 72.2,28 72.2,24.6 78.4,24.6 78.4,28 		"/>
		<path class="st3" d="M59.7,95.7l0.6,4.8l0.3,3h2.3c0.7,0,1.3,0.6,1.3,1.3v0c0,0.7-0.6,1.3-1.3,1.3H62c-0.6,0-1,0.5-0.9,1l0,0
			c0.1,0.5,0.4,0.8,0.9,0.8h1.3c0.7,0,1.3,0.6,1.3,1.3v0c0,0.7-0.6,1.3-1.3,1.3h-0.8c-0.6,0-1,0.5-0.9,1l0,0
			c0.1,0.5,0.4,0.8,0.9,0.8h1.3c0.7,0,1.3,0.6,1.3,1.3v0c0,0.7-0.6,1.3-1.3,1.3H63c-0.6,0-1,0.5-0.9,1l0.1,1
			c0.1,0.9,0.8,1.5,1.7,1.5h5.7c0.9,0,1.6-0.7,1.7-1.5l0.1-1c0.1-0.6-0.4-1-0.9-1h-0.8c-0.7,0-1.3-0.6-1.3-1.3v0
			c0-0.7,0.6-1.3,1.3-1.3H71c0.5,0,0.9-0.4,0.9-0.8l0,0c0.1-0.5-0.4-1-0.9-1h-0.8c-0.7,0-1.3-0.6-1.3-1.3v0c0-0.7,0.6-1.3,1.3-1.3
			h1.3c0.5,0,0.9-0.4,0.9-0.8l0,0c0.1-0.6-0.4-1-0.9-1h-0.9c-0.7,0-1.3-0.6-1.3-1.3v0c0-0.7,0.6-1.3,1.3-1.3h2.3l0.3-3l0.6-4.8H59.7
			L59.7,95.7z"/>
		<polygon class="st4" points="73.7,95.7 73.2,100.5 60.3,100.5 59.7,95.7 73.7,95.7 		"/>
		<path class="st1" d="M44.5,37.5v48.4c0,5.5,4.4,9.9,9.9,9.9h24.3c5.5,0,9.9-4.4,9.9-9.9V37.5H44.5L44.5,37.5z"/>
		<path class="st5" d="M79.9,55.4H73v6.9h1.4c0.1,1.4-0.4,2.3-1,3c-1.4,1.7-3.6,2.2-5.3,2.3V53.7h2.7l-4.7-8.2l-4.7,8.2h2.7v18
			c-1.7-0.1-3.9-0.6-5.3-2.3c-0.7-0.8-1.2-1.8-1-3.5c1.6-0.4,2.8-1.9,2.8-3.6c0-2.1-1.7-3.7-3.7-3.7c-2.1,0-3.7,1.7-3.7,3.7
			c0,0.8,0.3,1.6,0.7,2.2c-0.5,2.3-0.3,4.9,1.7,7.4c1.9,2.4,4.9,3.7,8.5,3.9v2.9c-1.6,0.8-2.7,2.4-2.7,4.3c0,2.6,2.1,4.7,4.7,4.7
			c2.6,0,4.7-2.1,4.7-4.7c0-1.9-1.1-3.5-2.7-4.3v-7c3.5-0.1,6.6-1.5,8.5-3.9c1.5-1.9,2-3.8,1.9-5.6h1.4V55.4L79.9,55.4z"/>
	</g>
</g>
</svg>
