<svg version="1.1" id="SkXgeIY6UKM" xmlns="http://www.w3.org/2000/svg" xmlns:xlink="http://www.w3.org/1999/xlink" x="0px" y="0px" viewBox="0 0 128 63.3" style="enable-background:new 0 0 128 63.3;">
    <style type="text/css">
        @-webkit-keyframes Sy_xg8FpLtG_Animation {
    13.33% {
        opacity: 0
    }
    20% {
        opacity: 1
    }
    0% {
        opacity: 0
    }
    100% {
        opacity: 1
    }
}
@keyframes Sy_xg8FpLtG_Animation {
    13.33% {
        opacity: 0
    }
    20% {
        opacity: 1
    }
    0% {
        opacity: 0
    }
    100% {
        opacity: 1
    }
}
@-webkit-keyframes HkUxg8K6LKf_Animation {
    13.33% {
        opacity: 0
    }
    20% {
        opacity: 1
    }
    0% {
        opacity: 0
    }
    100% {
        opacity: 1
    }
}
@keyframes HkUxg8K6LKf_Animation {
    13.33% {
        opacity: 0
    }
    20% {
        opacity: 1
    }
    0% {
        opacity: 0
    }
    100% {
        opacity: 1
    }
}
@-webkit-keyframes ByPglLFTLFM_Animation {
    13.33% {
        opacity: 0
    }
    20% {
        opacity: 1
    }
    0% {
        opacity: 0
    }
    100% {
        opacity: 1
    }
}
@keyframes ByPglLFTLFM_Animation {
    13.33% {
        opacity: 0
    }
    20% {
        opacity: 1
    }
    0% {
        opacity: 0
    }
    100% {
        opacity: 1
    }
}
@-webkit-keyframes HJogx8KTLFM_Animation {
    6.67% {
        opacity: 0
    }
    13.33% {
        opacity: 1
    }
    0% {
        opacity: 0
    }
    100% {
        opacity: 1
    }
}
@keyframes HJogx8KTLFM_Animation {
    6.67% {
        opacity: 0
    }
    13.33% {
        opacity: 1
    }
    0% {
        opacity: 0
    }
    100% {
        opacity: 1
    }
}
@-webkit-keyframes By3eeItpIYG_Animation {
    6.67% {
        opacity: 0
    }
    13.33% {
        opacity: 1
    }
    0% {
        opacity: 0
    }
    100% {
        opacity: 1
    }
}
@keyframes By3eeItpIYG_Animation {
    6.67% {
        opacity: 0
    }
    13.33% {
        opacity: 1
    }
    0% {
        opacity: 0
    }
    100% {
        opacity: 1
    }
}
@-webkit-keyframes ryaxl8FaItf_Animation {
    0% {
        opacity: 0
    }
    6.67% {
        opacity: 1
    }
    100% {
        opacity: 1
    }
}
@keyframes ryaxl8FaItf_Animation {
    0% {
        opacity: 0
    }
    6.67% {
        opacity: 1
    }
    100% {
        opacity: 1
    }
}
@-webkit-keyframes BJ0lgIYaUYf_Animation {
    0% {
        opacity: 0
    }
    6.67% {
        opacity: 1
    }
    100% {
        opacity: 1
    }
}
@keyframes BJ0lgIYaUYf_Animation {
    0% {
        opacity: 0
    }
    6.67% {
        opacity: 1
    }
    100% {
        opacity: 1
    }
}
@-webkit-keyframes HykZg8Y68KG_Animation {
    22.22% {
        opacity: 0
    }
    33.33% {
        opacity: 1
    }
    0% {
        opacity: 0
    }
    100% {
        opacity: 1
    }
}
@keyframes HykZg8Y68KG_Animation {
    22.22% {
        opacity: 0
    }
    33.33% {
        opacity: 1
    }
    0% {
        opacity: 0
    }
    100% {
        opacity: 1
    }
}
#SkXgeIY6UKM * {
    -webkit-animation-duration: 3s;
            animation-duration: 3s;
    -webkit-animation-iteration-count: infinite;
            animation-iteration-count: infinite;
    -webkit-animation-timing-function: cubic-bezier(0, 0, 1, 1);
            animation-timing-function: cubic-bezier(0, 0, 1, 1);
    transform-box: fill-box;
    -webkit-transform-origin: 50% 50%;
            transform-origin: 50% 50%
}
#S14xlUtaUKz {
    -webkit-transform-origin: undefined;
            transform-origin: undefined
}
#S14xlUtaUKz_ryY5tTIKz {
    -webkit-transform-origin: undefined;
            transform-origin: undefined
}
#S14xlUtaUKz_HyNpFpLtf {
    -webkit-transform-origin: undefined;
            transform-origin: undefined
}
#HykZg8Y68KG {
    -webkit-animation-name: HykZg8Y68KG_Animation;
            animation-name: HykZg8Y68KG_Animation;
    -webkit-transform-origin: undefined;
            transform-origin: undefined
}
#BJ0lgIYaUYf {
    -webkit-animation-name: BJ0lgIYaUYf_Animation;
            animation-name: BJ0lgIYaUYf_Animation;
    -webkit-transform-origin: undefined;
            transform-origin: undefined
}
#ryaxl8FaItf {
    -webkit-animation-name: ryaxl8FaItf_Animation;
            animation-name: ryaxl8FaItf_Animation;
    -webkit-transform-origin: undefined;
            transform-origin: undefined
}
#By3eeItpIYG {
    -webkit-animation-name: By3eeItpIYG_Animation;
            animation-name: By3eeItpIYG_Animation;
    -webkit-transform-origin: undefined;
            transform-origin: undefined
}
#HJogx8KTLFM {
    -webkit-animation-name: HJogx8KTLFM_Animation;
            animation-name: HJogx8KTLFM_Animation;
    -webkit-transform-origin: undefined;
            transform-origin: undefined
}
#ByPglLFTLFM {
    -webkit-animation-name: ByPglLFTLFM_Animation;
            animation-name: ByPglLFTLFM_Animation;
    -webkit-transform-origin: undefined;
            transform-origin: undefined
}
#HkUxg8K6LKf {
    -webkit-animation-name: HkUxg8K6LKf_Animation;
            animation-name: HkUxg8K6LKf_Animation;
    -webkit-transform-origin: undefined;
            transform-origin: undefined
}
#Sy_xg8FpLtG {
    -webkit-animation-name: Sy_xg8FpLtG_Animation;
            animation-name: Sy_xg8FpLtG_Animation;
    -webkit-transform-origin: undefined;
            transform-origin: undefined
}
    </style>
    <style type="text/css"/>
    <g id="S14xlUtaUKz">
        <g id="B1BxgLY6LKf">
            <path d="M2.3,25c0.3-1.5,0.5-3,0.9-4.5C5.2,13,9.4,7.3,16,3.3c1.1-0.6,2.2-1.2,3.3-1.7c0.9-0.4,1.6-0.2,1.8,0.5&#10;&#9;&#9;&#9;c0.3,0.8-0.1,1.4-0.9,1.7c-5.3,2.4-9.4,6-12.2,11.1c-3,5.5-4,11.4-2.7,17.5C7.2,41,12.2,47,20,50.8c0.4,0.2,0.9,0.4,0.9,0.8&#10;&#9;&#9;&#9;c0.1,0.4,0.1,1.2-0.2,1.4c-0.3,0.3-1.1,0.3-1.5,0.1c-2.1-1.1-4.3-2.2-6.1-3.7C7,44.6,3.5,38.2,2.5,30.5c0-0.2-0.1-0.4-0.2-0.6&#10;&#9;&#9;&#9;C2.3,28.2,2.3,26.6,2.3,25z" id="HkUxg8K6LKf"/>
            <path d="M125.3,29.9c-0.3,1.5-0.6,3.1-1,4.6c-1.4,5.4-4.2,10-8.3,13.7c-2.1,1.9-4.5,3.5-7.1,4.7&#10;&#9;&#9;&#9;c-0.2,0.1-0.4,0.2-0.6,0.3c-0.7,0.3-1.4,0.2-1.7-0.6c-0.3-0.8,0-1.3,0.7-1.7c1.7-1,3.5-1.9,5.1-3c5.2-3.9,8.6-9,9.8-15.4&#10;&#9;&#9;&#9;c1.6-8.3-0.4-15.6-5.9-22c-2.4-2.8-5.4-4.9-8.7-6.5c-0.1-0.1-0.2-0.1-0.4-0.2c-0.7-0.3-1.1-0.9-0.8-1.7c0.3-0.8,1-0.9,1.7-0.6&#10;&#9;&#9;&#9;c2,1.1,4,2,5.7,3.3c5,3.7,8.4,8.7,10.2,14.7c0.5,1.7,0.8,3.6,1.1,5.3C125.3,26.6,125.3,28.2,125.3,29.9z" id="ByPglLFTLFM"/>
            <g id="Sy_xg8FpLtG">
                <path d="M93.8,34.9c0,2.1,0,4.3,0,6.4c0,2-0.8,3-2.7,3.5c-4.5,1.2-9.1,1.6-13.7,0.8c-7.3-1.3-12.1-5.5-14-12.8&#10;&#9;&#9;&#9;&#9;c-1.3-5.2-1.1-10.3,1.3-15.2c2.6-5.3,7-8.4,12.7-9.7c4.3-1,8.6-0.8,12.8,0.3c0.8,0.2,1.5,0.5,1.7,1.4c0.5,1.7-0.5,3-2.2,2.6&#10;&#9;&#9;&#9;&#9;c-2.6-0.6-5.2-1-7.9-0.8c-5.3,0.3-9.6,2.4-12.3,7.2c-1.7,3.1-2,6.5-1.7,9.9c0.2,2.6,0.8,5,2.2,7.2c2.3,3.7,5.7,5.6,9.9,6&#10;&#9;&#9;&#9;&#9;c2.1,0.2,4.3,0,6.4-0.2c1.7-0.1,2.5-1.2,2.6-2.9c0-2.3,0-4.5,0-6.8c0-1.5-0.9-2.3-2.3-2.3c-1.2,0-2.4,0-3.6-0.1&#10;&#9;&#9;&#9;&#9;c-0.9-0.1-1.6-0.9-1.7-1.8c0-0.8,0.6-1.7,1.6-1.9c0.3-0.1,0.6-0.1,0.9-0.1c2.5,0,5,0,7.6,0c1.7,0,2.5,0.8,2.5,2.5&#10;&#9;&#9;&#9;&#9;C93.8,30.4,93.8,32.6,93.8,34.9z" id="Hyteg8ta8FG"/>
                <path d="M54.2,20.4c0,2.8,0,5.7,0,8.5c0,2,0.6,2.6,2.6,2.8c0.4,0,0.8,0,1.2,0.2c0.8,0.3,1.3,0.9,1.3,1.7&#10;&#9;&#9;&#9;&#9;c0,0.9-0.5,1.5-1.3,1.7c-0.4,0.1-0.9,0.1-1.4,0.2c-1.6,0.1-2.4,0.9-2.4,2.5c0,1.7,0,3.4,0,5.1c0,1.5-0.8,2.3-2.1,2.4&#10;&#9;&#9;&#9;&#9;c-1.5,0.1-2.4-0.7-2.5-2.2c-0.1-1.7,0-3.3,0-5c0-2-0.8-2.8-2.8-2.8c-3.8,0-7.6,0-11.4,0c-2.6,0-3.5-1.1-2.3-3.5&#10;&#9;&#9;&#9;&#9;c0.8-1.7,2-3.2,3-4.8c3.1-4.5,6.3-9.1,9.5-13.6c1-1.4,2.1-2.8,3.3-4c1-1,2.4-0.9,3.7-0.7c1,0.2,1.6,1.1,1.6,2.4&#10;&#9;&#9;&#9;&#9;C54.2,14.5,54.2,17.5,54.2,20.4z M37.6,31.7c3.4,0,6.6,0.1,9.8,0c1.4,0,2.1-0.9,2.1-2.5c0-4.8,0.1-9.6,0.1-14.4&#10;&#9;&#9;&#9;&#9;c0-0.2,0-0.3-0.1-0.4C45.6,20.1,41.7,25.8,37.6,31.7z" id="r1qxl8tTLKG"/>
            </g>
            <path d="M118.4,26.4c-0.1,5.8-1.5,10.2-4.6,14c-2.2,2.8-4.9,4.7-8,6.2c-0.8,0.4-1.6,0.2-1.9-0.5&#10;&#9;&#9;&#9;c-0.3-0.7-0.1-1.3,0.8-1.7c2.1-1.1,4.1-2.3,5.8-4c3.8-3.8,5.6-8.4,5.4-13.8c-0.2-5.5-2.4-10.1-6.6-13.6c-1.3-1.1-2.8-1.9-4.2-2.8&#10;&#9;&#9;&#9;c-0.2-0.2-0.5-0.2-0.8-0.4c-0.5-0.4-0.9-1-0.4-1.5c0.3-0.4,1-0.7,1.4-0.6c0.9,0.3,1.8,0.7,2.6,1.2c4.7,2.9,8,7,9.5,12.3&#10;&#9;&#9;&#9;C118,23.3,118.2,25.3,118.4,26.4z" id="HJogx8KTLFM"/>
            <path d="M9.2,27.3c0.2-6.7,2.7-12.2,7.9-16.4c1.4-1.2,3.1-2,4.7-3c0.8-0.5,1.6-0.3,1.9,0.4c0.3,0.7,0.1,1.3-0.9,1.8&#10;&#9;&#9;&#9;c-2.9,1.3-5.3,3.2-7.2,5.7c-2.8,3.7-4.1,7.8-3.9,12.5c0.3,5.5,2.6,10,6.8,13.5c1.3,1,2.8,1.8,4.2,2.6c0.9,0.5,1.3,1.1,0.9,1.8&#10;&#9;&#9;&#9;c-0.3,0.7-1.1,0.8-2,0.4c-4.6-2.2-8.1-5.5-10.3-10c-1.1-2.2-1.7-4.5-2-6.9C9.3,28.8,9.3,28,9.2,27.3z" id="By3eeItpIYG"/>
            <path d="M26.6,13.9c0.3,0.3,0.8,0.6,0.9,1c0.3,0.7-0.3,1.2-0.9,1.5c-1.2,0.6-2.5,1.2-3.5,2c-5.3,4.3-5.8,12.1-0.9,17&#10;&#9;&#9;&#9;c1.1,1.1,2.7,1.8,4,2.7c0.4,0.2,0.9,0.5,1,0.8c0.2,0.4,0.1,1.1-0.2,1.3c-0.3,0.3-1,0.4-1.4,0.2c-2.4-0.8-4.4-2.2-6-4.1&#10;&#9;&#9;&#9;c-3.5-4.4-4.3-9.3-2.2-14.5c1.5-3.8,4.4-6.4,8.3-7.7C26,14,26.2,14,26.6,13.9z" id="ryaxl8FaItf"/>
            <path d="M111.2,27.3c0,5.8-3.6,11.1-9,13.1c-1,0.4-1.6,0.2-1.9-0.5c-0.3-0.8,0-1.3,1.1-1.8c5.1-2.2,8-6.8,7.3-12&#10;&#9;&#9;&#9;c-0.6-4.6-3.1-7.9-7.5-9.6c-1-0.4-1.4-1-1.1-1.7c0.3-0.7,0.9-0.9,1.9-0.6C107.3,15.9,111.2,21.4,111.2,27.3z" id="BJ0lgIYaUYf"/>
        </g>
        <g id="HykZg8Y68KG">
            <path d="M40.5,50v1.6h-4.9v2.5h4.7v1.6h-4.7v2.6h5.1v1.6h-6.9V50H40.5z" id="rJg-xUY6Ltz"/>
            <path d="M42.3,59.9V50h1.8l5.2,7.2V50h1.8v9.9h-1.8l-5.2-7.3v7.3H42.3z" id="S1Z-e8FpLtf"/>
            <path d="M54.2,59.9h-1.9l4.2-9.9h2l4.3,9.9h-2l-1.1-2.7h-3.3l0.6-1.6h2l-1.6-3.7L54.2,59.9z" id="Byf-gLtpLtM"/>
            <path d="M63.9,59.9V50h4.6c1.9,0,2.8,0.8,2.8,2.3c0,1.1-0.6,1.9-1.8,2.4c1.3,0.2,2,1,2,2.2c0,1.9-1,2.9-3.1,2.9H63.9z&#10;&#9;&#9;&#9; M68.3,58.3c0.8,0,1.2-0.4,1.2-1.2c0-1-0.6-1.5-1.8-1.5h-0.6v-1.2c1.5-0.3,2.3-0.9,2.3-1.9c0-0.6-0.3-0.8-1-0.8h-2.7v6.7H68.3z" id="r1XbgUYT8YG"/>
            <path d="M74.9,50v8.3h3.9v1.6h-5.7V50H74.9z" id="SyNWeLt6Ltz"/>
            <path d="M87.3,50v1.6h-4.9v2.5h4.7v1.6h-4.7v2.6h5.1v1.6h-6.9V50H87.3z" id="SyHbgIYpUFM"/>
            <path d="M89.1,59.9V50h3.9c3.3,0,4.9,1.6,4.9,4.7c0,3.5-1.6,5.2-4.9,5.2H89.1z M92.9,58.3c2,0,3.1-1.2,3.1-3.6&#10;&#9;&#9;&#9;c0-2.1-1-3.1-3.1-3.1h-2v6.7H92.9z" id="BJI-x8FaIYf"/>
        </g>
    </g>
</svg>