<?xml version="1.0" encoding="utf-8"?>
<!-- Generator: Adobe Illustrator 21.0.0, SVG Export Plug-In . SVG Version: 6.00 Build 0)  -->
<svg version="1.1" id="Layer_1" xmlns="http://www.w3.org/2000/svg" xmlns:xlink="http://www.w3.org/1999/xlink" x="0px" y="0px"
	 viewBox="0 0 500 342" style="enable-background:new 0 0 500 342;" xml:space="preserve">
<style type="text/css">
	.st0{fill:#2D2D2D;}
	.st1{fill:none;stroke:#414042;stroke-width:0.6894;stroke-miterlimit:10;}
	.st2{fill:#FFFFFF;}
	.st3{fill:#414042;}
	.st4{fill:none;stroke:#FFFFFF;stroke-width:3;stroke-miterlimit:10;}
	.st5{fill:none;stroke:#414042;stroke-width:2;stroke-miterlimit:10;}
</style>
<g>
	<g>
		<path class="st0" d="M365.4,44.5l8.9-15.2h-10.2c-3.2,4.3-5.1,9.7-5.1,15.4c0,3,0.5,5.9,1.4,8.5l5.1-8.6L365.4,44.5z"/>
		<path class="st0" d="M391.4,61.1h-14.8l5.4,9.2c0.9,0.1,1.9,0.2,2.8,0.2c8,0,15.2-3.7,19.9-9.4h-10.2H391.4z"/>
		<path class="st0" d="M378.4,27.9h14.4l-5.2-8.8c-0.9-0.1-1.9-0.2-2.9-0.2c-7.8,0-14.8,3.5-19.6,9h9.9H378.4z"/>
		<path class="st0" d="M401.7,48.8l-6.4,11h10.5c3-4.2,4.8-9.4,4.8-15c0-3-0.5-6-1.5-8.7l-7.3,12.8L401.7,48.8z"/>
		<path class="st0" d="M394.5,27.9l9,15.4l5-8.8c-3.4-7.8-10.5-13.5-19.1-15.1L394.5,27.9L394.5,27.9z"/>
		<path class="st0" d="M373,57.6L366.3,46l-5.2,8.9c3.4,7.8,10.5,13.7,19.2,15.2L373,57.6L373,57.6z"/>
	</g>
	<g>
		<g>
			<path class="st0" d="M333.5,165.3l-2.1,6.4h-1.9l6.5-18.9c0.1-0.3,0.4-0.5,0.7-0.5h2.1c0.3,0,0.6,0.2,0.7,0.5l6.5,18.9h-1.9
				l-2.1-6.4H333.5z M338.6,155.3c-0.2-0.5-0.4-1.1-0.5-1.6h-0.8c-0.2,0.5-0.3,1-0.5,1.6l-2.8,8.4h7.4L338.6,155.3z"/>
			<path class="st0" d="M360.7,164.9c0,5.2-1.5,7.1-5.1,7.1c-1.8,0-3.5-0.5-5.3-1.4c0.1,1,0.1,1.7,0.1,2.7v4.1h-1.8v-19.4h1.5
				l0.2,2.3c1.6-1.6,3.7-2.6,5.6-2.6C359.4,157.7,360.7,160,360.7,164.9z M358.9,164.9c0-4.2-1-5.6-3.5-5.6c-1.6,0-3,0.7-5,2.4v7.8
				c1.9,0.6,3.2,1,4.8,1C357.9,170.5,358.9,169.2,358.9,164.9z"/>
			<path class="st0" d="M375.4,170.1l0.2,1.2c-1.2,0.5-3.6,0.7-5.1,0.7c-4.6,0-6.3-2-6.3-7.2c0-5.3,1.8-7.1,6.1-7.1
				c3.9,0,5.7,1.4,5.7,4.2c0,2.4-0.9,3.8-3.1,3.8H366c0.2,3.7,1.6,4.7,4.7,4.7C372.3,170.5,374.1,170.3,375.4,170.1z M366,164.3h6.4
				c1.4,0,1.8-1,1.7-2.4c0-1.9-1.2-2.7-3.8-2.7C367.2,159.3,366.1,160.5,366,164.3z"/>
			<path class="st0" d="M387.8,159.4h-0.7c-1.7,0-3.2,0.8-5.5,2.1v10.2h-1.8v-13.6h1.4l0.2,2.3c2.1-1.7,4.1-2.6,6-2.6h0.6
				L387.8,159.4z"/>
			<path class="st0" d="M393.6,168.3c0,1.4,0.6,2,2,2h2.2l0.2,1.4c-0.8,0.2-2.3,0.3-2.8,0.3c-2.3,0-3.4-1.2-3.4-3.4v-9h-2.5v-1.3
				l2.5-0.1v-4.1h1.8v4.1h4.6v1.4h-4.6V168.3z"/>
			<path class="st0" d="M412.5,171.7h-1.4l-0.1-2.1c-2.1,1.7-4.1,2.5-6,2.5c-2.4,0-3.7-1.3-3.7-3.7v-10.2h1.8v9.8
				c0,1.9,0.7,2.6,2.5,2.6c1.6,0,3.1-0.8,5.2-2.2v-10.2h1.8V171.7z"/>
			<path class="st0" d="M425.2,159.4h-0.7c-1.7,0-3.2,0.8-5.5,2.1v10.2h-1.8v-13.6h1.4l0.2,2.3c2.1-1.7,4.1-2.6,6-2.6h0.6
				L425.2,159.4z"/>
			<path class="st0" d="M438.5,170.1l0.2,1.2c-1.2,0.5-3.6,0.7-5.2,0.7c-4.6,0-6.3-2-6.3-7.2c0-5.3,1.8-7.1,6.1-7.1
				c3.9,0,5.7,1.4,5.7,4.2c0,2.4-0.9,3.8-3.1,3.8h-6.8c0.2,3.7,1.6,4.7,4.7,4.7C435.4,170.5,437.2,170.3,438.5,170.1z M429.1,164.3
				h6.4c1.4,0,1.8-1,1.7-2.4c0-1.9-1.2-2.7-3.8-2.7C430.2,159.3,429.1,160.5,429.1,164.3z"/>
		</g>
	</g>
	<g>
		<path class="st0" d="M331.5,86.9c-4.4,0-6.1,1.6-6.1,5.9v5.6h10.5v3.2h-10.5v28h-4.1v-28h-5.6v-2.9l5.6-0.3v-6c0-5.7,2.3-9,8.8-9
			c1.9,0,6,0.1,8.4,0.4l-0.3,3H331.5z"/>
		<path class="st0" d="M336.3,133.6l25.3-48.5h3.5l-25.3,48.5H336.3z"/>
		<path class="st0" d="M397.9,93.7c0,5.7-2.4,10-8.3,16.7L376,125.7c2.4-0.1,5-0.1,7.4-0.1h16.2v4h-28.7V127c0-0.8,0.1-1.4,0.6-1.9
			l13.8-15.7c5.7-6.4,8.4-11,8.2-15.7c-0.2-5-3.7-5.6-9.3-5.6c-4.1,0-7.2,0.2-12.7,1.2l-0.4-3.3c6.1-1.4,9.4-1.7,13.3-1.7
			C392.8,84.4,397.9,85.8,397.9,93.7z"/>
		<path class="st0" d="M411,122.7c1.2,0,1.6,0.5,1.6,1.6v3.7c0,1.2-0.5,1.6-1.6,1.6h-1.4c-1.1,0-1.5-0.5-1.5-1.6v-3.7
			c0-1.2,0.5-1.6,1.5-1.6H411z"/>
		<path class="st0" d="M451.5,107.4c0,16-3.8,23-14.8,23c-11,0-14.8-7-14.8-23s3.7-23,14.8-23C447.7,84.4,451.5,91.3,451.5,107.4z
			 M426,107.4c0,13.7,2.6,19.3,10.6,19.3c8.1,0,10.6-5.7,10.6-19.3c0-13.7-2.6-19.3-10.6-19.3C428.7,88,426,93.7,426,107.4z"/>
	</g>
	<line class="st1" x1="316.1" y1="141.8" x2="453.5" y2="141.8"/>
</g>
<line class="st1" x1="257.8" y1="55.4" x2="257.8" y2="149.9"/>
<line class="st1" x1="257.8" y1="214.8" x2="257.8" y2="309.4"/>
<g>
	<g>
		<path class="st0" d="M64.7,161.7c2.9,0.3,3.9,2.1,3.9,5.2c0,4-1.7,5.1-6.1,5.1c-3.2,0-4.7,0-6.8-0.2v-19.4c1.9-0.2,3.2-0.2,6-0.2
			c4.7,0,6.4,1.1,6.4,5.1c0,2.8-1,4.2-3.3,4.4V161.7z M61.6,153.6c-1.7,0-3.1,0-4.1,0v7.3H62c3.1,0,4.2-0.7,4.2-3.6
			C66.2,154.3,65,153.6,61.6,153.6z M66.7,166.6c0-3.3-1.2-4.2-4.7-4.2h-4.6v8c1.2,0,2.9,0,4.8,0C65.6,170.3,66.7,169.6,66.7,166.6z
			"/>
		<path class="st0" d="M83.5,161.9v9.8H82l-0.2-2.4c-1.1,1.1-3.4,2.6-6,2.6c-2.4,0-3.9-1.3-3.9-3.7v-1.6c0-2.1,1.3-3.3,3.6-3.3h6.1
			v-1.4c0-1.7-0.6-2.6-2.9-2.6c-1.6,0-4,0.2-6,0.4l-0.2-1.3c1.9-0.3,4.2-0.6,6.6-0.6C81.9,157.7,83.5,158.8,83.5,161.9z M81.7,168.1
			v-3.3l-5.8,0.1c-1.4,0.1-2.1,0.8-2.1,2.1v1.2c0,1.5,0.8,2.3,2.4,2.3C77.7,170.4,80,169.5,81.7,168.1z"/>
		<path class="st0" d="M98,158.3l-0.3,1.2c-1.1-0.2-2.7-0.2-3.6-0.2c-3.5,0-4.8,1.3-4.8,5.6s1.3,5.6,4.8,5.6c0.8,0,2.6-0.1,4-0.3
			l0.2,1.2c-1.3,0.4-3,0.6-4.4,0.6c-4.7,0-6.4-1.9-6.4-7.1s1.7-7.2,6.4-7.2C94.9,157.7,96.7,157.8,98,158.3z"/>
		<path class="st0" d="M103.4,164.6c0.1,0.8,0.1,1.5,0.1,2.3v4.8h-1.8V152h1.8l0.1,8.9c0,0.9-0.1,1.6-0.2,2.3h2l4.7-5.2h2.1
			l-4.6,5.1c-0.2,0.3-0.6,0.6-0.8,0.8v0.1c0.2,0.2,0.6,0.6,0.8,1l5,6.7h-2.1l-5.1-7.1H103.4z"/>
		<path class="st0" d="M133.9,152.5l-0.2,1.4c-1.7-0.2-2.7-0.3-5-0.3c-4.1,0-5.5,2.1-5.5,8.4s1.4,8.4,5.5,8.4c2.4,0,3.8-0.1,5.3-0.3
			l0.2,1.4c-1.6,0.4-3.1,0.6-5.6,0.6c-5.5,0-7.4-2.6-7.4-10c0-7.4,1.9-10,7.4-10C131.1,151.9,132.3,152.1,133.9,152.5z"/>
		<path class="st0" d="M148.4,161.9v9.8H147l-0.2-2.4c-1.1,1.1-3.4,2.6-6,2.6c-2.4,0-3.9-1.3-3.9-3.7v-1.6c0-2.1,1.3-3.3,3.6-3.3
			h6.1v-1.4c0-1.7-0.6-2.6-2.9-2.6c-1.6,0-4,0.2-6,0.4l-0.2-1.3c1.9-0.3,4.2-0.6,6.6-0.6C146.9,157.7,148.4,158.8,148.4,161.9z
			 M146.6,168.1v-3.3l-5.8,0.1c-1.4,0.1-2.1,0.8-2.1,2.1v1.2c0,1.5,0.8,2.3,2.4,2.3C142.7,170.4,145,169.5,146.6,168.1z"/>
		<path class="st0" d="M173.1,161.4v10.2h-1.8v-9.8c0-1.9-0.8-2.7-2.4-2.7c-1.6,0-2.8,0.8-5,2.4v10h-1.7v-9.8c0-1.9-0.8-2.7-2.4-2.7
			c-1.5,0-2.8,0.7-5,2.4v10.1h-1.8v-13.6h1.5l0.1,2.3c1.9-1.7,3.8-2.6,5.7-2.6s3.1,0.9,3.5,2.6c2-1.7,3.8-2.6,5.7-2.6
			C171.8,157.7,173.1,159,173.1,161.4z"/>
		<path class="st0" d="M188.3,170.1l0.2,1.2c-1.2,0.5-3.6,0.7-5.1,0.7c-4.6,0-6.3-2-6.3-7.2c0-5.3,1.8-7.1,6.1-7.1
			c3.9,0,5.7,1.4,5.7,4.2c0,2.4-0.9,3.8-3.1,3.8h-6.8c0.2,3.7,1.6,4.7,4.7,4.7C185.2,170.5,187,170.3,188.3,170.1z M178.9,164.3h6.4
			c1.4,0,1.8-1,1.7-2.4c0-1.9-1.2-2.7-3.8-2.7C180.1,159.3,179,160.5,178.9,164.3z"/>
		<path class="st0" d="M200.7,159.4H200c-1.7,0-3.2,0.8-5.5,2.1v10.2h-1.8v-13.6h1.4l0.2,2.3c2.1-1.7,4.1-2.6,6-2.6h0.6L200.7,159.4
			z"/>
		<path class="st0" d="M214.6,161.9v9.8h-1.4l-0.2-2.4c-1.1,1.1-3.4,2.6-6,2.6c-2.4,0-3.9-1.3-3.9-3.7v-1.6c0-2.1,1.3-3.3,3.6-3.3
			h6.1v-1.4c0-1.7-0.6-2.6-2.9-2.6c-1.6,0-4,0.2-6,0.4l-0.2-1.3c1.9-0.3,4.2-0.6,6.6-0.6C213,157.7,214.6,158.8,214.6,161.9z
			 M212.8,168.1v-3.3l-5.8,0.1c-1.4,0.1-2.1,0.8-2.1,2.1v1.2c0,1.5,0.8,2.3,2.4,2.3C208.8,170.4,211.1,169.5,212.8,168.1z"/>
	</g>
	<g>
		<path class="st0" d="M67.6,129.6V92.7c0-1.2,0.1-2.4,0.3-3.5l-11.3,3.6l-0.6-3l11.6-4.6h4.3v44.5H67.6z"/>
		<path class="st0" d="M109.3,94.6c0,5.5-1.5,10.2-6.8,11.2v0.3c6,1,7.8,5.2,7.9,11.1c0.2,8.9-3.5,13.1-13.8,13.1
			c-4.7,0-9.4-0.5-13.8-1.1l0.4-3.4c4.1,0.4,8.2,0.7,12.5,0.7c7.5,0,10.5-2.6,10.5-9.8c0-5-1.5-9-9.6-9h-8.2v-3.3l8.2-0.1
			c7.8-0.1,8.6-4.8,8.6-9c-0.1-6.1-2.5-7.3-10-7.3c-4.2,0-8.2,0.3-11.2,0.6l-0.5-3.2c4.3-0.7,8.1-1.1,12.1-1.1
			C105.5,84.4,109.3,86.8,109.3,94.6z"/>
		<path class="st0" d="M162.3,85.1c1.2,0,1.9,0.7,1.9,1.9l1.9,42.6h-4.2l-1.7-40.9h-1.4l-11.5,34.9c-0.3,1-0.9,1.4-1.9,1.4h-4.3
			c-1,0-1.6-0.5-1.9-1.4l-11.6-34.9h-1.4l-1.7,40.9h-4.2L122,87c0-1.2,0.6-1.9,1.9-1.9h5.1c1,0,1.5,0.5,1.9,1.5l9.7,29
			c0.6,2.1,1.2,4,1.8,6.1h1.4c0.6-2.1,1.2-4.1,1.9-6.1l9.7-28.9c0.3-1,0.9-1.5,1.9-1.5H162.3z"/>
		<path class="st0" d="M205.8,98.2c0,10.7-3.5,13.6-13.3,13.6c-4.4,0-8.4-0.3-11.1-0.5v18.3h-4.2V85.1c4.7-0.5,7.9-0.5,14.9-0.5
			C202.2,84.6,205.8,87.6,205.8,98.2z M191.9,108.1c7.1-0.1,9.5-2.1,9.5-9.9c0-7.9-2.4-10-9.5-10c-4.3,0-8.1,0-10.6,0.1v19.8H191.9z
			"/>
	</g>
	<line class="st1" x1="55.9" y1="141.8" x2="206" y2="141.8"/>
	<g>
		<g>
			<path class="st0" d="M168.7,66.6c0,2.2-1.8,4-4,4H97.3c-2.2,0-4-1.8-4-4V31.8c0-2.2,1.8-4,4-4h13.5c2.2,0,4.8-1.6,5.7-3.6
				l0.8-1.7c0.9-2,3.5-3.6,5.7-3.6h16.2c2.2,0,4.9,1.6,5.9,3.5l1,1.9c1,1.9,3.7,3.5,5.9,3.5h12.8c2.2,0,4,1.8,4,4V66.6z"/>
		</g>
		<g>
			<path class="st2" d="M164.5,34.9c0,1.2-1,2.2-2.2,2.2h-6.2c-1.2,0-2.2-1-2.2-2.2v-0.8c0-1.2,1-2.2,2.2-2.2h6.2
				c1.2,0,2.2,1,2.2,2.2V34.9z"/>
		</g>
		<g>
			<circle class="st3" cx="114.2" cy="36.1" r="3.6"/>
		</g>
		<g>
			<circle class="st4" cx="131" cy="47.8" r="17.3"/>
		</g>
		<g>
			<circle class="st5" cx="131" cy="47.8" r="14.5"/>
		</g>
		<g>
			<circle class="st2" cx="131" cy="47.8" r="10.3"/>
		</g>
		<g>
			<path class="st3" d="M136.5,22.5c0,0.8-0.9,1.4-2,1.4h-6.3c-1.1,0-2-0.6-2-1.4c0-0.8,0.9-1.4,2-1.4h6.3
				C135.6,21.1,136.5,21.7,136.5,22.5z"/>
		</g>
	</g>
</g>
<line class="st1" x1="59.8" y1="261" x2="210" y2="261"/>
<g>
	<path class="st0" d="M65.4,271.5l-0.2,1.9c-2.4-0.1-5.2-0.2-7.7-0.2c-4.4,0-6.2,0.2-6.2,5c0,3.4,1.1,4.6,3.8,5.1l5.8,1.2
		c4.2,0.8,5.6,3.1,5.6,7.6c0,6.5-2.9,7.5-9,7.5c-2,0-4.8,0-8.5-0.6l0.2-2c4.2,0.2,5.8,0.2,8.4,0.2c4.7,0,6.2-0.7,6.2-5.2
		c0-3.6-1.1-4.7-3.9-5.2l-5.9-1.2c-4-0.8-5.4-3.2-5.4-7.5c0-6.5,2.8-7.3,8.8-7.2C59.9,270.9,62.7,271,65.4,271.5z"/>
	<path class="st0" d="M92.9,285.2c0,10.8-2.8,14.4-10.7,14.4c-7.9,0-10.7-3.6-10.7-14.4s2.8-14.4,10.7-14.4
		C90.1,270.8,92.9,274.5,92.9,285.2z M74.2,285.2c0,9,2,12.1,8,12.1c6,0,7.9-3,7.9-12.1s-2-12.1-7.9-12.1
		C76.2,273.2,74.2,276.2,74.2,285.2z"/>
	<path class="st0" d="M120,298c0,0.8-0.4,1.1-1.1,1.1h-2.8c-0.6,0-1-0.3-1.3-0.9l-10.6-21.1c-0.5-1-1.2-2.3-1.6-3.3h-0.8
		c0.1,1.1,0.1,2.2,0.1,3.3v22h-2.6v-26.7c0-0.8,0.4-1.1,1.1-1.1h2.7c0.6,0,1,0.3,1.3,0.9l10.4,20.6l1.9,3.7h0.8
		c-0.1-1.3-0.1-2.7-0.1-4v-21.3h2.6V298z"/>
	<path class="st0" d="M136.3,299.1h-2.6v-10l-9.4-17.8h2.8l6.4,12.3c0.5,1,0.9,2,1.3,3h0.3c0.4-1,0.9-2,1.3-2.9l6.4-12.4h2.8
		l-9.3,17.8V299.1z"/>
	<path class="st0" d="M158,299.1v-27.8h2.6v27.8H158z"/>
	<path class="st0" d="M193.9,271.3c0.8,0,1.2,0.4,1.2,1.2l1.2,26.6h-2.6l-1.1-25.6h-0.9l-7.2,21.8c-0.2,0.6-0.6,0.9-1.2,0.9h-2.7
		c-0.6,0-1-0.3-1.2-0.9l-7.3-21.8h-0.8l-1,25.6h-2.6l1.1-26.6c0-0.7,0.4-1.2,1.2-1.2h3.2c0.6,0,1,0.3,1.2,0.9l6.1,18.1
		c0.4,1.3,0.8,2.5,1.1,3.8h0.9c0.4-1.3,0.8-2.5,1.2-3.8l6.1-18.1c0.2-0.6,0.6-0.9,1.2-0.9H193.9z"/>
	<path class="st0" d="M211.1,285.7l-7.5,13.5h-2.9l8.2-14.4l-7.7-13.4h2.9l7,12.3h1.3l6.9-12.3h2.9l-7.7,13.4l8.2,14.4h-2.9
		l-7.5-13.5H211.1z"/>
</g>
<g>
	<g>
		<path class="st0" d="M101.7,228.6l-0.2,1.5c-1.8-0.1-3.9-0.2-5.9-0.2c-3.4,0-4.8,0.1-4.8,3.8c0,2.6,0.9,3.5,2.9,3.9l4.4,0.9
			c3.2,0.6,4.3,2.4,4.3,5.8c0,4.9-2.2,5.7-6.9,5.7c-1.5,0-3.7,0-6.5-0.5l0.1-1.5c3.2,0.2,4.5,0.2,6.4,0.2c3.6,0,4.8-0.6,4.8-3.9
			c0-2.8-0.9-3.6-2.9-4l-4.5-1c-3-0.6-4.1-2.4-4.1-5.7c0-5,2.1-5.6,6.7-5.5C97.6,228.1,99.7,228.2,101.7,228.6z"/>
		<path class="st0" d="M118.4,248l0.2,1.3c-1.3,0.5-3.9,0.7-5.6,0.7c-5,0-6.9-2.1-6.9-7.9c0-5.8,1.9-7.8,6.7-7.8
			c4.3,0,6.2,1.6,6.2,4.6c0,2.7-1,4.1-3.4,4.1h-7.4c0.2,4.1,1.7,5.2,5.1,5.2C115,248.3,117,248.1,118.4,248z M108.1,241.6h7
			c1.5,0,1.9-1.1,1.9-2.6c0-2.1-1.3-3-4.1-3C109.4,236.1,108.2,237.4,108.1,241.6z"/>
		<path class="st0" d="M135.9,238.5v11.2h-1.9V239c0-2.1-0.8-2.9-2.6-2.9c-1.9,0-3.7,0.9-6.2,2.6l0,11h-2v-14.9h1.6l0.1,2.5
			c2.4-1.8,4.6-2.9,6.9-2.9C134.5,234.4,135.9,235.8,135.9,238.5z"/>
		<path class="st0" d="M151.8,234.8l-0.2,1.4c-1.8-0.1-3.8-0.2-5.7-0.2c-2.9,0-4.1,0-4.1,2.4c0,1.8,0.8,2.2,2.3,2.5l4.6,0.9
			c2.3,0.5,3.4,1.5,3.4,4c0,3.7-2.1,4.2-6.2,4.2c-1.2,0-3.3,0-5.7-0.4l0.2-1.4c1.6,0.2,3.3,0.2,5.2,0.2c3.5,0,4.6-0.4,4.6-2.5
			c0-1.8-1-2.2-2.4-2.4l-4.5-0.9c-2.3-0.5-3.3-1.6-3.3-4.1c0-3.6,1.8-4.1,5.7-4.1C147.6,234.4,150,234.6,151.8,234.8z"/>
		<path class="st0" d="M169.4,242.2c0,5.7-1.8,7.8-6.8,7.8c-5,0-6.8-2.1-6.8-7.8c0-5.7,1.8-7.8,6.8-7.8
			C167.6,234.4,169.4,236.5,169.4,242.2z M157.8,242.2c0,4.7,1.2,6.1,4.8,6.1c3.6,0,4.8-1.4,4.8-6.1c0-4.7-1.2-6.1-4.8-6.1
			C159,236.1,157.8,237.5,157.8,242.2z"/>
		<path class="st0" d="M182.5,236.2h-0.7c-1.8,0-3.5,0.8-6,2.3v11.1h-2v-14.9h1.5l0.2,2.5c2.3-1.8,4.5-2.9,6.6-2.9h0.6L182.5,236.2z
			"/>
	</g>
</g>
<g>
	<g>
		<g>
			<path class="st0" d="M311.6,279.6c-1.4,0-2.2,0.8-2.2,2.2v5.4h9.2v1.6l-9.2,0v10.2h-2v-17.6c0-2.2,1.5-3.6,3.7-3.6
				c2.9,0,6,0,8.8,0.2l-0.1,1.5H311.6z"/>
			<path class="st0" d="M325.6,295.5c0,1.4,0.8,2.1,2.2,2.1h1.6l0.2,1.5c-0.5,0.2-1.8,0.3-2.5,0.3c-2.1,0-3.4-1.3-3.4-3.6v-18.2h1.9
				V295.5z"/>
			<path class="st0" d="M344.2,288.4v10.7h-1.5l-0.2-2.6c-1.2,1.2-3.7,2.9-6.5,2.9c-2.6,0-4.2-1.4-4.2-4v-1.7c0-2.3,1.4-3.6,3.9-3.6
				h6.7v-1.6c0-1.9-0.7-2.9-3.2-2.9c-1.8,0-4.3,0.2-6.6,0.4l-0.2-1.4c2-0.3,4.6-0.7,7.2-0.7C342.5,283.9,344.2,285,344.2,288.4z
				 M342.2,295.2v-3.7l-6.4,0.1c-1.6,0.1-2.2,0.9-2.2,2.3v1.3c0,1.7,0.9,2.5,2.6,2.5C338,297.7,340.5,296.7,342.2,295.2z"/>
			<path class="st0" d="M360.1,284.3l-0.2,1.4c-1.8-0.1-3.8-0.2-5.7-0.2c-2.9,0-4.1,0-4.1,2.4c0,1.8,0.8,2.2,2.3,2.5l4.6,0.9
				c2.3,0.5,3.4,1.5,3.4,4c0,3.7-2.1,4.2-6.2,4.2c-1.2,0-3.3,0-5.7-0.4l0.2-1.4c1.6,0.2,3.3,0.2,5.2,0.2c3.5,0,4.6-0.4,4.6-2.5
				c0-1.8-1-2.2-2.4-2.4l-4.5-0.9c-2.3-0.5-3.3-1.6-3.3-4.1c0-3.6,1.8-4.1,5.7-4.1C355.9,283.9,358.3,284.1,360.1,284.3z"/>
			<path class="st0" d="M377.4,288v11.2h-2v-10.7c0-2.1-0.8-2.9-2.6-2.9c-1.9,0-3.6,0.9-6.2,2.6v11h-1.9v-21.5h1.9l0.1,6.2
				c0,1.1-0.1,2.1-0.2,2.9c2.4-1.8,4.6-2.9,6.8-2.9C376,283.9,377.4,285.3,377.4,288z"/>
			<path class="st0" d="M391.6,295.2c0,1.5,0.8,2.2,2.2,2.2h7.9l0.1,1.5c-2.7,0.2-5.5,0.2-8.3,0.2c-2.7,0-3.9-1.6-3.9-3.7v-17.5h2
				V295.2z"/>
			<path class="st0" d="M406.6,278c0.4,0,0.6,0.2,0.6,0.6v1.8c0,0.4-0.2,0.6-0.6,0.6h-0.9c-0.5,0-0.6-0.2-0.6-0.6v-1.8
				c0-0.4,0.2-0.6,0.6-0.6H406.6z M405.2,299.1v-14.9h1.9v14.9H405.2z"/>
			<path class="st0" d="M423.5,285.5c0.6,0.8,0.9,1.8,0.9,3.1c0,3.2-1.6,4.6-6.2,4.6c-1.4,0-2.5-0.1-3.4-0.4
				c-0.9,1.1-0.9,2.7,1.1,3.1l5.7,1c2.8,0.4,3.6,1.7,3.6,4.1c0,3.4-1.8,4.5-6.9,4.5c-5.2,0-7-1.1-7-4.4c0-2,0.6-3,2.5-3.9
				c-1.8-1-1.5-3.6-0.1-4.7c-1.3-0.7-1.8-2-1.8-3.8c0-3.3,1.6-4.7,6.2-4.7c1.4,0,2.5,0.1,3.3,0.4h4.6l-0.1,1.1L423.5,285.5z
				 M420.7,298.3l-5.6-0.9l-0.1,0.1c-1.4,0.9-1.8,1.7-1.8,3.3c0,2.3,1.2,2.9,5.1,2.9c3.8,0,5-0.6,5-2.9
				C423.3,299.2,422.8,298.7,420.7,298.3z M422.5,288.6c0-2.2-1.1-3.2-4.4-3.2c-3.3,0-4.4,1-4.4,3.2c0,2.2,1.2,3.1,4.4,3.1
				S422.5,290.8,422.5,288.6z"/>
			<path class="st0" d="M442,288v11.2h-2v-10.7c0-2.1-0.8-2.9-2.6-2.9c-1.9,0-3.6,0.9-6.2,2.6v11h-1.9v-21.5h1.9l0.1,6.2
				c0,1.1-0.1,2.1-0.2,2.9c2.4-1.8,4.6-2.9,6.8-2.9C440.6,283.9,442,285.3,442,288z"/>
			<path class="st0" d="M450.1,295.5c0,1.5,0.7,2.1,2.2,2.1h2.4l0.2,1.5c-0.9,0.2-2.5,0.3-3.1,0.3c-2.5,0-3.7-1.3-3.7-3.7v-9.9h-2.7
				v-1.4l2.7-0.2v-4.5h1.9v4.5h5v1.5h-5V295.5z"/>
		</g>
	</g>
	<g>
		<path class="st0" d="M405.3,242.1c-7.8,0-14.2,6.4-14.2,14.2c0,7.9,6.4,14.2,14.2,14.2c7.8,0,14.2-6.4,14.2-14.2
			C419.5,248.5,413.1,242.1,405.3,242.1L405.3,242.1z M405.3,266c-5.4,0-9.7-4.4-9.7-9.7c0-5.4,4.4-9.7,9.7-9.7
			c5.4,0,9.7,4.4,9.7,9.7C415,261.7,410.7,266,405.3,266L405.3,266z M405.3,266"/>
		<path class="st0" d="M383.9,256.9c0-0.2,0-0.4,0-0.6c0-7.4,3.8-14,9.6-17.8h-11l6.7-17.6h-17.7l-10.1,26.7l18.1,0.1l-9.3,24.7
			L383.9,256.9z M383.9,256.9"/>
		<path class="st0" d="M404.2,249.6l-4.5,11.6h2.5l1-2.6h4.7l1,2.6h2.6l-4.7-11.6H404.2z M403.8,256.7l1.6-4.3l1.6,4.3H403.8z
			 M403.8,256.7"/>
	</g>
</g>
</svg>
