<?xml version="1.0" encoding="utf-8"?>
<!-- Generator: Adobe Illustrator 21.0.0, SVG Export Plug-In . SVG Version: 6.00 Build 0)  -->
<svg version="1.1" id="symphony" xmlns="http://www.w3.org/2000/svg" xmlns:xlink="http://www.w3.org/1999/xlink" x="0px" y="0px"
	 viewBox="0 0 64 64" style="enable-background:new 0 0 64 64;" xml:space="preserve">
<style type="text/css">
	.st0{fill:#231F20;}
</style>
<g>
	<path class="st0" d="M2.6,33.2l0-2c0,0,6-1.4,8.4-3c0,0,0.7,14,0.7,15.1l-6.4,1l0.1-10.8L2.6,33.2z"/>
	
		<ellipse transform="matrix(1 -2.000956e-03 2.000956e-03 1 -4.574705e-02 1.593785e-02)" class="st0" cx="7.9" cy="22.9" rx="3.3" ry="3.3"/>
	<path class="st0" d="M51.7,20.2c-6,0-10.8,5.3-10.8,11.8c0,6.5,4.9,11.8,10.9,11.8c6,0,10.8-5.3,10.8-11.8
		C62.5,25.5,57.7,20.2,51.7,20.2z M53,38.6c-2,0-6.1-2.4-6.1-7.6c0-5.2,3.7-5.8,3.7-5.8c3.3,0,6.3,4.2,6.3,8.2
		C56.8,37.4,53.8,38.6,53,38.6z"/>
	<path class="st0" d="M14.8,28.4l0,4.8l3.7-2.3l-0.2,13.5l0,0v0l0,0.2c0,0.2-0.1,0.4-0.3,0.4l-0.3,0.1l-0.1,0.6c0,0,0.3,0,0.7-0.1
		l0,0c6.1-0.7,6.3-4,6.3-4l0.8-18.8C20.6,25.2,14.8,28.4,14.8,28.4z"/>
	<path class="st0" d="M28.5,28.4l0,4.8l3.7-2.3L32,44.3l0,0l0,0l0,0.2c0,0.2-0.1,0.4-0.3,0.4l-0.3,0.1l-0.1,0.6c0,0,0.3,0,0.7-0.1
		l0,0c6.1-0.7,6.3-4,6.3-4l0.8-18.8C34.2,25.2,28.5,28.4,28.5,28.4z"/>
</g>
</svg>
