<?xml version="1.0" encoding="utf-8"?>
<!-- Generator: Adobe Illustrator 21.0.0, SVG Export Plug-In . SVG Version: 6.00 Build 0)  -->
<svg version="1.1" id="Layer_1" xmlns="http://www.w3.org/2000/svg" xmlns:xlink="http://www.w3.org/1999/xlink" x="0px" y="0px"
	 viewBox="0 0 500 342" style="enable-background:new 0 0 500 342;" xml:space="preserve">
<style type="text/css">
	.st0{fill:#2D2D2D;}
	.st1{enable-background:new    ;}
	.st2{fill:#414042;}
	.st3{fill:#FFFFFF;}
</style>
<g>
	<g>
		<g>
			<g>
				<path class="st0" d="M365.4,44.5l8.9-15.2h-10.2c-3.2,4.3-5.1,9.7-5.1,15.4c0,3,0.5,5.9,1.4,8.5L365.4,44.5L365.4,44.5z"/>
			</g>
			<g>
				<path class="st0" d="M391.4,61.1h-14.8l5.4,9.2c0.9,0.1,1.9,0.2,2.8,0.2c8,0,15.2-3.7,19.9-9.4h-10.2
					C394.5,61.1,391.4,61.1,391.4,61.1z"/>
			</g>
			<g>
				<path class="st0" d="M378.4,27.9h14.4l-5.2-8.8c-0.9-0.1-1.9-0.2-2.9-0.2c-7.8,0-14.8,3.5-19.6,9h9.9
					C375,27.9,378.4,27.9,378.4,27.9z"/>
			</g>
			<g>
				<path class="st0" d="M401.7,48.8l-6.4,11h10.5c3-4.2,4.8-9.4,4.8-15c0-3-0.5-6-1.5-8.7l-7.3,12.8L401.7,48.8z"/>
			</g>
			<g>
				<path class="st0" d="M394.5,27.9l9,15.4l5-8.8c-3.4-7.8-10.5-13.5-19.1-15.1L394.5,27.9L394.5,27.9z"/>
			</g>
			<g>
				<path class="st0" d="M373,57.6L366.3,46l-5.2,8.9c3.4,7.8,10.5,13.7,19.2,15.2L373,57.6L373,57.6z"/>
			</g>
		</g>
		<g>
			<g class="st1">
				<path class="st0" d="M333.5,165.3l-2.1,6.4h-1.9l6.5-18.9c0.1-0.3,0.4-0.5,0.7-0.5h2.1c0.3,0,0.6,0.2,0.7,0.5l6.5,18.9h-1.9
					l-2.1-6.4H333.5z M338.6,155.3c-0.2-0.5-0.4-1.1-0.5-1.6h-0.8c-0.2,0.5-0.3,1-0.5,1.6l-2.8,8.4h7.4L338.6,155.3z"/>
				<path class="st0" d="M360.7,164.9c0,5.2-1.5,7.1-5.1,7.1c-1.8,0-3.5-0.5-5.3-1.4c0.1,1,0.1,1.7,0.1,2.7v4.1h-1.8v-19.4h1.5
					l0.2,2.3c1.6-1.6,3.7-2.6,5.6-2.6C359.4,157.7,360.7,160,360.7,164.9z M358.9,164.9c0-4.2-1-5.6-3.5-5.6c-1.6,0-3,0.7-5,2.4v7.8
					c1.9,0.6,3.2,1,4.8,1C357.9,170.4,358.9,169.2,358.9,164.9z"/>
				<path class="st0" d="M375.4,170.1l0.2,1.2c-1.2,0.5-3.6,0.7-5.1,0.7c-4.6,0-6.3-2-6.3-7.2c0-5.3,1.8-7.1,6.1-7.1
					c3.9,0,5.7,1.4,5.7,4.2c0,2.4-0.9,3.8-3.1,3.8H366c0.2,3.7,1.6,4.7,4.7,4.7C372.3,170.5,374.1,170.3,375.4,170.1z M366,164.3
					h6.4c1.4,0,1.8-1,1.7-2.4c0-1.9-1.2-2.7-3.8-2.7C367.2,159.3,366.1,160.5,366,164.3z"/>
				<path class="st0" d="M387.8,159.4h-0.7c-1.7,0-3.2,0.8-5.5,2.1v10.2h-1.8v-13.6h1.4l0.2,2.3c2.1-1.7,4.1-2.6,6-2.6h0.6
					L387.8,159.4z"/>
				<path class="st0" d="M393.6,168.3c0,1.4,0.6,2,2,2h2.2l0.2,1.4c-0.8,0.2-2.3,0.3-2.8,0.3c-2.3,0-3.4-1.2-3.4-3.4v-9h-2.5v-1.3
					l2.5-0.1v-4.1h1.8v4.1h4.6v1.4h-4.6V168.3z"/>
				<path class="st0" d="M412.5,171.7h-1.4l-0.1-2.1c-2.1,1.7-4.1,2.5-6,2.5c-2.4,0-3.7-1.3-3.7-3.7v-10.2h1.8v9.8
					c0,1.9,0.7,2.6,2.5,2.6c1.6,0,3.1-0.8,5.2-2.2v-10.2h1.8V171.7z"/>
				<path class="st0" d="M425.2,159.4h-0.7c-1.7,0-3.2,0.8-5.5,2.1v10.2h-1.8v-13.6h1.4l0.2,2.3c2.1-1.7,4.1-2.6,6-2.6h0.6
					L425.2,159.4z"/>
				<path class="st0" d="M438.5,170.1l0.2,1.2c-1.2,0.5-3.6,0.7-5.1,0.7c-4.6,0-6.3-2-6.3-7.2c0-5.3,1.8-7.1,6.1-7.1
					c3.9,0,5.7,1.4,5.7,4.2c0,2.4-0.9,3.8-3.1,3.8h-6.8c0.2,3.7,1.6,4.7,4.7,4.7C435.4,170.5,437.2,170.3,438.5,170.1z M429.1,164.3
					h6.4c1.4,0,1.8-1,1.7-2.4c0-1.9-1.2-2.7-3.8-2.7C430.2,159.3,429.1,160.5,429.1,164.3z"/>
			</g>
		</g>
		<g class="st1">
			<path class="st0" d="M331.5,86.9c-4.4,0-6.1,1.6-6.1,5.9v5.6h10.5v3.2h-10.5v28h-4.1v-28h-5.6v-2.9l5.6-0.3v-6c0-5.7,2.3-9,8.8-9
				c1.9,0,6,0.1,8.4,0.4l-0.3,3H331.5z"/>
			<path class="st0" d="M336.3,133.6l25.3-48.5h3.5l-25.3,48.5H336.3z"/>
			<path class="st0" d="M397.9,93.7c0,5.7-2.4,10-8.3,16.7L376,125.7c2.4-0.1,5-0.1,7.4-0.1h16.2v4h-28.7V127c0-0.8,0.1-1.4,0.6-1.9
				l13.8-15.7c5.7-6.4,8.4-11,8.2-15.7c-0.2-5-3.7-5.6-9.3-5.6c-4.1,0-7.2,0.2-12.7,1.2l-0.4-3.3c6.1-1.4,9.4-1.7,13.3-1.7
				C392.8,84.4,397.9,85.8,397.9,93.7z"/>
			<path class="st0" d="M411,122.7c1.2,0,1.6,0.5,1.6,1.6v3.7c0,1.2-0.5,1.6-1.6,1.6h-1.4c-1.1,0-1.5-0.5-1.5-1.6v-3.7
				c0-1.2,0.5-1.6,1.5-1.6H411z"/>
			<path class="st0" d="M451.5,107.4c0,16-3.8,23-14.8,23c-11,0-14.8-7-14.8-23c0-16,3.7-23,14.8-23
				C447.7,84.4,451.5,91.3,451.5,107.4z M426,107.4c0,13.7,2.6,19.3,10.6,19.3c8.1,0,10.6-5.7,10.6-19.3c0-13.7-2.6-19.3-10.6-19.3
				C428.7,88,426,93.7,426,107.4z"/>
		</g>
		<g>
			<rect x="316.1" y="141.5" class="st2" width="137.4" height="0.7"/>
		</g>
	</g>
	<g>
		<rect x="257.5" y="55.4" class="st2" width="0.7" height="94.5"/>
	</g>
	<g>
		<rect x="257.5" y="214.8" class="st2" width="0.7" height="94.6"/>
	</g>
	<g>
		<g class="st1">
			<path class="st0" d="M57.5,152.4l-0.1,1.4c-1.7-0.1-3.6-0.2-5.4-0.2c-3.1,0-4.4,0.1-4.4,3.5c0,2.4,0.8,3.2,2.7,3.6l4.1,0.8
				c3,0.6,3.9,2.2,3.9,5.3c0,4.5-2,5.2-6.3,5.2c-1.4,0-3.4,0-5.9-0.4l0.1-1.4c2.9,0.1,4.1,0.2,5.9,0.2c3.3,0,4.4-0.5,4.4-3.6
				c0-2.5-0.8-3.3-2.7-3.6l-4.1-0.9c-2.8-0.6-3.8-2.2-3.8-5.3c0-4.6,1.9-5.1,6.1-5C53.7,152,55.7,152.1,57.5,152.4z"/>
			<path class="st0" d="M74.1,164.9c0,5.2-1.7,7.1-6.2,7.1s-6.3-1.9-6.3-7.1s1.7-7.2,6.3-7.2S74.1,159.6,74.1,164.9z M63.4,164.9
				c0,4.3,1.1,5.6,4.4,5.6s4.4-1.3,4.4-5.6c0-4.3-1.1-5.6-4.4-5.6S63.4,160.6,63.4,164.9z"/>
			<path class="st0" d="M89.7,161.4v10.2h-1.8v-9.8c0-1.9-0.7-2.7-2.4-2.7c-1.8,0-3.3,0.8-5.7,2.4l0,10.1h-1.8v-13.6h1.5l0.1,2.3
				c2.2-1.7,4.2-2.6,6.3-2.6C88.5,157.7,89.7,159,89.7,161.4z"/>
			<path class="st0" d="M100.3,172.6c-0.9,2.4-2.3,4.5-5.4,4.9l-0.2-1.2c2.3-0.8,3.3-2.1,4-3.9l0.3-0.8h-0.5c-0.3,0-0.6-0.2-0.7-0.5
				l-5.2-13.1h1.9l4,10.6c0.2,0.5,0.4,1,0.6,1.6h0.4l0.6-1.6l4-10.6h1.9L100.3,172.6z"/>
			<path class="st0" d="M125.8,152.4l-0.1,1.4c-1.7-0.1-3.6-0.2-5.4-0.2c-3.1,0-4.4,0.1-4.4,3.5c0,2.4,0.8,3.2,2.7,3.6l4.1,0.8
				c3,0.6,3.9,2.2,3.9,5.3c0,4.5-2,5.2-6.3,5.2c-1.4,0-3.4,0-5.9-0.4l0.1-1.4c2.9,0.1,4.1,0.2,5.9,0.2c3.3,0,4.4-0.5,4.4-3.6
				c0-2.5-0.8-3.3-2.7-3.6l-4.1-0.9c-2.8-0.6-3.8-2.2-3.8-5.3c0-4.6,1.9-5.1,6.1-5C122,152,123.9,152.1,125.8,152.4z"/>
			<path class="st0" d="M141.1,170.1l0.2,1.2c-1.2,0.5-3.6,0.7-5.1,0.7c-4.6,0-6.3-2-6.3-7.2c0-5.3,1.8-7.1,6.1-7.1
				c3.9,0,5.7,1.4,5.7,4.2c0,2.4-0.9,3.8-3.1,3.8h-6.8c0.2,3.7,1.6,4.7,4.7,4.7C138,170.5,139.8,170.3,141.1,170.1z M131.7,164.3
				h6.4c1.4,0,1.8-1,1.7-2.4c0-1.9-1.2-2.7-3.8-2.7C132.8,159.3,131.7,160.5,131.7,164.3z"/>
			<path class="st0" d="M157.1,161.4v10.2h-1.8v-9.8c0-1.9-0.7-2.7-2.4-2.7c-1.8,0-3.3,0.8-5.7,2.4l0,10.1h-1.8v-13.6h1.5l0.1,2.3
				c2.2-1.7,4.2-2.6,6.3-2.6C155.8,157.7,157.1,159,157.1,161.4z"/>
			<path class="st0" d="M171.7,158.1l-0.2,1.3c-1.7-0.1-3.5-0.2-5.2-0.2c-2.7,0-3.7,0-3.7,2.2c0,1.6,0.7,2,2.1,2.3l4.2,0.8
				c2.1,0.4,3.2,1.4,3.2,3.7c0,3.4-1.9,3.9-5.7,3.9c-1.1,0-3,0-5.2-0.4l0.1-1.3c1.5,0.1,3,0.2,4.8,0.2c3.2,0,4.2-0.3,4.2-2.3
				c0-1.6-0.9-2-2.2-2.2l-4.2-0.8c-2.1-0.4-3-1.4-3-3.7c0-3.3,1.7-3.7,5.2-3.7C167.8,157.7,170,157.9,171.7,158.1z"/>
			<path class="st0" d="M187.8,164.9c0,5.2-1.7,7.1-6.2,7.1s-6.3-1.9-6.3-7.1s1.7-7.2,6.3-7.2S187.8,159.6,187.8,164.9z
				 M177.2,164.9c0,4.3,1.1,5.6,4.4,5.6s4.4-1.3,4.4-5.6c0-4.3-1.1-5.6-4.4-5.6S177.2,160.6,177.2,164.9z"/>
			<path class="st0" d="M199.8,159.4h-0.7c-1.7,0-3.2,0.8-5.5,2.1v10.2h-1.8v-13.6h1.4l0.2,2.3c2.1-1.7,4.1-2.6,6-2.6h0.6
				L199.8,159.4z"/>
		</g>
		<g class="st1">
			<path class="st0" d="M58.7,129.6V92.7c0-1.2,0.1-2.4,0.3-3.5l-11.3,3.6l-0.6-3l11.6-4.6h4.3v44.5H58.7z"/>
			<path class="st0" d="M100.4,94.6c0,5.5-1.5,10.2-6.8,11.2v0.3c6,1,7.8,5.2,7.9,11.1c0.2,8.9-3.5,13.1-13.8,13.1
				c-4.7,0-9.4-0.5-13.8-1.1l0.4-3.4c4.1,0.4,8.2,0.7,12.5,0.7c7.5,0,10.5-2.6,10.5-9.8c0-5-1.5-9-9.6-9h-8.2v-3.3l8.2-0.1
				c7.8-0.1,8.6-4.8,8.6-9c-0.1-6.1-2.5-7.3-10-7.3c-4.2,0-8.2,0.3-11.2,0.6l-0.5-3.2c4.3-0.7,8.1-1.1,12.1-1.1
				C96.6,84.4,100.4,86.8,100.4,94.6z"/>
			<path class="st0" d="M153.4,85.1c1.2,0,1.9,0.7,1.9,1.9l1.9,42.6h-4.2l-1.7-40.9h-1.4l-11.5,34.9c-0.3,1-0.9,1.4-1.9,1.4h-4.3
				c-1,0-1.6-0.5-1.9-1.4l-11.6-34.9h-1.4l-1.7,40.9h-4.2l1.8-42.6c0-1.2,0.6-1.9,1.9-1.9h5.1c1,0,1.5,0.5,1.9,1.5l9.7,29
				c0.6,2.1,1.2,4,1.8,6.1h1.4c0.6-2.1,1.2-4.1,1.9-6.1l9.7-28.9c0.3-1,0.9-1.5,1.9-1.5H153.4z"/>
			<path class="st0" d="M196.9,98.2c0,10.7-3.5,13.6-13.3,13.6c-4.4,0-8.4-0.3-11.1-0.5v18.3h-4.2V85.1c4.7-0.5,7.9-0.5,14.9-0.5
				C193.4,84.6,196.9,87.6,196.9,98.2z M183,108.1c7.1-0.1,9.5-2.1,9.5-9.9c0-7.9-2.4-10-9.5-10c-4.3,0-8.1,0-10.6,0.1v19.8H183z"/>
		</g>
		<g>
			<rect x="47" y="141.5" class="st2" width="150.2" height="0.7"/>
		</g>
		<g>
			<g>
				<g>
					<path class="st0" d="M159.8,66.6c0,2.2-1.8,4-4,4H88.4c-2.2,0-4-1.8-4-4V31.8c0-2.2,1.8-4,4-4h13.5c2.2,0,4.8-1.6,5.7-3.6
						l0.8-1.7c0.9-2,3.5-3.6,5.7-3.6h16.2c2.2,0,4.9,1.6,5.9,3.5l1,1.9c1,1.9,3.7,3.5,5.9,3.5h12.8c2.2,0,4,1.8,4,4L159.8,66.6
						L159.8,66.6z"/>
				</g>
			</g>
			<g>
				<g>
					<path class="st3" d="M155.6,34.9c0,1.2-1,2.2-2.2,2.2h-6.2c-1.2,0-2.2-1-2.2-2.2v-0.8c0-1.2,1-2.2,2.2-2.2h6.2
						c1.2,0,2.2,1,2.2,2.2V34.9z"/>
				</g>
			</g>
			<g>
				<g>
					<circle class="st2" cx="105.3" cy="36.1" r="3.6"/>
				</g>
			</g>
			<g>
				<g>
					<path class="st3" d="M122.1,66.6c-10.4,0-18.8-8.4-18.8-18.8c0-10.4,8.4-18.8,18.8-18.8c10.4,0,18.8,8.4,18.8,18.8
						C140.9,58.2,132.5,66.6,122.1,66.6z M122.1,32c-8.7,0-15.8,7.1-15.8,15.8c0,8.7,7.1,15.8,15.8,15.8c8.7,0,15.8-7.1,15.8-15.8
						C137.9,39.1,130.8,32,122.1,32z"/>
				</g>
			</g>
			<g>
				<g>
					<path class="st2" d="M122.1,63.3c-8.5,0-15.5-7-15.5-15.5s7-15.5,15.5-15.5s15.5,7,15.5,15.5S130.6,63.3,122.1,63.3z
						 M122.1,34.3c-7.4,0-13.5,6.1-13.5,13.5s6.1,13.5,13.5,13.5s13.5-6.1,13.5-13.5S129.5,34.3,122.1,34.3z"/>
				</g>
			</g>
			<g>
				<g>
					<circle class="st3" cx="122.1" cy="47.8" r="10.3"/>
				</g>
			</g>
			<g>
				<g>
					<path class="st2" d="M127.6,22.5c0,0.8-0.9,1.4-2,1.4h-6.3c-1.1,0-2-0.6-2-1.4s0.9-1.4,2-1.4h6.3
						C126.7,21.1,127.6,21.7,127.6,22.5z"/>
				</g>
			</g>
		</g>
	</g>
	<g>
		<g class="st1">
			<path class="st0" d="M163.7,257.1v11.6h-4.1v-11.5h-19.4c-3.3,0-5.2-3.2-3.8-6.2l13.3-26.7h4.2l-13.1,26.7
				c-0.8,1.6,0.1,2.8,1.7,2.8h17.2v-13.6l0.8-7.4h3.2v21h5.5v3L163.7,257.1z"/>
			<path class="st0" d="M190.9,247.2l-12,21.5h-4.6l13.1-23.1l-12.2-21.4h4.6l11.1,19.7h2l11.1-19.7h4.6l-12.2,21.4l13.1,23.1h-4.7
				l-12-21.5H190.9z"/>
		</g>
		<g>
			<g>
				<path class="st0" d="M115.3,222h-14.1c-2.1,0-3.8,1.7-3.8,3.8v40.4H55.9v-12.7v-16.3v-5.9c0-0.2-0.2-0.3-0.3-0.3h-0.8
					c-0.2,0-0.3,0.1-0.3,0.3v5.9v16.3v12.7H46c-1,0-1.9,0.8-1.9,1.9v0.8c0,1,0.8,1.9,1.9,1.9h55.1h14.1h0.3c0.3,0,0.6-0.1,0.8-0.2
					c1.5-0.5,2.6-1.9,2.6-3.6v-41.2C119,223.7,117.3,222,115.3,222z"/>
			</g>
			<g>
				<path class="st0" d="M89.7,262.1h2.6c2.1,0,3.8-1.7,3.8-3.8v-25.9c0-2.1-1.7-3.8-3.8-3.8h-2.6c-2.1,0-3.8,1.7-3.8,3.8v25.9
					C85.9,260.4,87.6,262.1,89.7,262.1z"/>
			</g>
			<g>
				<path class="st0" d="M78.4,259.4H81c2.1,0,3.8-1.7,3.8-3.8v-20.5c0-2.1-1.7-3.8-3.8-3.8h-2.6c-2.1,0-3.8,1.7-3.8,3.8v20.5
					C74.6,257.7,76.3,259.4,78.4,259.4z"/>
			</g>
			<g>
				<path class="st0" d="M67,256.7h2.6c2.1,0,3.8-1.7,3.8-3.8v-15c0-2.1-1.7-3.8-3.8-3.8H67c-2.1,0-3.8,1.7-3.8,3.8v15
					C63.3,255,64.9,256.7,67,256.7z"/>
			</g>
			<g>
				<path class="st0" d="M52,253.5h0.8v-16.3H52c-2.1,0-3.8,1.7-3.8,3.8v8.8C48.3,251.9,50,253.5,52,253.5z"/>
			</g>
			<g>
				<path class="st0" d="M62,249.8V241c0-2.1-1.7-3.8-3.8-3.8h-0.8v16.3h0.8C60.3,253.5,62,251.9,62,249.8z"/>
			</g>
		</g>
		<g>
			<g class="st1">
				<path class="st0" d="M60,299.1H45.7v-1.7l11.9-17.8H45.8v-1.7h14v1.7l-11.9,17.8h12V299.1z"/>
				<path class="st0" d="M76.9,291.7c0,5.7-1.8,7.8-6.8,7.8c-5,0-6.8-2.1-6.8-7.8c0-5.7,1.8-7.8,6.8-7.8
					C75.1,283.9,76.9,286,76.9,291.7z M65.3,291.7c0,4.7,1.2,6.1,4.8,6.1c3.6,0,4.8-1.4,4.8-6.1c0-4.7-1.2-6.1-4.8-6.1
					C66.5,285.6,65.3,287,65.3,291.7z"/>
				<path class="st0" d="M94.3,291.7c0,5.7-1.8,7.8-6.8,7.8c-5,0-6.8-2.1-6.8-7.8c0-5.7,1.8-7.8,6.8-7.8
					C92.5,283.9,94.3,286,94.3,291.7z M82.7,291.7c0,4.7,1.2,6.1,4.8,6.1c3.6,0,4.8-1.4,4.8-6.1c0-4.7-1.2-6.1-4.8-6.1
					C83.9,285.6,82.7,287,82.7,291.7z"/>
				<path class="st0" d="M120.6,288v11.2h-1.9v-10.7c0-2-0.8-2.9-2.6-2.9c-1.8,0-3,0.8-5.4,2.6v11h-1.9v-10.7c0-2.1-0.9-2.9-2.6-2.9
					c-1.7,0-3,0.8-5.4,2.6v11h-1.9v-14.9h1.6l0.1,2.5c2.1-1.9,4.2-2.9,6.3-2.9c2.1,0,3.4,1,3.8,2.8c2.2-1.9,4.1-2.8,6.2-2.8
					C119.2,283.9,120.6,285.3,120.6,288z"/>
				<path class="st0" d="M126.8,285.7c0.6,0,0.7,0.2,0.7,0.8v1.8c0,0.6-0.2,0.8-0.7,0.8h-0.7c-0.6,0-0.8-0.2-0.8-0.8v-1.8
					c0-0.6,0.2-0.8,0.8-0.8H126.8z M126.8,295.8c0.6,0,0.7,0.2,0.7,0.8v1.8c0,0.6-0.2,0.8-0.7,0.8h-0.7c-0.6,0-0.8-0.2-0.8-0.8v-1.8
					c0-0.6,0.2-0.8,0.8-0.8H126.8z"/>
				<path class="st0" d="M154.7,291.1c0,6.1-2,8.4-7.5,8.4c-5.6,0-7.6-2.3-7.6-8.4v-13.2h2v13.2c0,4.9,1.5,6.6,5.6,6.6
					c4,0,5.5-1.7,5.5-6.6v-13.2h2V291.1z"/>
				<path class="st0" d="M173.1,291.8c0,5.7-1.7,7.7-5.5,7.7c-2,0-3.9-0.5-5.7-1.6c0.1,1,0.1,1.9,0.1,2.9v4.5H160v-21.1h1.6l0.2,2.5
					c1.8-1.8,4.1-2.9,6.1-2.9C171.7,283.9,173.1,286.4,173.1,291.8z M171.1,291.7c0-4.5-1.1-6.1-3.8-6.1c-1.7,0-3.3,0.8-5.4,2.6v8.5
					c2.1,0.7,3.5,1.1,5.3,1.1C170,297.8,171.1,296.4,171.1,291.7z"/>
				<path class="st0" d="M186.9,295.5c0,1.5,0.7,2.1,2.2,2.1h2.4l0.2,1.5c-0.9,0.2-2.5,0.3-3.1,0.3c-2.5,0-3.7-1.3-3.7-3.7v-9.9
					h-2.7v-1.4l2.7-0.2v-4.5h1.9v4.5h5v1.5h-5V295.5z"/>
				<path class="st0" d="M208.2,291.7c0,5.7-1.8,7.8-6.8,7.8c-5,0-6.8-2.1-6.8-7.8c0-5.7,1.8-7.8,6.8-7.8
					C206.4,283.9,208.2,286,208.2,291.7z M196.6,291.7c0,4.7,1.2,6.1,4.8,6.1c3.6,0,4.8-1.4,4.8-6.1c0-4.7-1.2-6.1-4.8-6.1
					C197.8,285.6,196.6,287,196.6,291.7z"/>
			</g>
		</g>
	</g>
	<g>
		<g>
			<g class="st1">
				<path class="st0" d="M311.6,279.6c-1.4,0-2.2,0.8-2.2,2.2v5.4h9.2v1.6l-9.2,0v10.2h-2v-17.6c0-2.2,1.5-3.6,3.7-3.6
					c2.9,0,6,0,8.8,0.2l-0.1,1.5H311.6z"/>
				<path class="st0" d="M325.6,295.5c0,1.4,0.8,2.1,2.2,2.1h1.6l0.2,1.5c-0.5,0.2-1.8,0.3-2.5,0.3c-2.1,0-3.4-1.3-3.4-3.6v-18.2
					h1.9V295.5z"/>
				<path class="st0" d="M344.2,288.4v10.7h-1.5l-0.2-2.6c-1.2,1.2-3.7,2.9-6.5,2.9c-2.6,0-4.2-1.4-4.2-4v-1.7
					c0-2.3,1.4-3.6,3.9-3.6h6.7v-1.6c0-1.9-0.7-2.9-3.2-2.9c-1.8,0-4.3,0.2-6.6,0.4l-0.2-1.4c2-0.3,4.6-0.7,7.2-0.7
					C342.5,283.9,344.2,285,344.2,288.4z M342.2,295.2v-3.7l-6.4,0.1c-1.6,0.1-2.2,0.9-2.2,2.3v1.3c0,1.7,0.9,2.5,2.6,2.5
					C338,297.7,340.5,296.7,342.2,295.2z"/>
				<path class="st0" d="M360.1,284.3l-0.2,1.4c-1.8-0.1-3.8-0.2-5.7-0.2c-2.9,0-4.1,0-4.1,2.4c0,1.8,0.8,2.2,2.3,2.5l4.6,0.9
					c2.3,0.5,3.4,1.5,3.4,4c0,3.7-2.1,4.2-6.2,4.2c-1.2,0-3.3,0-5.7-0.4l0.2-1.4c1.6,0.2,3.3,0.2,5.2,0.2c3.5,0,4.6-0.4,4.6-2.5
					c0-1.8-1-2.2-2.4-2.4l-4.5-0.9c-2.3-0.5-3.3-1.6-3.3-4.1c0-3.6,1.8-4.1,5.7-4.1C355.9,283.9,358.3,284.1,360.1,284.3z"/>
				<path class="st0" d="M377.4,288v11.2h-2v-10.7c0-2.1-0.8-2.9-2.6-2.9c-1.9,0-3.6,0.9-6.2,2.6v11h-1.9v-21.5h1.9l0.1,6.2
					c0,1.1-0.1,2.1-0.2,2.9c2.4-1.8,4.6-2.9,6.8-2.9C376,283.9,377.4,285.3,377.4,288z"/>
				<path class="st0" d="M391.6,295.2c0,1.5,0.8,2.2,2.2,2.2h7.9l0.1,1.5c-2.7,0.2-5.5,0.2-8.3,0.2c-2.7,0-3.9-1.6-3.9-3.7v-17.5h2
					V295.2z"/>
				<path class="st0" d="M406.6,278c0.4,0,0.6,0.2,0.6,0.6v1.8c0,0.4-0.2,0.6-0.6,0.6h-0.9c-0.5,0-0.6-0.2-0.6-0.6v-1.8
					c0-0.4,0.2-0.6,0.6-0.6H406.6z M405.2,299.1v-14.9h1.9v14.9H405.2z"/>
				<path class="st0" d="M423.5,285.5c0.6,0.8,0.9,1.8,0.9,3.1c0,3.2-1.6,4.6-6.2,4.6c-1.4,0-2.5-0.1-3.4-0.4
					c-0.9,1.1-0.9,2.7,1.1,3.1l5.7,1c2.8,0.4,3.6,1.7,3.6,4.1c0,3.4-1.8,4.5-6.9,4.5c-5.2,0-7-1.1-7-4.4c0-2,0.6-3,2.5-3.9
					c-1.8-1-1.5-3.6-0.1-4.7c-1.3-0.7-1.8-2-1.8-3.8c0-3.3,1.6-4.7,6.2-4.7c1.4,0,2.5,0.1,3.3,0.4h4.6l-0.1,1.1L423.5,285.5z
					 M420.7,298.3l-5.6-0.9l-0.1,0.1c-1.4,0.9-1.8,1.7-1.8,3.3c0,2.3,1.2,2.9,5.1,2.9c3.8,0,5-0.6,5-2.9
					C423.3,299.2,422.8,298.7,420.7,298.3z M422.5,288.6c0-2.2-1.1-3.2-4.4-3.2c-3.3,0-4.4,1-4.4,3.2c0,2.2,1.2,3.1,4.4,3.1
					S422.5,290.8,422.5,288.6z"/>
				<path class="st0" d="M442,288v11.2h-2v-10.7c0-2.1-0.8-2.9-2.6-2.9c-1.9,0-3.6,0.9-6.2,2.6v11h-1.9v-21.5h1.9l0.1,6.2
					c0,1.1-0.1,2.1-0.2,2.9c2.4-1.8,4.6-2.9,6.8-2.9C440.6,283.9,442,285.3,442,288z"/>
				<path class="st0" d="M450.1,295.5c0,1.5,0.7,2.1,2.2,2.1h2.4l0.2,1.5c-0.9,0.2-2.5,0.3-3.1,0.3c-2.5,0-3.7-1.3-3.7-3.7v-9.9
					h-2.7v-1.4l2.7-0.2v-4.5h1.9v4.5h5v1.5h-5V295.5z"/>
			</g>
		</g>
		<g>
			<g>
				<path class="st0" d="M405.3,242.1c-7.8,0-14.2,6.4-14.2,14.2c0,7.9,6.4,14.2,14.2,14.2c7.8,0,14.2-6.4,14.2-14.2
					S413.1,242.1,405.3,242.1L405.3,242.1z M405.3,266c-5.4,0-9.7-4.4-9.7-9.7c0-5.4,4.4-9.7,9.7-9.7c5.4,0,9.7,4.4,9.7,9.7
					C415,261.7,410.7,266,405.3,266L405.3,266z"/>
			</g>
			<g>
				<path class="st0" d="M383.9,256.9c0-0.2,0-0.4,0-0.6c0-7.4,3.8-14,9.6-17.8h-11l6.7-17.6h-17.7l-10.1,26.7l18.1,0.1l-9.3,24.7
					L383.9,256.9z"/>
			</g>
			<g>
				<path class="st0" d="M404.2,249.6l-4.5,11.6h2.5l1-2.6h4.7l1,2.6h2.6l-4.7-11.6H404.2z M403.8,256.7l1.6-4.3l1.6,4.3H403.8z"/>
			</g>
		</g>
	</g>
</g>
</svg>
