<?xml version="1.0" encoding="utf-8"?>
<!-- Generator: Adobe Illustrator 21.0.0, SVG Export Plug-In . SVG Version: 6.00 Build 0)  -->
<svg version="1.1" id="symphony" xmlns="http://www.w3.org/2000/svg" xmlns:xlink="http://www.w3.org/1999/xlink" x="0px" y="0px"
	 viewBox="0 0 910.5 124.5" style="enable-background:new 0 0 910.5 124.5;" xml:space="preserve">
<style type="text/css">
	.st0{fill-rule:evenodd;clip-rule:evenodd;fill:#DE0024;}
	.st1{fill-rule:evenodd;clip-rule:evenodd;fill:#231F20;}
	.st2{fill:#231F20;}
</style>
<g>
	<g>
		<g>
			<g>
				<g>
					<path class="st0" d="M456,47.7c-8.1-7.8-16.8-11.4-27.9-11.4c-11.1,0.2-19.9,3.8-27.9,11.8c-7.8,8.1-11.4,16.8-11.4,28
						c0.2,11.1,3.9,19.8,11.8,27.8c8.1,7.8,16.9,11.4,28,11.4c11.1-0.1,19.8-3.9,27.8-11.8c7.8-8.1,11.4-16.9,11.4-28
						C467.6,64.4,463.9,55.7,456,47.7L456,47.7z M447.1,94.5c-4.9,4.9-11.5,7.8-18.4,7.9l-0.2,0c-7.1,0.1-13.9-2.6-18.9-7.7
						c-5.1-4.9-7.9-11.6-7.9-18.7c-0.1-7,2.6-13.8,7.6-18.7c4.9-5,11.7-7.9,18.8-7.9c7-0.1,13.7,2.7,18.7,7.6
						c5.1,4.9,8,11.6,7.9,18.7C454.9,82.7,452.1,89.5,447.1,94.5z"/>
					<g>
						<path class="st1" d="M17.8,44.9c-2.6,2.6-4.4,5.4-5.6,8.5c-1.4,3.2-2,6.4-2.2,9.6l0,0.6l0,0.8c0,3.5,0.7,6.9,2,10.4
							c1.4,3.3,3.3,6.2,6.2,9l4,4.1c1.2,1.1,2.3,2.5,2.9,4c0.7,1.4,1.1,2.9,1.3,4.4l0.1,0.4l0,0.4l0,0.5l0,0.4
							c0,1.8-0.3,3.6-0.9,5.3c-0.7,1.8-1.8,3.5-3.2,4.9l-7.4,7.6l18.3-0.1c2-2.2,3.3-4.6,4.4-7.3c1.3-3.4,2-6.9,2-10.5l0-0.7l0-0.5
							c-0.2-3.3-0.9-6.4-2.3-9.6c-1.4-3.1-3.3-5.9-5.8-8.5l-4.3-4.3c-1.4-1.3-2.5-3.1-3.2-4.9c-0.7-1.7-0.9-3.4-0.9-5.2l0-0.5l0-0.4
							l0-0.8l0.1-0.7c0.2-1.3,0.7-2.6,1.2-3.7c0.7-1.4,1.5-2.7,2.7-3.9l12-12.3l-18.5,0.1L17.8,44.9z"/>
						<polygon class="st1" points="102.9,41.6 85.7,72.1 68,41.8 53,41.9 79.3,87.2 79.5,115.4 92.5,115.3 92.3,89 92.3,87.1 
							118,41.5 						"/>
						<path class="st1" d="M169.2,85.6l-22.1-40.2l-37.9,69.9l14.8-0.1l23.2-42.8l22.2,40.3c1.6-2.8,3.2-5.8,4.7-8.8
							c1.9-3.4,3.7-6.8,5.5-10.2c1.8-3.4,3.6-6.8,5.3-10.1l6-11.6l23.9,42.6l14.8-0.1L190.7,45L169.2,85.6z"/>
						<path class="st1" d="M297.2,49.3c-6.2-6.1-12.9-8.8-21.5-8.8l-36,0.2l0.5,73.7l13.1-0.1l-0.1-12.6l22.9-0.1
							c8.7-0.1,15.3-2.9,21.4-9.1c6.1-6.3,8.8-12.9,8.8-21.6C306.1,62.1,303.4,55.5,297.2,49.3L297.2,49.3z M288.3,83.3
							c-3.1,3.3-7.6,5.2-12.1,5.3l-0.2,0l-22.9,0.1l-0.2-34.9l22.9-0.1c4.5-0.1,9.1,1.8,12.3,5l0.3-0.5l-0.3,0.5
							c3.3,3.2,5.2,7.8,5.1,12.3C293.2,75.5,291.4,80.1,288.3,83.3z"/>
						<polygon class="st1" points="363.4,113.6 376.5,113.6 376,39.8 362.9,39.9 363.1,70.2 330.8,70.4 330.6,40.1 317.4,40.2 
							317.9,113.9 331,113.9 330.8,83.6 363.2,83.4 						"/>
						<polygon class="st1" points="537.9,88.5 477,40.7 477.4,112.9 490.5,112.8 490.3,82.2 490.2,67.6 551.2,115.5 550.7,38.7 
							537.6,38.8 						"/>
						<polygon class="st1" points="609.5,38.3 592.2,68.8 574.6,38.6 559.6,38.7 585.8,83.9 586,112.2 599,112.1 598.8,85.7 
							598.8,83.8 624.5,38.2 						"/>
					</g>
				</g>
			</g>
		</g>
		<g>
			<g>
				<path class="st2" d="M610.7,104.5c0-5,2.5-7.5,7.5-7.5c5.1,0,7.6,2.5,7.6,7.4c0,4.9-2.5,7.3-7.5,7.3
					C613.4,111.8,610.8,109.4,610.7,104.5z M618.2,110.8c4.2,0,6.3-2.1,6.3-6.4c0-4.3-2.1-6.4-6.3-6.4c-4.2,0-6.2,2.2-6.2,6.5
					C612,108.7,614.1,110.8,618.2,110.8z M615.1,109.2l-0.1-9.4l4,0c1.8,0,2.7,0.7,2.7,2.2c0,1.2-0.9,2.1-2.6,2.7l3.3,4.4l-1.6,0
					l-3-4.2l0-0.8c1.8-0.3,2.7-1,2.7-2.1c0-0.9-0.5-1.3-1.5-1.3l-2.7,0l0.1,8.4L615.1,109.2z"/>
			</g>
		</g>
	</g>
	<g>
		<path class="st2" d="M674.2,67.5l0-7.8c0,0,22.9-5.3,32.3-11.5c0,0,2.7,53.7,2.7,57.8l-24.5,3.7l0.4-41.2L674.2,67.5z"/>
		
			<ellipse transform="matrix(1 -2.000956e-03 2.000956e-03 1 -5.443471e-02 1.3897)" class="st2" cx="694.5" cy="27.9" rx="12.6" ry="12.6"/>
		<path class="st2" d="M861.7,17.7c-22.9,0-41.4,20.2-41.3,45.1c0,24.9,18.6,45,41.5,44.9s41.4-20.2,41.3-45.1
			C903.1,37.8,884.5,17.7,861.7,17.7z M866.7,88.2c-7.6,0-23.5-9.3-23.5-29.1s14-22.3,14-22.3c12.5,0,24,15.9,24,31.2
			S869.6,88.2,866.7,88.2z"/>
		<path class="st2" d="M720.8,48.9l0,18.2l14.3-8.9l-0.8,51.7l0,0v0l0,0.8c-0.1,0.6-0.3,1.4-1.3,1.7l-1.1,0.4l-0.5,2.2
			c0,0,1.2-0.1,2.8-0.3l0,0c23.2-2.7,24.2-15.3,24.2-15.3l3.2-71.7C742.7,36.9,720.8,48.9,720.8,48.9z"/>
		<path class="st2" d="M773,48.9l0,18.2l14.3-8.9l-0.8,51.7l0,0v0l0,0.8c-0.1,0.6-0.3,1.4-1.3,1.7l-1.1,0.4l-0.5,2.2
			c0,0,1.2-0.1,2.8-0.3v0c23.2-2.7,24.2-15.3,24.2-15.3l3.2-71.7C794.8,36.9,773,48.9,773,48.9z"/>
	</g>
</g>
</svg>
