<?xml version="1.0" encoding="utf-8"?>
<!-- Generator: Adobe Illustrator 21.0.0, SVG Export Plug-In . SVG Version: 6.00 Build 0)  -->
<svg version="1.1" id="symphony" xmlns="http://www.w3.org/2000/svg" xmlns:xlink="http://www.w3.org/1999/xlink" x="0px" y="0px"
	 viewBox="0 0 932.8 153.5" style="enable-background:new 0 0 932.8 153.5;" xml:space="preserve">
<style type="text/css">
	.st0{fill:#DE0024;}
	.st1{fill:#FFFFFF;}
</style>
<path class="st0" d="M463.9,47.7c-8.1-7.8-16.8-11.4-27.9-11.4c-11.1,0.2-19.9,3.8-27.9,11.8c-7.8,8.1-11.4,16.8-11.4,28
	c0.2,11.1,3.9,19.8,11.8,27.8c8.1,7.8,16.9,11.4,28,11.4c11.1-0.1,19.8-3.9,27.8-11.8c7.8-8.1,11.4-16.9,11.4-28
	C475.5,64.4,471.8,55.7,463.9,47.7L463.9,47.7z M455,94.5c-4.9,4.9-11.5,7.8-18.4,7.9h-0.2c-7.1,0.1-13.9-2.6-18.9-7.7
	c-5.1-4.9-7.9-11.6-7.9-18.7c-0.1-7,2.6-13.8,7.6-18.7c4.9-5,11.7-7.9,18.8-7.9c7-0.1,13.7,2.7,18.7,7.6c5.1,4.9,8,11.6,7.9,18.7
	C462.8,82.7,460,89.5,455,94.5z"/>
<g>
	<path class="st1" d="M25.7,44.9c-2.6,2.6-4.4,5.4-5.6,8.5c-1.4,3.2-2,6.4-2.2,9.6v0.6v0.8c0,3.5,0.7,6.9,2,10.4
		c1.4,3.3,3.3,6.2,6.2,9l4,4.1c1.2,1.1,2.3,2.5,2.9,4c0.7,1.4,1.1,2.9,1.3,4.4l0.1,0.4v0.4v0.5V98c0,1.8-0.3,3.6-0.9,5.3
		c-0.7,1.8-1.8,3.5-3.2,4.9l-7.4,7.6l18.3-0.1c2-2.2,3.3-4.6,4.4-7.3c1.3-3.4,2-6.9,2-10.5v-0.7v-0.5c-0.2-3.3-0.9-6.4-2.3-9.6
		c-1.4-3.1-3.3-5.9-5.8-8.5l-4.3-4.3c-1.4-1.3-2.5-3.1-3.2-4.9c-0.7-1.7-0.9-3.4-0.9-5.2v-0.5v-0.4v-0.8l0.1-0.7
		c0.2-1.3,0.7-2.6,1.2-3.7c0.7-1.4,1.5-2.7,2.7-3.9l12-12.3L28.6,42L25.7,44.9z"/>
	<polygon class="st1" points="110.8,41.6 93.6,72.1 75.9,41.8 60.9,41.9 87.2,87.2 87.4,115.4 100.4,115.3 100.2,89 100.2,87.1 
		125.9,41.5 	"/>
	<path class="st1" d="M177.1,85.6L155,45.4l-37.9,69.9l14.8-0.1l23.2-42.8l22.2,40.3c1.6-2.8,3.2-5.8,4.7-8.8
		c1.9-3.4,3.7-6.8,5.5-10.2c1.8-3.4,3.6-6.8,5.3-10.1l6-11.6l23.9,42.6l14.8-0.1L198.6,45L177.1,85.6z"/>
	<path class="st1" d="M305.1,49.3c-6.2-6.1-12.9-8.8-21.5-8.8l-36,0.2l0.5,73.7l13.1-0.1l-0.1-12.6l22.9-0.1
		c8.7-0.1,15.3-2.9,21.4-9.1c6.1-6.3,8.8-12.9,8.8-21.6C314,62.1,311.3,55.5,305.1,49.3L305.1,49.3z M296.2,83.3
		c-3.1,3.3-7.6,5.2-12.1,5.3h-0.2L261,88.7l-0.2-34.9l22.9-0.1c4.5-0.1,9.1,1.8,12.3,5l0.3-0.5l-0.3,0.5c3.3,3.2,5.2,7.8,5.1,12.3
		C301.1,75.5,299.3,80.1,296.2,83.3z"/>
	<polygon class="st1" points="371.3,113.6 384.4,113.6 383.9,39.8 370.8,39.9 371,70.2 338.7,70.4 338.5,40.1 325.3,40.2 
		325.8,113.9 338.9,113.9 338.7,83.6 371.1,83.4 	"/>
	<polygon class="st1" points="545.8,88.5 484.9,40.7 485.3,112.9 498.4,112.8 498.2,82.2 498.1,67.6 559.1,115.5 558.6,38.7 
		545.5,38.8 	"/>
	<polygon class="st1" points="617.4,38.3 600.1,68.8 582.5,38.6 567.5,38.7 593.7,83.9 593.9,112.2 606.9,112.1 606.7,85.7 
		606.7,83.8 632.4,38.2 	"/>
</g>
<g>
	<g>
		<path class="st1" d="M618.6,104.5c0-5,2.5-7.5,7.5-7.5c5.1,0,7.6,2.5,7.6,7.4s-2.5,7.3-7.5,7.3
			C621.3,111.8,618.7,109.4,618.6,104.5z M626.1,110.8c4.2,0,6.3-2.1,6.3-6.4s-2.1-6.4-6.3-6.4s-6.2,2.2-6.2,6.5
			C619.9,108.7,622,110.8,626.1,110.8z M623,109.2l-0.1-9.4h4c1.8,0,2.7,0.7,2.7,2.2c0,1.2-0.9,2.1-2.6,2.7l3.3,4.4h-1.6l-3-4.2
			v-0.8c1.8-0.3,2.7-1,2.7-2.1c0-0.9-0.5-1.3-1.5-1.3h-2.7l0.1,8.4L623,109.2z"/>
	</g>
</g>
<g>
	<path class="st1" d="M682.1,67.5v-7.8c0,0,22.9-5.3,32.3-11.5c0,0,2.7,53.7,2.7,57.8l-24.5,3.7l0.4-41.2L682.1,67.5z"/>
	
		<ellipse transform="matrix(1 -2.000952e-03 2.000952e-03 1 -5.442047e-02 1.4055)" class="st1" cx="702.4" cy="27.9" rx="12.6" ry="12.6"/>
	<path class="st1" d="M869.6,17.7c-22.9,0-41.4,20.2-41.3,45.1c0,24.9,18.6,45,41.5,44.9s41.4-20.2,41.3-45.1
		C911,37.8,892.4,17.7,869.6,17.7z M874.6,88.2c-7.6,0-23.5-9.3-23.5-29.1s14-22.3,14-22.3c12.5,0,24,15.9,24,31.2
		S877.5,88.2,874.6,88.2z"/>
	<path class="st1" d="M728.7,48.9v18.2l14.3-8.9l-0.8,51.7l0,0l0,0v0.8c-0.1,0.6-0.3,1.4-1.3,1.7l-1.1,0.4l-0.5,2.2
		c0,0,1.2-0.1,2.8-0.3l0,0c23.2-2.7,24.2-15.3,24.2-15.3l3.2-71.7C750.6,36.9,728.7,48.9,728.7,48.9z"/>
	<path class="st1" d="M780.9,48.9v18.2l14.3-8.9l-0.8,51.7l0,0l0,0v0.8c-0.1,0.6-0.3,1.4-1.3,1.7l-1.1,0.4l-0.5,2.2
		c0,0,1.2-0.1,2.8-0.3l0,0c23.2-2.7,24.2-15.3,24.2-15.3l3.2-71.7C802.7,36.9,780.9,48.9,780.9,48.9z"/>
</g>
</svg>
