<?xml version="1.0" encoding="utf-8"?>
<!-- Generator: Adobe Illustrator 21.0.0, SVG Export Plug-In . SVG Version: 6.00 Build 0)  -->
<svg version="1.1" id="Layer_1" xmlns="http://www.w3.org/2000/svg" xmlns:xlink="http://www.w3.org/1999/xlink" x="0px" y="0px"
	 viewBox="0 0 500 342" style="enable-background:new 0 0 500 342;" xml:space="preserve">
<style type="text/css">
	.st0{fill:#2D2D2D;}
	.st1{enable-background:new    ;}
	.st2{fill:#414042;}
	.st3{fill:#666666;}
	.st4{fill:#B2B2B2;}
	.st5{fill:none;stroke:#414042;stroke-width:0.6894;stroke-miterlimit:10;}
</style>
<g>
	<g>
		<g>
			<path class="st0" d="M365.4,44.5l8.9-15.2h-10.2c-3.2,4.3-5.1,9.7-5.1,15.4c0,3,0.5,5.9,1.4,8.5L365.4,44.5L365.4,44.5z"/>
		</g>
		<g>
			<path class="st0" d="M391.4,61.1h-14.8l5.4,9.2c0.9,0.1,1.9,0.2,2.8,0.2c8,0,15.2-3.7,19.9-9.4h-10.2
				C394.5,61.1,391.4,61.1,391.4,61.1z"/>
		</g>
		<g>
			<path class="st0" d="M378.4,27.9h14.4l-5.2-8.8c-0.9-0.1-1.9-0.2-2.9-0.2c-7.8,0-14.8,3.5-19.6,9h9.9
				C375,27.9,378.4,27.9,378.4,27.9z"/>
		</g>
		<g>
			<path class="st0" d="M401.7,48.8l-6.4,11h10.5c3-4.2,4.8-9.4,4.8-15c0-3-0.5-6-1.5-8.7l-7.3,12.8L401.7,48.8z"/>
		</g>
		<g>
			<path class="st0" d="M394.5,27.9l9,15.4l5-8.8c-3.4-7.8-10.5-13.5-19.1-15.1L394.5,27.9L394.5,27.9z"/>
		</g>
		<g>
			<path class="st0" d="M373,57.6L366.3,46l-5.2,8.9c3.4,7.8,10.5,13.7,19.2,15.2L373,57.6L373,57.6z"/>
		</g>
	</g>
	<g>
		<g class="st1">
			<path class="st0" d="M333.5,165.3l-2.1,6.4h-1.9l6.5-18.9c0.1-0.3,0.4-0.5,0.7-0.5h2.1c0.3,0,0.6,0.2,0.7,0.5l6.5,18.9h-1.9
				l-2.1-6.4H333.5z M338.6,155.3c-0.2-0.5-0.4-1.1-0.5-1.6h-0.8c-0.2,0.5-0.3,1-0.5,1.6l-2.8,8.4h7.4L338.6,155.3z"/>
			<path class="st0" d="M360.7,164.9c0,5.2-1.5,7.1-5.1,7.1c-1.8,0-3.5-0.5-5.3-1.4c0.1,1,0.1,1.7,0.1,2.7v4.1h-1.8V158h1.5l0.2,2.3
				c1.6-1.6,3.7-2.6,5.6-2.6C359.4,157.7,360.7,160,360.7,164.9z M358.9,164.9c0-4.2-1-5.6-3.5-5.6c-1.6,0-3,0.7-5,2.4v7.8
				c1.9,0.6,3.2,1,4.8,1C357.9,170.4,358.9,169.2,358.9,164.9z"/>
			<path class="st0" d="M375.4,170.1l0.2,1.2c-1.2,0.5-3.6,0.7-5.1,0.7c-4.6,0-6.3-2-6.3-7.2c0-5.3,1.8-7.1,6.1-7.1
				c3.9,0,5.7,1.4,5.7,4.2c0,2.4-0.9,3.8-3.1,3.8H366c0.2,3.7,1.6,4.7,4.7,4.7C372.3,170.5,374.1,170.3,375.4,170.1z M366,164.3h6.4
				c1.4,0,1.8-1,1.7-2.4c0-1.9-1.2-2.7-3.8-2.7C367.2,159.3,366.1,160.5,366,164.3z"/>
			<path class="st0" d="M387.8,159.4h-0.7c-1.7,0-3.2,0.8-5.5,2.1v10.2h-1.8v-13.6h1.4l0.2,2.3c2.1-1.7,4.1-2.6,6-2.6h0.6
				L387.8,159.4z"/>
			<path class="st0" d="M393.6,168.3c0,1.4,0.6,2,2,2h2.2l0.2,1.4c-0.8,0.2-2.3,0.3-2.8,0.3c-2.3,0-3.4-1.2-3.4-3.4v-9h-2.5v-1.3
				l2.5-0.1v-4.1h1.8v4.1h4.6v1.4h-4.6L393.6,168.3L393.6,168.3z"/>
			<path class="st0" d="M412.5,171.7h-1.4l-0.1-2.1c-2.1,1.7-4.1,2.5-6,2.5c-2.4,0-3.7-1.3-3.7-3.7v-10.2h1.8v9.8
				c0,1.9,0.7,2.6,2.5,2.6c1.6,0,3.1-0.8,5.2-2.2v-10.2h1.8L412.5,171.7L412.5,171.7z"/>
			<path class="st0" d="M425.2,159.4h-0.7c-1.7,0-3.2,0.8-5.5,2.1v10.2h-1.8v-13.6h1.4l0.2,2.3c2.1-1.7,4.1-2.6,6-2.6h0.6
				L425.2,159.4z"/>
			<path class="st0" d="M438.5,170.1l0.2,1.2c-1.2,0.5-3.6,0.7-5.1,0.7c-4.6,0-6.3-2-6.3-7.2c0-5.3,1.8-7.1,6.1-7.1
				c3.9,0,5.7,1.4,5.7,4.2c0,2.4-0.9,3.8-3.1,3.8h-6.8c0.2,3.7,1.6,4.7,4.7,4.7C435.4,170.5,437.2,170.3,438.5,170.1z M429.1,164.3
				h6.4c1.4,0,1.8-1,1.7-2.4c0-1.9-1.2-2.7-3.8-2.7C430.2,159.3,429.1,160.5,429.1,164.3z"/>
		</g>
	</g>
	<g class="st1">
		<path class="st0" d="M331.5,86.9c-4.4,0-6.1,1.6-6.1,5.9v5.6h10.5v3.2h-10.5v28h-4.1v-28h-5.6v-2.9l5.6-0.3v-6c0-5.7,2.3-9,8.8-9
			c1.9,0,6,0.1,8.4,0.4l-0.3,3L331.5,86.9L331.5,86.9z"/>
		<path class="st0" d="M336.3,133.6l25.3-48.5h3.5l-25.3,48.5H336.3z"/>
		<path class="st0" d="M397.9,93.7c0,5.7-2.4,10-8.3,16.7L376,125.7c2.4-0.1,5-0.1,7.4-0.1h16.2v4h-28.7V127c0-0.8,0.1-1.4,0.6-1.9
			l13.8-15.7c5.7-6.4,8.4-11,8.2-15.7c-0.2-5-3.7-5.6-9.3-5.6c-4.1,0-7.2,0.2-12.7,1.2l-0.4-3.3c6.1-1.4,9.4-1.7,13.3-1.7
			C392.8,84.4,397.9,85.8,397.9,93.7z"/>
		<path class="st0" d="M411,122.7c1.2,0,1.6,0.5,1.6,1.6v3.7c0,1.2-0.5,1.6-1.6,1.6h-1.4c-1.1,0-1.5-0.5-1.5-1.6v-3.7
			c0-1.2,0.5-1.6,1.5-1.6H411z"/>
		<path class="st0" d="M448.2,93.7c0,5.7-2.4,10-8.3,16.7l-13.5,15.3c2.4-0.1,5-0.1,7.4-0.1H450v4h-28.7V127c0-0.8,0.1-1.4,0.6-1.9
			l13.8-15.7c5.7-6.4,8.4-11,8.2-15.7c-0.2-5-3.7-5.6-9.3-5.6c-4.1,0-7.2,0.2-12.7,1.2l-0.4-3.3c6.1-1.4,9.4-1.7,13.3-1.7
			C443.2,84.4,448.2,85.8,448.2,93.7z"/>
	</g>
	<g>
		<rect x="316.1" y="141.5" class="st2" width="137.4" height="0.7"/>
	</g>
</g>
<g>
	<rect x="257.5" y="55.4" class="st2" width="0.7" height="94.5"/>
</g>
<g>
	<rect x="257.5" y="214.8" class="st2" width="0.7" height="94.6"/>
</g>
<g class="st1">
	<g>
		<path class="st0" d="M50.8,153.8c-1.3,0-2,0.7-2,2.1v5h8.4v1.5h-8.4v9.3h-1.9v-16.2c0-2,1.4-3.3,3.4-3.3c2.7,0,5.5,0,8.1,0.2
			l-0.1,1.4H50.8z"/>
	</g>
	<g>
		<path class="st0" d="M69.3,159.4h-0.7c-1.7,0-3.2,0.8-5.5,2.1v10.2h-1.8v-13.6h1.4l0.2,2.3c2.1-1.7,4.1-2.6,6-2.6h0.6L69.3,159.4z
			"/>
	</g>
	<g>
		<path class="st0" d="M83.8,164.9c0,5.2-1.7,7.1-6.2,7.1s-6.3-1.9-6.3-7.1s1.7-7.2,6.3-7.2S83.8,159.6,83.8,164.9z M73.1,164.9
			c0,4.3,1.1,5.6,4.4,5.6s4.4-1.3,4.4-5.6s-1.1-5.6-4.4-5.6S73.1,160.6,73.1,164.9z"/>
	</g>
	<g>
		<path class="st0" d="M99.4,161.4v10.2h-1.8v-9.8c0-1.9-0.7-2.7-2.4-2.7c-1.8,0-3.3,0.8-5.7,2.4v10.1h-1.8V158h1.5l0.1,2.3
			c2.2-1.7,4.2-2.6,6.3-2.6C98.2,157.7,99.4,159,99.4,161.4z"/>
	</g>
	<g>
		<path class="st0" d="M106.8,168.3c0,1.4,0.6,2,2,2h2.2l0.2,1.4c-0.8,0.2-2.3,0.3-2.8,0.3c-2.3,0-3.4-1.2-3.4-3.4v-9h-2.5v-1.3
			l2.5-0.1v-4.1h1.8v4.1h4.6v1.4h-4.6C106.8,159.6,106.8,168.3,106.8,168.3z"/>
	</g>
	<g>
		<path class="st0" d="M132.9,152.5l-0.2,1.4c-1.7-0.2-2.7-0.3-5-0.3c-4.1,0-5.5,2.1-5.5,8.4s1.4,8.4,5.5,8.4c2.4,0,3.8-0.1,5.3-0.3
			l0.2,1.4c-1.6,0.4-3.1,0.6-5.6,0.6c-5.5,0-7.4-2.6-7.4-10s1.9-10,7.4-10C130.1,151.9,131.4,152.1,132.9,152.5z"/>
	</g>
	<g>
		<path class="st0" d="M147.5,161.9v9.8h-1.4l-0.2-2.4c-1.1,1.1-3.4,2.6-6,2.6c-2.4,0-3.9-1.3-3.9-3.7v-1.6c0-2.1,1.3-3.3,3.6-3.3
			h6.1v-1.4c0-1.7-0.6-2.6-2.9-2.6c-1.6,0-4,0.2-6,0.4l-0.2-1.3c1.9-0.3,4.2-0.6,6.6-0.6C145.9,157.7,147.5,158.8,147.5,161.9z
			 M145.7,168.1v-3.3l-5.8,0.1c-1.4,0.1-2.1,0.8-2.1,2.1v1.2c0,1.5,0.8,2.3,2.4,2.3C141.8,170.4,144,169.5,145.7,168.1z"/>
	</g>
	<g>
		<path class="st0" d="M172.1,161.4v10.2h-1.8v-9.8c0-1.9-0.8-2.7-2.4-2.7c-1.6,0-2.8,0.8-5,2.4v10h-1.7v-9.8c0-1.9-0.8-2.7-2.4-2.7
			c-1.5,0-2.8,0.7-5,2.4v10.1H152v-13.6h1.5l0.1,2.3c1.9-1.7,3.8-2.6,5.7-2.6s3.1,0.9,3.5,2.6c2-1.7,3.8-2.6,5.7-2.6
			C170.9,157.7,172.1,159,172.1,161.4z"/>
	</g>
	<g>
		<path class="st0" d="M187.4,170.1l0.2,1.2c-1.2,0.5-3.6,0.7-5.1,0.7c-4.6,0-6.3-2-6.3-7.2c0-5.3,1.8-7.1,6.1-7.1
			c3.9,0,5.7,1.4,5.7,4.2c0,2.4-0.9,3.8-3.1,3.8h-6.8c0.2,3.7,1.6,4.7,4.7,4.7C184.3,170.5,186.1,170.3,187.4,170.1z M177.9,164.3
			h6.4c1.4,0,1.8-1,1.7-2.4c0-1.9-1.2-2.7-3.8-2.7C179.1,159.3,178,160.5,177.9,164.3z"/>
	</g>
	<g>
		<path class="st0" d="M199.7,159.4H199c-1.7,0-3.2,0.8-5.5,2.1v10.2h-1.8v-13.6h1.4l0.2,2.3c2.1-1.7,4.1-2.6,6-2.6h0.6L199.7,159.4
			z"/>
	</g>
	<g>
		<path class="st0" d="M213.6,161.9v9.8h-1.4l-0.2-2.4c-1.1,1.1-3.4,2.6-6,2.6c-2.4,0-3.9-1.3-3.9-3.7v-1.6c0-2.1,1.3-3.3,3.6-3.3
			h6.1v-1.4c0-1.7-0.6-2.6-2.9-2.6c-1.6,0-4,0.2-6,0.4l-0.2-1.3c1.9-0.3,4.2-0.6,6.6-0.6C212,157.7,213.6,158.8,213.6,161.9z
			 M211.8,168.1v-3.3l-5.8,0.1c-1.4,0.1-2.1,0.8-2.1,2.1v1.2c0,1.5,0.8,2.3,2.4,2.3C207.9,170.4,210.2,169.5,211.8,168.1z"/>
	</g>
</g>
<g class="st1">
	<path class="st0" d="M96.3,96.2c0,6-1.8,9.7-6.3,10.2v0.3c5.5,0.6,7.3,4.7,7.3,11.9c0,8.2-2.8,11.5-14.8,11.7
		c-11.8,0.1-14.8-3.4-14.8-11.7c0-7.2,1.7-11.3,7.3-11.9v-0.3c-4.5-0.5-6.3-4.2-6.3-10.2c0-8.1,2.8-11.7,13.9-11.7
		C93.6,84.5,96.3,88.2,96.3,96.2z M71.7,117.7c0,6.5,2.1,8.8,10.8,8.8c8.8,0,10.7-2.3,10.7-8.8c0-8.1-2.1-9.5-10.6-9.5
		C73.7,108.3,71.7,109.8,71.7,117.7z M72.5,96.5c0,6.9,2,8.2,10.1,8.2c8.2,0,9.8-1.4,9.8-8.2c0-6.4-1.7-8.5-9.9-8.5
		C74.4,88,72.5,90.2,72.5,96.5z"/>
	<path class="st0" d="M149.3,85.1c1.2,0,1.9,0.7,1.9,1.9l1.9,42.6h-4.2l-1.7-40.9h-1.6l-11.5,34.9c-0.3,1-0.9,1.4-1.9,1.4h-4.3
		c-1,0-1.6-0.5-1.9-1.4l-11.6-34.9H113l-1.7,40.9h-4.2l1.8-42.6c0-1.2,0.6-1.9,1.9-1.9h5.1c1,0,1.5,0.5,1.9,1.5l9.7,29
		c0.6,2.1,1.2,4,1.8,6.1h1.4c0.6-2.1,1.2-4.1,1.9-6.1l9.7-28.9c0.3-1,0.9-1.5,1.9-1.5h5.1V85.1z"/>
	<path class="st0" d="M192.7,98.2c0,10.7-3.5,13.6-13.3,13.6c-4.4,0-8.4-0.3-11.1-0.5v18.3h-4.2V85.1c4.7-0.5,7.9-0.5,14.9-0.5
		C189.2,84.6,192.7,87.6,192.7,98.2z M178.9,108.1c7.1-0.1,9.5-2.1,9.5-9.9c0-7.9-2.4-10-9.5-10c-4.3,0-8.1,0-10.6,0.1v19.8
		C168.3,108.1,178.9,108.1,178.9,108.1z"/>
</g>
<g>
	<rect x="52" y="141.5" class="st2" width="156.5" height="0.7"/>
</g>
<g>
	<g>
		<path class="st0" d="M405.3,242.1c-7.8,0-14.2,6.4-14.2,14.2c0,7.9,6.4,14.2,14.2,14.2c7.8,0,14.2-6.4,14.2-14.2
			S413.1,242.1,405.3,242.1L405.3,242.1z M405.3,266c-5.4,0-9.7-4.4-9.7-9.7c0-5.4,4.4-9.7,9.7-9.7c5.4,0,9.7,4.4,9.7,9.7
			C415,261.7,410.7,266,405.3,266L405.3,266z"/>
	</g>
	<g>
		<path class="st0" d="M383.9,256.9c0-0.2,0-0.4,0-0.6c0-7.4,3.8-14,9.6-17.8h-11l6.7-17.6h-17.7l-10.1,26.7l18.1,0.1l-9.3,24.7
			L383.9,256.9z"/>
	</g>
	<g>
		<path class="st0" d="M404.2,249.6l-4.5,11.6h2.5l1-2.6h4.7l1,2.6h2.6l-4.7-11.6H404.2z M403.8,256.7l1.6-4.3l1.6,4.3H403.8z"/>
	</g>
</g>
<g>
	<g>
		<path class="st3" d="M148.2,20.6h-8l-3.8-3.8c-0.4-0.4-1-0.7-1.6-0.7h-9c-0.6,0-1.2,0.2-1.6,0.7l-3.8,3.8h-8c-2.5,0-4.5,2-4.5,4.5
			v22.4c0,2.5,2,4.5,4.5,4.5h35.8c2.5,0,4.5-2,4.5-4.5V25.1C152.7,22.6,150.7,20.6,148.2,20.6z"/>
	</g>
	<g>
		<circle class="st4" cx="130.3" cy="36.3" r="9"/>
	</g>
	<g>
		<path class="st0" d="M148.2,52h-35.8c-2.5,0-4.5-2-4.5-4.5V25.1c0-2.5,2-4.5,4.5-4.5h8l3.8-3.8c0.4-0.4,1-0.7,1.6-0.7h9
			c0.6,0,1.2,0.2,1.6,0.7l3.8,3.8h8c2.5,0,4.5,2,4.5,4.5v22.4C152.7,50,150.7,52,148.2,52z M112.4,25.1v22.4h35.8V25.1h-9
			c-0.6,0-1.2-0.2-1.6-0.7l-3.8-3.8h-7.1l-3.8,3.8c-0.4,0.4-1,0.7-1.6,0.7H112.4z"/>
	</g>
	<g>
		<path class="st0" d="M130.3,45.2c-4.9,0-9-4-9-9s4-9,9-9c5,0,9,4,9,9S135.2,45.2,130.3,45.2z M130.3,31.8c-2.5,0-4.5,2-4.5,4.5
			s2,4.5,4.5,4.5c2.5,0,4.5-2,4.5-4.5S132.8,31.8,130.3,31.8z"/>
	</g>
	<g>
		<path class="st0" d="M128,69.9L128,69.9c-16.7-0.4-33.6-5.9-33.6-15.7c0.2-3.6,2.3-6.8,5.5-8.5c1-0.7,2.4-0.4,3.1,0.6
			s0.4,2.4-0.6,3.1l0,0c-1.8,1-3.1,2.7-3.5,4.8c0,4.9,12,10.8,29.2,11.2c1.2,0,2.2,1,2.2,2.3C130.3,68.9,129.3,69.9,128,69.9z"/>
	</g>
	<g>
		<path class="st0" d="M137,69.6c-1.2,0.1-2.3-0.9-2.3-2.1s0.9-2.3,2.1-2.3c15.5-1.3,24.8-6.5,24.8-10.9c-0.3-2.1-1.6-3.8-3.5-4.8
			c-1-0.7-1.3-2.1-0.6-3.1s2.1-1.3,3.1-0.6c3.2,1.7,5.3,4.9,5.5,8.5c0,9-14.5,14.2-28.9,15.4L137,69.6z"/>
	</g>
	<g>
		<path class="st0" d="M119.1,78.8c-1.2,0-2.2-1-2.2-2.2c0-0.6,0.2-1.2,0.7-1.6l7.4-7.4l-7.4-7.4c-0.9-0.9-0.9-2.3,0-3.2
			s2.3-0.9,3.2,0l9,9c0.9,0.9,0.9,2.3,0,3.2l0,0l-9,9C120.2,78.6,119.7,78.8,119.1,78.8z"/>
	</g>
</g>
<line class="st5" x1="55.1" y1="263.2" x2="205.3" y2="263.2"/>
<g>
	<g>
		<path class="st0" d="M96.1,231.8l-0.2,1.5c-1.8-0.1-3.9-0.2-5.9-0.2c-3.4,0-4.8,0.1-4.8,3.8c0,2.6,0.9,3.5,2.9,3.9l4.4,0.9
			c3.2,0.6,4.3,2.4,4.3,5.8c0,4.9-2.2,5.7-6.9,5.7c-1.5,0-3.7,0-6.5-0.5l0.1-1.5c3.2,0.2,4.5,0.2,6.4,0.2c3.6,0,4.8-0.6,4.8-3.9
			c0-2.8-0.9-3.6-2.9-4l-4.5-1c-3-0.6-4.1-2.4-4.1-5.7c0-5,2.1-5.6,6.7-5.5C91.9,231.4,94.1,231.5,96.1,231.8z"/>
		<path class="st0" d="M112.8,251.2l0.2,1.3c-1.3,0.5-3.9,0.7-5.6,0.7c-5,0-6.9-2.1-6.9-7.9c0-5.8,1.9-7.8,6.7-7.8
			c4.3,0,6.2,1.6,6.2,4.6c0,2.7-1,4.1-3.4,4.1h-7.4c0.2,4.1,1.7,5.2,5.1,5.2C109.4,251.6,111.4,251.4,112.8,251.2z M102.5,244.9h7
			c1.5,0,1.9-1.1,1.9-2.6c0-2.1-1.3-3-4.1-3C103.8,239.3,102.6,240.7,102.5,244.9z"/>
		<path class="st0" d="M130.3,241.7v11.2h-1.9v-10.7c0-2.1-0.8-2.9-2.6-2.9c-1.9,0-3.7,0.9-6.2,2.6l0,11h-2V238h1.6l0.1,2.5
			c2.4-1.8,4.6-2.9,6.9-2.9C128.9,237.6,130.3,239,130.3,241.7z"/>
		<path class="st0" d="M146.2,238.1l-0.2,1.4c-1.8-0.1-3.8-0.2-5.7-0.2c-2.9,0-4.1,0-4.1,2.4c0,1.8,0.8,2.2,2.3,2.5l4.6,0.9
			c2.3,0.5,3.4,1.5,3.4,4c0,3.7-2.1,4.2-6.2,4.2c-1.2,0-3.3,0-5.7-0.4l0.2-1.4c1.6,0.2,3.3,0.2,5.2,0.2c3.5,0,4.6-0.4,4.6-2.5
			c0-1.8-1-2.2-2.4-2.4l-4.5-0.9c-2.3-0.5-3.3-1.6-3.3-4.1c0-3.6,1.8-4.1,5.7-4.1C142,237.6,144.4,237.8,146.2,238.1z"/>
		<path class="st0" d="M163.8,245.4c0,5.7-1.8,7.8-6.8,7.8c-5,0-6.8-2.1-6.8-7.8c0-5.7,1.8-7.8,6.8-7.8
			C162,237.6,163.8,239.7,163.8,245.4z M152.2,245.4c0,4.7,1.2,6.1,4.8,6.1c3.6,0,4.8-1.4,4.8-6.1c0-4.7-1.2-6.1-4.8-6.1
			C153.4,239.3,152.2,240.7,152.2,245.4z"/>
		<path class="st0" d="M176.9,239.5h-0.7c-1.8,0-3.5,0.8-6,2.3v11.1h-2V238h1.5l0.2,2.5c2.3-1.8,4.5-2.9,6.6-2.9h0.6L176.9,239.5z"
			/>
	</g>
</g>
<g>
	<g>
		<path class="st0" d="M286.9,277.2l-0.2,1.5c-1.8-0.1-3.9-0.2-5.9-0.2c-3.4,0-4.8,0.1-4.8,3.8c0,2.6,0.9,3.5,2.9,3.9l4.4,0.9
			c3.2,0.6,4.3,2.4,4.3,5.8c0,4.9-2.2,5.7-6.9,5.7c-1.5,0-3.7,0-6.5-0.5l0.1-1.5c3.2,0.2,4.5,0.2,6.4,0.2c3.6,0,4.8-0.6,4.8-3.9
			c0-2.8-0.9-3.6-2.9-4l-4.5-1c-3-0.6-4.1-2.4-4.1-5.7c0-5,2.1-5.6,6.7-5.5C282.7,276.7,284.8,276.8,286.9,277.2z"/>
		<path class="st0" d="M303.6,296.5l0.2,1.3c-1.3,0.5-3.9,0.7-5.6,0.7c-5,0-6.9-2.1-6.9-7.9c0-5.8,1.9-7.8,6.7-7.8
			c4.3,0,6.2,1.6,6.2,4.6c0,2.7-1,4.1-3.4,4.1h-7.4c0.2,4.1,1.7,5.2,5.1,5.2C300.2,296.9,302.2,296.7,303.6,296.5z M293.3,290.2h7
			c1.5,0,1.9-1.1,1.9-2.6c0-2.1-1.3-3-4.1-3C294.6,284.6,293.4,286,293.3,290.2z"/>
		<path class="st0" d="M310.4,294.5c0,1.4,0.8,2.1,2.2,2.1h1.6l0.2,1.5c-0.5,0.2-1.8,0.3-2.5,0.3c-2.1,0-3.4-1.3-3.4-3.6v-18.2h1.9
			V294.5z"/>
		<path class="st0" d="M323,277.8c-2.1,0-2.9,0.8-2.9,2.8v2.7h5v1.5h-5v13.3h-2v-13.3h-2.7v-1.4l2.7-0.2v-2.9c0-2.7,1.1-4.3,4.2-4.3
			c0.9,0,2.9,0.1,4,0.2l-0.1,1.4H323z"/>
		<path class="st0" d="M330.1,277.1c0.4,0,0.6,0.2,0.6,0.6v1.8c0,0.4-0.2,0.6-0.6,0.6h-0.9c-0.5,0-0.6-0.2-0.6-0.6v-1.8
			c0-0.4,0.2-0.6,0.6-0.6H330.1z M328.7,298.2v-14.9h1.9v14.9H328.7z"/>
		<path class="st0" d="M347.4,296.5l0.2,1.3c-1.3,0.5-3.9,0.7-5.6,0.7c-5,0-6.9-2.1-6.9-7.9c0-5.8,1.9-7.8,6.7-7.8
			c4.3,0,6.2,1.6,6.2,4.6c0,2.7-1,4.1-3.4,4.1h-7.4c0.2,4.1,1.7,5.2,5.1,5.2C344,296.9,346,296.7,347.4,296.5z M337.1,290.2h7
			c1.5,0,1.9-1.1,1.9-2.6c0-2.1-1.3-3-4.1-3C338.4,284.6,337.2,286,337.1,290.2z"/>
		<path class="st0" d="M371.2,277.2l-0.2,1.5c-1.8-0.1-3.9-0.2-5.9-0.2c-3.4,0-4.8,0.1-4.8,3.8c0,2.6,0.9,3.5,2.9,3.9l4.4,0.9
			c3.2,0.6,4.3,2.4,4.3,5.8c0,4.9-2.2,5.7-6.9,5.7c-1.5,0-3.7,0-6.5-0.5l0.1-1.5c3.2,0.2,4.5,0.2,6.4,0.2c3.6,0,4.8-0.6,4.8-3.9
			c0-2.8-0.9-3.6-2.9-4l-4.5-1c-3-0.6-4.1-2.4-4.1-5.7c0-5,2.1-5.6,6.7-5.5C367.1,276.7,369.2,276.8,371.2,277.2z"/>
		<path class="st0" d="M389.3,290.8c0,5.7-1.8,7.8-6.8,7.8c-5,0-6.8-2.1-6.8-7.8c0-5.7,1.8-7.8,6.8-7.8
			C387.5,282.9,389.3,285,389.3,290.8z M377.7,290.8c0,4.7,1.2,6.1,4.8,6.1s4.8-1.4,4.8-6.1c0-4.7-1.2-6.1-4.8-6.1
			S377.7,286.1,377.7,290.8z"/>
		<path class="st0" d="M399.5,277.8c-2.1,0-2.9,0.8-2.9,2.8v2.7h5v1.5h-5v13.3h-2v-13.3H392v-1.4l2.7-0.2v-2.9
			c0-2.7,1.1-4.3,4.2-4.3c0.9,0,2.9,0.1,4,0.2l-0.1,1.4H399.5z"/>
		<path class="st0" d="M407.9,294.5c0,1.5,0.7,2.1,2.2,2.1h2.4l0.2,1.5c-0.9,0.2-2.5,0.3-3.1,0.3c-2.5,0-3.7-1.3-3.7-3.7v-9.9h-2.7
			v-1.4l2.7-0.2v-4.5h1.9v4.5h5v1.5h-5V294.5z"/>
		<path class="st0" d="M425.5,294.3c0,1.5,0.8,2.2,2.2,2.2h7.9l0.1,1.5c-2.7,0.2-5.5,0.2-8.3,0.2c-2.7,0-3.9-1.6-3.9-3.7V277h2
			V294.3z"/>
		<path class="st0" d="M440.5,277.1c0.4,0,0.6,0.2,0.6,0.6v1.8c0,0.4-0.2,0.6-0.6,0.6h-0.9c-0.5,0-0.6-0.2-0.6-0.6v-1.8
			c0-0.4,0.2-0.6,0.6-0.6H440.5z M439.1,298.2v-14.9h1.9v14.9H439.1z"/>
		<path class="st0" d="M457.3,284.6c0.6,0.8,0.9,1.8,0.9,3.1c0,3.2-1.6,4.6-6.2,4.6c-1.4,0-2.5-0.1-3.4-0.4
			c-0.9,1.1-0.9,2.7,1.1,3.1l5.7,1c2.8,0.4,3.6,1.7,3.6,4.1c0,3.4-1.8,4.5-6.9,4.5c-5.2,0-7-1.1-7-4.4c0-2,0.6-3,2.5-3.9
			c-1.8-1-1.5-3.6-0.1-4.7c-1.3-0.7-1.8-2-1.8-3.8c0-3.3,1.6-4.7,6.2-4.7c1.4,0,2.5,0.1,3.3,0.4h4.6l-0.1,1.1L457.3,284.6z
			 M454.5,297.4l-5.6-0.9l-0.1,0.1c-1.4,0.9-1.8,1.7-1.8,3.3c0,2.3,1.2,2.9,5.1,2.9c3.8,0,5-0.6,5-2.9
			C457.1,298.3,456.7,297.7,454.5,297.4z M456.3,287.7c0-2.2-1.1-3.2-4.4-3.2c-3.3,0-4.4,1-4.4,3.2c0,2.2,1.2,3.1,4.4,3.1
			S456.3,289.8,456.3,287.7z"/>
		<path class="st0" d="M475.9,287v11.2h-2v-10.7c0-2.1-0.8-2.9-2.6-2.9c-1.9,0-3.6,0.9-6.2,2.6v11h-1.9v-21.5h1.9l0.1,6.2
			c0,1.1-0.1,2.1-0.2,2.9c2.4-1.8,4.6-2.9,6.8-2.9C474.5,282.9,475.9,284.3,475.9,287z"/>
		<path class="st0" d="M483.9,294.5c0,1.5,0.7,2.1,2.2,2.1h2.4l0.2,1.5c-0.9,0.2-2.5,0.3-3.1,0.3c-2.5,0-3.7-1.3-3.7-3.7v-9.9h-2.7
			v-1.4l2.7-0.2v-4.5h1.9v4.5h5v1.5h-5V294.5z"/>
	</g>
</g>
<g>
	<path class="st0" d="M53.8,287.3c0,9-2.3,12.1-9,12.1s-9-3-9-12.1c0-9,2.3-12.1,9-12.1S53.8,278.3,53.8,287.3z M38.2,287.3
		c0,7.6,1.7,10.1,6.7,10.1c5,0,6.7-2.5,6.7-10.1c0-7.6-1.7-10.1-6.7-10.1C39.8,277.2,38.2,279.7,38.2,287.3z"/>
	<path class="st0" d="M80.8,275.6c0.6,0,1,0.4,1,1l1,22.3h-2.2l-0.9-21.5H79l-6,18.3c-0.2,0.5-0.5,0.7-1,0.7h-2.2
		c-0.5,0-0.8-0.2-1-0.7l-6.1-18.3h-0.7L61,299h-2.2l0.9-22.3c0-0.6,0.3-1,1-1h2.7c0.5,0,0.8,0.3,1,0.8l5.1,15.2
		c0.3,1.1,0.6,2.1,0.9,3.2h0.7c0.3-1.1,0.6-2.1,1-3.2l5.1-15.2c0.1-0.5,0.5-0.8,1-0.8H80.8z"/>
	<path class="st0" d="M106,298c0,0.6-0.3,0.9-0.9,0.9h-2.4c-0.5,0-0.8-0.2-1.1-0.7l-8.9-17.7c-0.4-0.8-1-1.9-1.3-2.8h-0.6
		c0.1,0.9,0.1,1.9,0.1,2.8V299h-2.2v-22.4c0-0.6,0.3-0.9,0.9-0.9h2.3c0.5,0,0.8,0.2,1.1,0.7l8.7,17.3l1.6,3.1h0.7
		c-0.1-1.1-0.1-2.2-0.1-3.3v-17.8h2.2V298z"/>
	<path class="st0" d="M112.3,299v-23.3h2.2V299H112.3z"/>
	<path class="st0" d="M136.7,298.3c-0.1,0.4-0.5,0.6-0.9,0.6h-2.5c-0.4,0-0.8-0.3-0.9-0.6l-7.4-22.7h2.3l6,19
		c0.3,0.8,0.5,1.7,0.7,2.5h0.9c0.2-0.8,0.5-1.7,0.7-2.5l6-19h2.3L136.7,298.3z"/>
	<path class="st0" d="M148,299v-23.3h2.2V299H148z"/>
	<path class="st0" d="M169.4,275.8l-0.2,1.6c-2-0.1-4.3-0.2-6.5-0.2c-3.7,0-5.2,0.1-5.2,4.2c0,2.9,0.9,3.9,3.2,4.3l4.9,1
		c3.5,0.7,4.7,2.6,4.7,6.4c0,5.4-2.4,6.3-7.6,6.3c-1.7,0-4.1,0-7.1-0.5l0.1-1.7c3.5,0.2,4.9,0.2,7,0.2c3.9,0,5.2-0.6,5.2-4.3
		c0-3-0.9-3.9-3.2-4.4l-5-1c-3.3-0.7-4.6-2.7-4.6-6.3c0-5.5,2.3-6.1,7.4-6C164.8,275.3,167.2,275.4,169.4,275.8z"/>
	<path class="st0" d="M175.3,299v-23.3h2.2V299H175.3z"/>
	<path class="st0" d="M200.9,287.3c0,9-2.3,12.1-9,12.1s-9-3-9-12.1c0-9,2.3-12.1,9-12.1S200.9,278.3,200.9,287.3z M185.2,287.3
		c0,7.6,1.7,10.1,6.7,10.1c5,0,6.7-2.5,6.7-10.1c0-7.6-1.7-10.1-6.7-10.1C186.9,277.2,185.2,279.7,185.2,287.3z"/>
	<path class="st0" d="M223.7,298c0,0.6-0.3,0.9-0.9,0.9h-2.4c-0.5,0-0.8-0.2-1.1-0.7l-8.9-17.7c-0.4-0.8-1-1.9-1.3-2.8h-0.6
		c0.1,0.9,0.1,1.9,0.1,2.8V299h-2.2v-22.4c0-0.6,0.3-0.9,0.9-0.9h2.3c0.5,0,0.8,0.2,1.1,0.7l8.7,17.3l1.6,3.1h0.7
		c-0.1-1.1-0.1-2.2-0.1-3.3v-17.8h2.2V298z"/>
</g>
</svg>
