<?xml version="1.0" encoding="utf-8"?>
<!-- Generator: Adobe Illustrator 21.0.0, SVG Export Plug-In . SVG Version: 6.00 Build 0)  -->
<svg version="1.1" id="Layer_1" xmlns="http://www.w3.org/2000/svg" xmlns:xlink="http://www.w3.org/1999/xlink" x="0px" y="0px"
	 viewBox="0 0 486.9 622.6" style="enable-background:new 0 0 486.9 622.6;" xml:space="preserve">
<style type="text/css">
	.st0{fill:none;stroke:#000000;stroke-miterlimit:10;}
	.st1{fill:none;stroke:#000000;stroke-width:0.2721;stroke-miterlimit:10;}
	.st2{fill:none;stroke:#000000;stroke-width:0.3334;stroke-miterlimit:10;}
	.st3{fill:#FFFFFF;stroke:#000000;stroke-miterlimit:10;}
	.st4{fill:none;stroke:#000000;stroke-width:0.25;stroke-miterlimit:10;}
	.st5{fill:none;stroke:#000000;stroke-width:0.75;stroke-miterlimit:10;}
	.st6{fill:none;stroke:#000000;stroke-width:0.6883;stroke-miterlimit:10;}
</style>
<g>
	<path class="st0" d="M33.1,49.6c0,0-0.9-17.8,20.5-18.1s21.5,13.8,21.9,18l0.3,52.4c0,0,0.3,17.6-19.9,17.9
		C35.7,120,33.1,109,33.3,98.5L33.1,49.6z"/>
	<path class="st0" d="M73.1,51.3c0,0-0.7-15.4-19.8-14.4c-17.2,0.9-16.8,15-16.8,15v45.9c0,0-1,17.9,19.1,16.8
		c18.1-0.7,17.8-13.8,17.9-18.2C73.6,91.9,73.1,51.3,73.1,51.3z"/>
	<circle class="st0" cx="54.5" cy="57" r="8.3"/>
	<circle class="st1" cx="54" cy="57.4" r="2.3"/>
	<circle class="st1" cx="54.3" cy="96.1" r="7"/>
	<circle class="st1" cx="54.7" cy="96.1" r="2.7"/>
	<circle class="st1" cx="157.6" cy="165.9" r="17"/>
	<circle class="st2" cx="157.6" cy="165.4" r="20.8"/>
	<path class="st0" d="M55.4,14.5l177.4-1.4c0,0,4.6,1.7,8.3-0.3h17.7c0,0,20.8,0,30.2,13.9c9.4,13.9,7.9,31.3,7.9,31.3l3.1,508.6
		c0,0,0.6,19.6-8.7,29.4s-18.4,11.5-27.7,12.5L58,609.8c0,0-18.3,0.3-28.3-10.4s-10.2-22.3-10.5-26.6c-0.3-4.4-1.9-311.9-1.9-311.9
		h-1.7v-34h2v-24h-2v-71h1.3L16,56.6c0,0-0.8-19.5,8.8-29.9S48.4,14.7,55.4,14.5z"/>
	<path class="st0" d="M62.1,20.2c0,0-20.4-0.8-31.4,9.9s-9,42.3-9,53.4s2.4,483.5,2.4,483.5s-0.4,38.2,38.7,38.2
		s184.8-1.3,184.8-1.3s32.6,0.2,41.4-16.7c6.1-11.9,5.6-22.6,5.5-38.7c-0.2-16-3.2-491.2-3.2-491.2s0.5-37.7-40.4-37.5
		C209.9,20,62.1,20.2,62.1,20.2z"/>
	<g>
		<path class="st3" d="M256.5,13.5l140.6,1.3h31.8c0,0,20.9-0.4,30.8,10.7s10.8,22,10.8,29.5s-0.3,76.5-0.3,76.5l1.3,0l-0.4,70.4
			l-1.3,0l-0.2,25.5l1.2,0l-0.2,33.2l-1.1,0l-1.7,304.2c0,0,1.1,20.4-8,31.4c-9.1,11-17.8,12.1-29.1,13.3L224,608.4
			c0,0-14.8,0.9-27.6-11.2c-11-12.3-9.5-34.8-9.5-34.8L189.9,52c0,0,0.4-16.2,8.7-25.8c8.2-9.7,19.2-11.2,23.9-11.7
			c4.7-0.6,23.2-0.7,23.2-0.7s3.9,2.1,7.6-0.3L256.5,13.5z"/>
		<path class="st4" d="M249.8,22.3l-13.5,0c0,0-16.1-0.3-26.2,8.4S198.5,51.4,198.5,59s-3.2,504.8-3.2,504.8s0.1,19.7,12,28.3
			c11.9,8.5,23.2,8.1,30.3,8.2c7.1,0.1,185.2,0.5,185.2,0.5s16.8,0.5,26-9.3c9.1-9.7,10.2-18.6,10.5-28.6
			c0.2-10,2.9-503.6,2.9-503.6s0.5-11.8-6.6-22.5s-22.7-13.4-30.3-13.4C417.5,23.4,249.8,22.3,249.8,22.3z"/>
		<path class="st0" d="M425.4,18.6l-193-1c0,0-13.9-1.7-26.2,7.3c-12.3,9-12.3,25.7-12.3,25.7l-2.4,377.3v134.3
			c0,0-0.2,23.9,10,33.3c10.2,9.4,24.1,9.5,34.2,9.8c10.1,0.2,189.1,1,189.1,1s20.3-0.8,29.4-10.1c9.1-9.3,10.1-23.8,10-32.1
			c-0.1-8.3,0.2-84.9,0.2-84.9l1.7-294.8L467,57.5c0,0-0.7-18.4-11.6-28.5C444.5,18.9,425.4,18.6,425.4,18.6z"/>
		<circle class="st4" cx="289.3" cy="35.5" r="4.5"/>
		<circle class="st4" cx="368.5" cy="36.2" r="3.4"/>
		<path class="st0" d="M310.3,37.8h43.8c0.3,0,1.6,0,1.6-2c0-2-1.6-2-1.6-2h-43.8c0,0-1.8-0.6-1.9,1.9
			C308.4,38.2,309.8,37.8,310.3,37.8z"/>
		<path class="st0" d="M212.5,49.1L446,50.6c0,0,8-0.3,11,3.3c3,3.6,2.8,7.2,2.8,11s-2.8,497.2-2.8,497.2s0.1,11.3-11,11.4
			c-11.2,0.1-236.9-1.3-236.9-1.3s-11.4,0.7-11.5-11.9c-0.1-12.6,2.8-500.4,2.8-500.4S199.9,49.6,212.5,49.1z"/>
		<polygon class="st5" points="471.4,131.7 470.1,131.7 469.7,201.9 471,201.9 		"/>
		<polygon class="st6" points="470.8,227.4 469.4,227.4 469.3,260.8 470.6,260.8 		"/>
	</g>
</g>
</svg>
