<?xml version="1.0" encoding="utf-8"?>
<!-- Generator: Adobe Illustrator 21.0.0, SVG Export Plug-In . SVG Version: 6.00 Build 0)  -->
<svg version="1.1" id="lens" xmlns="http://www.w3.org/2000/svg" xmlns:xlink="http://www.w3.org/1999/xlink" x="0px" y="0px"
	 viewBox="0 0 200 200" style="enable-background:new 0 0 200 200;" xml:space="preserve">
<style type="text/css">
	.st0{fill:#FAFBFB;}
</style>
<g>
	<g>
		<path class="st0" d="M187.6,59.3h-46.6l-5.2-15.5c-0.7-2.1-2.6-3.5-4.8-3.5H70.1c-2.2,0-4.1,1.4-4.8,3.5l-5.2,15.5H35.5v-2h1.1
			c1.4,0,2.6-1.2,2.6-2.6c0-1.4-1.2-2.6-2.6-2.6H18.1c-1.4,0-2.6,1.2-2.6,2.6c0,1.4,1.2,2.6,2.6,2.6h1.1v2h-5.7
			c-4.9,0-8.9,4-8.9,8.9v100.3c0,4.9,4,8.9,8.9,8.9h174.1c4.9,0,8.9-4,8.9-8.9V68.2C196.4,63.3,192.5,59.3,187.6,59.3z M23,84.5
			c-3.6,0-6.5-2.9-6.5-6.5c0-3.6,2.9-6.5,6.5-6.5s6.5,2.9,6.5,6.5C29.5,81.6,26.6,84.5,23,84.5z M100.5,165.2
			c-25.9,0-46.9-21-46.9-46.9c0-25.9,21-46.9,46.9-46.9s46.9,21,46.9,46.9C147.4,144.2,126.4,165.2,100.5,165.2z"/>
	</g>
</g>
</svg>
