<?xml version="1.0" encoding="utf-8"?>
<!-- Generator: Adobe Illustrator 21.0.0, SVG Export Plug-In . SVG Version: 6.00 Build 0)  -->
<svg version="1.1" id="Layer_1" xmlns="http://www.w3.org/2000/svg" xmlns:xlink="http://www.w3.org/1999/xlink" x="0px" y="0px"
	 viewBox="0 0 704.7 629.5" style="enable-background:new 0 0 704.7 629.5;" xml:space="preserve">
<style type="text/css">
	.st0{fill:none;stroke:#231F20;stroke-miterlimit:10;}
	.st1{fill:none;stroke:#231F20;stroke-width:0.75;stroke-miterlimit:10;}
</style>
<g>
	<path class="st0" d="M-443.4,1830.6c12.3,18.1-5.5,33.4-5.5,33.4l-174.6,158.6c-13.8,12.5-24.8,11.2-24.8,11.2s-9.8,1.3-21.6-8.1
		c-1.4-1.2-4.6-3.8-7-6.2c-2.5-2.3-401.3-419.8-401.3-419.8s-9.2-8.4-13.5-19.7s2.5-21.4,14.5-28l183.2-98.3c0,0,8.3-4.9,18.1-4.9
		s14.8,3.5,20.6,8.4l397.2,355.3C-458.1,1812.7-450.3,1818-443.4,1830.6z"/>
	<path class="st0" d="M-1074.3,1550.6c0,0-13.9,8.3-14.2,17.8c-0.1,2.3,0.7,7.3,4.3,11.8l413.7,430.4c0,0,10.7,11.2,24.2,11.5
		c4.8,0.1,10.6-0.8,16-4.4c5.3-3.6,6.7-5.1,10.6-8.4c3.9-3.3,170.3-153.8,170.3-153.8s11.7-10.1,6.5-24"/>
	<path class="st0" d="M-853.9,1458.6c0,0-18.4-13.4-37.6-3.2c-9.6,5.3-174.8,95.1-174.8,95.1s-14.3,6.9-16.6,16.7
		c-0.8,3.4,0.5,9.3,4,13.3s408,423.3,408,423.3s21.3,21.4,42.1,3.3s176.6-157.5,176.6-157.5s15.9-17.7-5.1-36.5"/>
	<path class="st0" d="M-681.2,1972.7c0,0,4,4.4,9.6,4.2s7.6-2.8,7.6-2.8l182.4-157.7c0,0,2.7-2.5,2.6-5.7s-1.8-5.1-3-6.4
		s-370.6-332.6-370.6-332.6s-5.1-4.6-12.3-0.8s-189.4,104.6-189.4,104.6s-4.2,2.5-4.1,5.9s2.1,5.3,3.3,6.4
		S-681.2,1972.7-681.2,1972.7z"/>
	<ellipse class="st0" cx="-1020.3" cy="1538.2" rx="4.8" ry="3.7"/>
	<ellipse class="st0" cx="-935.3" cy="1492" rx="5.2" ry="3.9"/>
	<path class="st0" d="M-984.6,1516.3l30.7-16.5c0,0,1.8-1,2.8,0l0.8,1.1c0,0,0.8,1-0.5,1.7s-31.1,16.9-31.1,16.9s-1.7,1-2.5-0.1
		C-984.9,1518.6-985.9,1517.1-984.6,1516.3z"/>
	<polygon class="st0" points="-587.6,1990 -587.6,1987.4 -565.9,1967.6 -565.9,1970.3 	"/>
</g>
<g>
	<path class="st0" d="M672.5,402.5c12.3,18.1-5.5,33.4-5.5,33.4L492.4,594.5c-13.8,12.5-24.8,11.2-24.8,11.2s-9.8,1.3-21.6-8.1
		c-1.4-1.2-4.6-3.8-7-6.2c-2.5-2.3-401.3-419.8-401.3-419.8s-9.2-8.4-13.5-19.7s2.5-21.4,14.5-28l183.2-98.3c0,0,8.3-4.9,18.1-4.9
		c9.8,0.1,14.8,3.5,20.6,8.4l397.2,355.3C657.8,384.6,665.6,389.9,672.5,402.5z"/>
	<path class="st0" d="M41.6,122.5c0,0-13.9,8.3-14.2,17.8c-0.1,2.3,0.7,7.3,4.3,11.8l413.7,430.4c0,0,10.7,11.2,24.2,11.5
		c4.8,0.1,10.6-0.8,16-4.4s6.7-5.1,10.6-8.4c3.9-3.3,170.3-153.8,170.3-153.8s11.7-10.1,6.5-24"/>
	<path class="st0" d="M262,30.5c0,0-18.4-13.4-37.6-3.2c-9.6,5.3-174.8,95.1-174.8,95.1s-14.3,6.9-16.6,16.7
		c-0.8,3.4,0.5,9.3,4,13.3s408,423.3,408,423.3s21.3,21.4,42.1,3.3c20.8-18.1,176.6-157.5,176.6-157.5s15.9-17.7-5.1-36.5"/>
	<path class="st0" d="M434.7,544.6c0,0,4,4.4,9.6,4.2s7.6-2.8,7.6-2.8l182.4-157.7c0,0,2.7-2.5,2.6-5.7s-1.8-5.1-3-6.4
		S263.3,43.6,263.3,43.6s-5.1-4.6-12.2-0.8c-7.2,3.8-189.4,104.6-189.4,104.6s-4.2,2.5-4.1,5.9s2.1,5.3,3.3,6.4
		C61.8,160.8,434.7,544.6,434.7,544.6z"/>
	<ellipse class="st0" cx="95.6" cy="110.1" rx="2.4" ry="1.8"/>
	<ellipse class="st0" cx="95.6" cy="110.1" rx="4.8" ry="3.7"/>
	<ellipse class="st0" cx="180.6" cy="63.8" rx="5.2" ry="3.9"/>
	<path class="st0" d="M131.3,88.2l30.7-16.5c0,0,1.8-1,2.8,0l0.8,1.1c0,0,0.8,1-0.5,1.7S134,91.3,134,91.3s-1.7,1-2.5-0.1
		C131,90.5,130,89,131.3,88.2z"/>
	<polygon class="st0" points="528.3,561.9 528.3,559.3 550,539.5 550,542.2 	"/>
</g>
<path class="st0" d="M2,1479.6c0,0,0,529.4,0,531.2c0,0-0.9,13.3,11.9,13.3c0,0,249.6,0,255,0c14.4,0,13-15.6,13-15.6s0-525,0-527.9
	c0-14.4-14.5-13.2-14.5-13.2s-252.7,0-253.9,0C13.6,1467.4,2,1466.9,2,1479.6z"/>
<path class="st0" d="M-11.7,1461c0,0-0.6-10,6.6-19.1s18.9-9.5,20.2-9.5s250.2,0,250.2,0s11.3,0,19.6,8.2c8.3,8.3,7.4,20.6,7.4,23.7
	c0,3.1,0,572.5,0,572.5s0.1,8.9-5.1,17.1c-6.2,9.8-20.8,11.2-26.7,11.2c-5.9,0-241.8,0-241.8,0s-13.3,0.8-22-7.5
	c-8.6-8.3-8.6-20-8.6-22C-11.7,2033.7-11.7,1461-11.7,1461z"/>
<path class="st0" d="M-14,1456.6c0,0-0.7-10.2,6.7-19.4s19.2-9.7,20.5-9.7s254.1,0,254.1,0s11.5,0,19.9,8.4c8.4,8.4,7.5,20.9,7.5,24
	s0,581.4,0,581.4s1,7.4-5.2,17.4c-6.3,10-21.1,11.4-27.1,11.4c-6,0-245.5,0-245.5,0s-13.5,0.8-22.3-7.6s-8.7-20.3-8.7-22.3
	C-14,2038.1-14,1456.6-14,1456.6z"/>
<path class="st0" d="M-16.5,1451.8c0,0-0.7-10.3,6.8-19.8c7.5-9.4,19.5-9.8,20.8-9.8s258.3,0,258.3,0s11.7,0,20.3,8.5
	s7.7,21.3,7.7,24.4c0,3.2,0,590.8,0,590.8s0.8,8.1-5.3,17.7c-6.4,10.1-21.4,11.6-27.5,11.6c-6.1,0-249.5,0-249.5,0
	s-13.8,0.8-22.7-7.8s-8.8-20.7-8.8-22.7S-16.5,1451.8-16.5,1451.8z"/>
<path class="st0" d="M525.5,1456.9c0,0-0.6-10.1,6.7-19.2c7.3-9.2,19-9.6,20.3-9.6c1.3,0,251.7,0,251.7,0s11.4,0,19.7,8.3
	c8.3,8.3,7.5,20.7,7.5,23.8s0,579.6,0,579.6s0.4,8.1-5.7,18c-5.9,9.6-20.3,10.5-26.3,10.5s-243.1,0-243.1,0s-13.4,0.8-22.1-7.6
	c-8.7-8.4-8.6-20.1-8.6-22.1C525.5,2036.6,525.5,1456.9,525.5,1456.9z"/>
<path class="st0" d="M521.8,1452.4c0,0-0.7-10.3,6.8-19.7c7.5-9.4,19.5-9.8,20.8-9.8s257.7,0,257.7,0s11.7,0,20.2,8.5
	c8.5,8.5,7.6,21.2,7.6,24.4s0,589.5,0,589.5s0,8.7-5.3,17.6c-6.2,10.3-21.4,11.6-27.5,11.6s-248.9,0-248.9,0s-13.7,0.8-22.6-7.7
	c-8.9-8.6-8.8-20.6-8.8-22.6C521.8,2042,521.8,1452.4,521.8,1452.4z"/>
<circle class="st0" cx="71.4" cy="1447.5" r="3.8"/>
<circle class="st0" cx="71.4" cy="1447.5" r="5.3"/>
<circle class="st0" cx="186.3" cy="1447.6" r="5.6"/>
<path class="st0" d="M164.9,1447.5c0,1.4-1.1,2.6-2.6,2.6h-41.6c-1.4,0-2.6-1.1-2.6-2.6l0,0c0-1.4,1.1-2.6,2.6-2.6h41.6
	C163.8,1444.9,164.9,1446.1,164.9,1447.5L164.9,1447.5z"/>
<polyline class="st0" points="297.3,1528.7 299.4,1528.7 299.4,1621.3 297.3,1621.3 "/>
<polyline class="st0" points="297.3,1648.5 299.4,1648.5 299.4,1692.8 297.3,1692.8 "/>
<g>
	<path class="st0" d="M-1128.3,1173.4c0,0,529.4,0,531.2,0c0,0,13.3,0.9,13.3-11.9c0,0,0-249.6,0-255c0-14.4-15.6-13-15.6-13
		s-525,0-527.9,0c-14.4,0-13.2,14.5-13.2,14.5s0,252.7,0,253.9C-1140.5,1161.8-1141,1173.4-1128.3,1173.4z"/>
	<path class="st0" d="M-1146.8,1187c0,0-10,0.6-19.1-6.6c-9.1-7.3-9.5-18.9-9.5-20.2s0-250.2,0-250.2s0-11.3,8.2-19.6
		c8.3-8.3,20.6-7.4,23.7-7.4s572.5,0,572.5,0s8.9-0.1,17.1,5.1c9.8,6.2,11.2,20.8,11.2,26.7s0,241.8,0,241.8s0.8,13.3-7.5,22
		c-8.3,8.6-20,8.6-22,8.6S-1146.8,1187-1146.8,1187z"/>
	<path class="st0" d="M-1151.3,1189.4c0,0-10.2,0.7-19.4-6.7c-9.3-7.4-9.7-19.2-9.7-20.5c0-1.3,0-254.1,0-254.1s0-11.5,8.4-19.9
		s20.9-7.5,24-7.5s581.4,0,581.4,0s7.4-1,17.4,5.2c10,6.3,11.4,21.1,11.4,27.1s0,245.5,0,245.5s0.8,13.5-7.6,22.3
		c-8.4,8.8-20.3,8.7-22.3,8.7S-1151.3,1189.4-1151.3,1189.4z"/>
	<path class="st0" d="M-1156,1191.9c0,0-10.3,0.7-19.8-6.8s-9.8-19.5-9.8-20.8c0-1.3,0-258.2,0-258.2s0-11.7,8.5-20.3
		c8.5-8.5,21.3-7.7,24.4-7.7c3.2,0,590.8,0,590.8,0s8.1-0.8,17.7,5.3c10.1,6.4,11.6,21.4,11.6,27.5c0,6.1,0,249.5,0,249.5
		s0.8,13.8-7.8,22.7c-8.6,8.9-20.7,8.8-22.7,8.8S-1156,1191.9-1156,1191.9z"/>
	<circle class="st0" cx="-1160.3" cy="1104" r="3.3"/>
	<circle class="st0" cx="-1160.3" cy="1104" r="5.3"/>
	<circle class="st0" cx="-1160.3" cy="989.1" r="5.6"/>
	<path class="st0" d="M-1160.4,1010.4c1.4,0,2.6,1.1,2.6,2.6v41.6c0,1.4-1.1,2.6-2.6,2.6l0,0c-1.4,0-2.6-1.1-2.6-2.6V1013
		C-1162.9,1011.6-1161.8,1010.4-1160.4,1010.4L-1160.4,1010.4z"/>
	<polyline class="st0" points="-1079.1,878 -1079.1,876 -986.5,876 -986.5,878 	"/>
	<polyline class="st0" points="-959.4,878 -959.4,876 -915,876 -915,878 	"/>
</g>
<g>
	<path class="st0" d="M-118.8,1173.4c0,0,529.4,0,531.2,0c0,0,13.3,0.9,13.3-11.9c0,0,0-249.6,0-255c0-14.4-15.6-13-15.6-13
		s-525,0-527.9,0c-14.4,0-13.2,14.5-13.2,14.5s0,252.7,0,253.9C-131,1161.8-131.5,1173.4-118.8,1173.4z"/>
	<path class="st0" d="M-137.4,1187c0,0-10,0.6-19.1-6.6s-9.5-18.9-9.5-20.2s0-250.2,0-250.2s0-11.3,8.2-19.6
		c8.3-8.3,20.6-7.4,23.7-7.4c3.1,0,572.5,0,572.5,0s8.9-0.1,17.1,5.1c9.8,6.2,11.2,20.8,11.2,26.7s0,241.8,0,241.8s0.8,13.3-7.5,22
		c-8.3,8.6-20,8.6-22,8.6C435.3,1187-137.4,1187-137.4,1187z"/>
	<path class="st0" d="M-141.9,1189.4c0,0-10.2,0.7-19.4-6.7c-9.3-7.4-9.7-19.2-9.7-20.5c0-1.3,0-254.1,0-254.1s0-11.5,8.4-19.9
		c8.4-8.4,20.9-7.5,24-7.5s581.4,0,581.4,0s7.4-1,17.4,5.2c10,6.3,11.4,21.1,11.4,27.1s0,245.5,0,245.5s0.8,13.5-7.6,22.3
		c-8.4,8.8-20.3,8.7-22.3,8.7C439.7,1189.4-141.9,1189.4-141.9,1189.4z"/>
	<path class="st0" d="M-146.6,1191.9c0,0-10.3,0.7-19.8-6.8c-9.4-7.5-9.8-19.5-9.8-20.8c0-1.3,0-258.2,0-258.2s0-11.7,8.5-20.3
		c8.5-8.5,21.3-7.7,24.4-7.7c3.2,0,590.8,0,590.8,0s8.1-0.8,17.7,5.3c10.1,6.4,11.6,21.4,11.6,27.5c0,6.1,0,249.5,0,249.5
		s0.8,13.8-7.8,22.7s-20.7,8.8-22.7,8.8S-146.6,1191.9-146.6,1191.9z"/>
	<circle class="st0" cx="-150.9" cy="1104" r="3.3"/>
	<circle class="st0" cx="-150.9" cy="1104" r="5.3"/>
	<circle class="st0" cx="-150.9" cy="989.1" r="5.6"/>
	<path class="st0" d="M-150.9,1010.4c1.4,0,2.6,1.1,2.6,2.6v41.6c0,1.4-1.1,2.6-2.6,2.6l0,0c-1.4,0-2.6-1.1-2.6-2.6V1013
		C-153.5,1011.6-152.3,1010.4-150.9,1010.4L-150.9,1010.4z"/>
	<polyline class="st0" points="-69.7,878 -69.7,876 22.9,876 22.9,878 	"/>
	<polyline class="st0" points="50.1,878 50.1,876 94.4,876 94.4,878 	"/>
</g>
<path class="st0" d="M635.6,1464.5c0,10.4-10,17.8-18.2,17.8h-47c-8.3,0-18.2-7.4-18.2-17.8v-0.8c0-10.4,10-17.5,18.2-17.5h47
	c8.3,0,18.2,7.2,18.2,17.5V1464.5z"/>
<path class="st0" d="M638.9,1464.6c0,11.2-10.8,20.2-19.7,20.2h-50.7c-8.9,0-19.7-9.1-19.7-20.2v-0.8c0-11.2,10.8-20.2,19.7-20.2
	h50.7c8.9,0,19.7,9.1,19.7,20.2V1464.6z"/>
<circle class="st0" cx="570.7" cy="1464.4" r="14.7"/>
<circle class="st0" cx="571" cy="1464.3" r="10.3"/>
<circle class="st0" cx="571.3" cy="1464.3" r="8.4"/>
<circle class="st0" cx="571.3" cy="1464.3" r="4.8"/>
<circle class="st0" cx="617.3" cy="1464.7" r="9.9"/>
<circle class="st0" cx="617.3" cy="1464.7" r="7.5"/>
<circle class="st0" cx="676.7" cy="1585.4" r="24.3"/>
<circle class="st0" cx="676.7" cy="1585.4" r="20.3"/>
<circle class="st0" cx="648" cy="2020.7" r="3"/>
<circle class="st0" cx="657.4" cy="2020.7" r="3"/>
<circle class="st0" cx="667.2" cy="2020.7" r="3"/>
<circle class="st0" cx="676.8" cy="2020.7" r="3"/>
<circle class="st0" cx="686.3" cy="2020.7" r="3"/>
<circle class="st0" cx="696" cy="2020.7" r="3"/>
<circle class="st0" cx="705.6" cy="2020.7" r="3"/>
<polyline class="st0" points="521.8,1529.2 519.9,1529.2 519.9,1621.7 521.8,1621.7 521.8,1648 519.9,1648 519.9,1693.3 
	521.8,1693.3 "/>
<g>
	<g>
		<path class="st0" d="M-1412.2,837.1c-70.9,0-166.2,0-166.2,0s-13.4,0.8-22.1-7.6s-8.6-20.1-8.6-22.1s0-581.7,0-581.7
			s-0.6-10.1,6.7-19.2c7.3-9.2,19-9.6,20.3-9.6c0.8,0,98.4,0,171.3,0"/>
		<path class="st0" d="M-1400.9,843.2c-73.5,0-180.5,0-180.5,0s-13.7,0.8-22.6-7.7c-8.9-8.6-8.8-20.6-8.8-22.6c0-2,0-591.6,0-591.6
			s-0.7-10.3,6.8-19.7s19.5-9.8,20.8-9.8c0.8,0,108.7,0,184.3,0"/>
		<path class="st0" d="M-1499,233.4c0,10.4-10,17.8-18.2,17.8h-47c-8.3,0-18.2-7.4-18.2-17.8v-0.8c0-10.4,10-17.5,18.2-17.5h47
			c8.3,0,18.2,7.2,18.2,17.5V233.4z"/>
		<path class="st0" d="M-1495.7,233.5c0,11.2-10.8,20.2-19.7,20.2h-50.7c-8.9,0-19.7-9.1-19.7-20.2v-0.8c0-11.2,10.8-20.2,19.7-20.2
			h50.7c8.9,0,19.7,9.1,19.7,20.2V233.5z"/>
		<circle class="st0" cx="-1563.9" cy="233.2" r="14.7"/>
		<circle class="st0" cx="-1563.6" cy="233.1" r="10.3"/>
		<circle class="st0" cx="-1563.3" cy="233.1" r="8.4"/>
		<circle class="st0" cx="-1563.3" cy="233.1" r="4.8"/>
		<circle class="st0" cx="-1517.4" cy="233.5" r="9.9"/>
		<circle class="st0" cx="-1517.4" cy="233.5" r="7.5"/>
		<circle class="st0" cx="-1457.9" cy="354.3" r="24.3"/>
		<circle class="st0" cx="-1457.9" cy="354.3" r="20.3"/>
		<circle class="st0" cx="-1486.6" cy="789.6" r="3"/>
		<circle class="st0" cx="-1477.3" cy="789.6" r="3"/>
		<circle class="st0" cx="-1467.4" cy="789.6" r="3"/>
		<circle class="st0" cx="-1457.8" cy="789.6" r="3"/>
		<circle class="st0" cx="-1448.4" cy="789.6" r="3"/>
		<circle class="st0" cx="-1438.6" cy="789.6" r="3"/>
		<circle class="st0" cx="-1429" cy="789.6" r="3"/>
		<polyline class="st0" points="-1612.9,298 -1614.7,298 -1614.7,390.5 -1612.9,390.5 -1612.9,416.9 -1614.7,416.9 -1614.7,462.1 
			-1612.9,462.1 		"/>
	</g>
	<g>
		<path class="st0" d="M-1402.5,247.9c0,0,0,530.3,0,532.1c0,0-0.9,13.3,12,13.3c0,0,250,0,255.5,0c14.4,0,13-15.6,13-15.6
			s0-525.9,0-528.8c0-14.4-14.5-13.2-14.5-13.2s-253.2,0-254.4,0C-1390.9,235.7-1402.5,235.2-1402.5,247.9z"/>
		<path class="st0" d="M-1416.2,229.3c0,0-0.6-10,6.6-19.2c7.3-9.1,18.9-9.5,20.2-9.5c1.3,0,250.7,0,250.7,0s11.4,0,19.7,8.3
			c8.3,8.3,7.4,20.6,7.4,23.7s0,573.5,0,573.5s0.1,8.9-5.2,17.1c-6.2,9.8-20.8,11.2-26.7,11.2s-242.2,0-242.2,0s-13.3,0.8-22-7.5
			c-8.7-8.3-8.6-20.1-8.6-22C-1416.2,803-1416.2,229.3-1416.2,229.3z"/>
		<path class="st0" d="M-1418.6,224.9c0,0-0.7-10.2,6.7-19.5c7.4-9.3,19.2-9.7,20.5-9.7c1.3,0,254.6,0,254.6,0s11.5,0,20,8.4
			c8.4,8.4,7.6,20.9,7.6,24.1s0,582.4,0,582.4s1,7.4-5.2,17.4c-6.3,10-21.1,11.4-27.1,11.4c-6,0-245.9,0-245.9,0s-13.6,0.8-22.3-7.6
			c-8.8-8.5-8.7-20.4-8.7-22.3C-1418.6,807.5-1418.6,224.9-1418.6,224.9z"/>
		<path class="st0" d="M-1421.1,220.1c0,0-0.7-10.4,6.8-19.8s19.5-9.9,20.9-9.9c1.3,0,258.7,0,258.7,0s11.7,0,20.3,8.5
			s7.7,21.3,7.7,24.5c0,3.2,0,591.9,0,591.9s0.8,8.1-5.3,17.7c-6.4,10.2-21.5,11.6-27.6,11.6c-6.1,0-249.9,0-249.9,0
			s-13.8,0.8-22.7-7.8c-8.9-8.6-8.9-20.7-8.9-22.7C-1421.1,812.1-1421.1,220.1-1421.1,220.1z"/>
		<circle class="st0" cx="-1333" cy="215.8" r="3.8"/>
		<circle class="st0" cx="-1333" cy="215.8" r="5.3"/>
		<circle class="st0" cx="-1217.9" cy="215.9" r="5.7"/>
		<path class="st0" d="M-1239.3,215.8c0,1.4-1.1,2.6-2.6,2.6h-41.7c-1.4,0-2.6-1.1-2.6-2.6l0,0c0-1.4,1.1-2.6,2.6-2.6h41.7
			C-1240.4,213.2-1239.3,214.4-1239.3,215.8L-1239.3,215.8z"/>
		<polyline class="st0" points="-1106.7,297.2 -1104.6,297.2 -1104.6,389.9 -1106.7,389.9 		"/>
		<polyline class="st0" points="-1106.7,417.1 -1104.6,417.1 -1104.6,461.5 -1106.7,461.5 		"/>
	</g>
</g>
<line class="st1" x1="209.1" y1="1064" x2="422.8" y2="1169.6"/>
<line class="st1" x1="-127.9" y1="897.4" x2="87.7" y2="1004"/>
<text transform="matrix(1 0 0 1 62.5732 1050.0531)" style="font-family:'MyriadPro-Regular'; font-size:46.8009px;">5.45 inch</text>
</svg>
