<?xml version="1.0" encoding="utf-8"?>
<!-- Generator: Adobe Illustrator 21.0.0, SVG Export Plug-In . SVG Version: 6.00 Build 0)  -->
<svg version="1.1" id="Layer_1" xmlns="http://www.w3.org/2000/svg" xmlns:xlink="http://www.w3.org/1999/xlink" x="0px" y="0px"
	 viewBox="0 0 666.7 326.9" style="enable-background:new 0 0 666.7 326.9;" xml:space="preserve">
<style type="text/css">
	.st0{fill:none;stroke:#231F20;stroke-miterlimit:10;}
	.st1{fill:none;stroke:#231F20;stroke-width:0.75;stroke-miterlimit:10;}
	.st2{font-family:'MyriadPro-Regular';}
	.st3{font-size:46.8009px;}
</style>
<g>
	<path class="st0" d="M-260.4,960.4c12.2,18.1-5.5,33.4-5.5,33.4l-174.6,158.6c-13.8,12.5-24.8,11.2-24.8,11.2s-9.8,1.3-21.6-8.1
		c-1.4-1.2-4.6-3.8-7-6.2s-401.3-419.8-401.3-419.8s-9.2-8.4-13.5-19.7c-4.3-11.3,2.5-21.4,14.5-28l183.2-98.3c0,0,8.3-4.9,18.1-4.9
		c9.8,0.1,14.8,3.5,20.6,8.4l397.2,355.3C-275.1,942.5-267.3,947.8-260.4,960.4z"/>
	<path class="st0" d="M-891.3,680.4c0,0-13.9,8.3-14.2,17.8c-0.1,2.3,0.7,7.3,4.3,11.8l413.7,430.4c0,0,10.7,11.2,24.2,11.5
		c4.8,0.1,10.6-0.8,16-4.4c5.3-3.6,6.7-5.1,10.6-8.4c3.9-3.3,170.3-153.8,170.3-153.8s11.7-10.1,6.5-24"/>
	<path class="st0" d="M-670.9,588.4c0,0-18.4-13.4-37.6-3.2c-9.6,5.3-174.8,95.1-174.8,95.1s-14.3,6.9-16.6,16.7
		c-0.8,3.4,0.5,9.3,4,13.3s408,423.3,408,423.3s21.3,21.4,42.1,3.3c20.8-18.1,176.6-157.5,176.6-157.5s15.9-17.7-5.1-36.5"/>
	<path class="st0" d="M-498.1,1102.5c0,0,4,4.4,9.6,4.2c5.6-0.3,7.6-2.8,7.6-2.8l182.4-157.7c0,0,2.7-2.5,2.6-5.7
		c-0.2-3.2-1.8-5.1-3-6.4s-370.6-332.6-370.6-332.6s-5.1-4.6-12.3-0.8s-189.4,104.6-189.4,104.6s-4.2,2.5-4.1,5.9
		c0,3.4,2.1,5.3,3.3,6.4C-871,718.7-498.1,1102.5-498.1,1102.5z"/>
	<ellipse class="st0" cx="-837.3" cy="667.9" rx="4.8" ry="3.7"/>
	<ellipse class="st0" cx="-752.3" cy="621.7" rx="5.2" ry="3.9"/>
	<path class="st0" d="M-801.5,646.1l30.7-16.5c0,0,1.8-1,2.8,0l0.8,1.1c0,0,0.8,1-0.5,1.7s-31.1,16.9-31.1,16.9s-1.7,1-2.5-0.1
		C-801.9,648.4-802.9,646.9-801.5,646.1z"/>
	<polygon class="st0" points="-404.6,1119.8 -404.6,1117.2 -382.8,1097.4 -382.8,1100.1 	"/>
</g>
<g>
	<path class="st0" d="M-190.6-314.8c12.3,18.1-5.5,33.4-5.5,33.4l-174.6,158.6c-13.8,12.5-24.8,11.2-24.8,11.2s-9.8,1.3-21.6-8.1
		c-1.4-1.2-4.6-3.8-7-6.2s-401.3-419.8-401.3-419.8s-9.2-8.4-13.5-19.7c-4.3-11.3,2.5-21.4,14.5-28l183.2-98.3c0,0,8.3-4.9,18.1-4.9
		s14.8,3.5,20.6,8.4l397.2,355.3C-205.3-332.7-197.5-327.4-190.6-314.8z"/>
	<path class="st0" d="M-821.5-594.8c0,0-13.9,8.3-14.2,17.8c-0.1,2.3,0.7,7.3,4.3,11.8l413.7,430.4c0,0,10.7,11.2,24.2,11.5
		c4.8,0.1,10.6-0.8,16-4.4c5.3-3.6,6.7-5.1,10.6-8.4C-363-139.5-196.6-290-196.6-290s11.7-10.1,6.5-24"/>
	<path class="st0" d="M-601.1-686.8c0,0-18.4-13.4-37.6-3.2c-9.6,5.3-174.8,95.1-174.8,95.1s-14.3,6.9-16.6,16.7
		c-0.8,3.4,0.5,9.3,4,13.3s408,423.2,408,423.2s21.3,21.4,42.1,3.3s176.6-157.5,176.6-157.5s15.9-17.7-5.1-36.5"/>
	<path class="st0" d="M-428.3-172.7c0,0,4,4.4,9.6,4.2s7.6-2.8,7.6-2.8L-228.7-329c0,0,2.7-2.5,2.6-5.7s-1.8-5.1-3-6.4
		s-370.6-332.6-370.6-332.6s-5.1-4.6-12.3-0.8S-801.5-570-801.5-570s-4.2,2.5-4.1,5.9c0,3.4,2.1,5.3,3.3,6.4
		S-428.3-172.7-428.3-172.7z"/>
	<ellipse class="st0" cx="-767.5" cy="-607.3" rx="2.4" ry="1.8"/>
	<ellipse class="st0" cx="-767.5" cy="-607.3" rx="4.8" ry="3.7"/>
	<ellipse class="st0" cx="-682.5" cy="-653.5" rx="5.2" ry="3.9"/>
	<path class="st0" d="M-731.7-629.2l30.7-16.5c0,0,1.8-1,2.8,0l0.8,1.1c0,0,0.8,1-0.5,1.7S-729-626-729-626s-1.7,1-2.5-0.1
		C-732.1-626.9-733-628.4-731.7-629.2z"/>
	<polygon class="st0" points="-334.8,-155.4 -334.8,-158 -313,-177.9 -313,-175.1 	"/>
</g>
<path class="st0" d="M185,609.4c0,0,0,529.4,0,531.2c0,0-0.9,13.3,11.9,13.3c0,0,249.6,0,255,0c14.4,0,13-15.6,13-15.6
	s0-525,0-527.9c0-14.4-14.5-13.2-14.5-13.2s-252.7,0-253.9,0C196.6,597.2,185,596.7,185,609.4z"/>
<path class="st0" d="M171.4,590.8c0,0-0.6-10,6.6-19.1c7.3-9.1,18.9-9.5,20.2-9.5c1.3,0,250.2,0,250.2,0s11.3,0,19.6,8.2
	c8.3,8.3,7.4,20.6,7.4,23.7c0,3.1,0,572.5,0,572.5s0.1,8.9-5.1,17.1c-6.2,9.8-20.8,11.2-26.7,11.2c-5.9,0-241.8,0-241.8,0
	s-13.3,0.8-22-7.5c-8.6-8.3-8.6-20-8.6-22C171.4,1163.5,171.4,590.8,171.4,590.8z"/>
<path class="st0" d="M169,586.3c0,0-0.7-10.2,6.7-19.4c7.4-9.3,19.2-9.7,20.5-9.7c1.3,0,254.1,0,254.1,0s11.5,0,19.9,8.4
	c8.4,8.4,7.5,20.9,7.5,24c0,3.1,0,581.4,0,581.4s1,7.4-5.2,17.4s-21.1,11.4-27.1,11.4c-6,0-245.5,0-245.5,0s-13.5,0.8-22.3-7.6
	c-8.8-8.4-8.7-20.3-8.7-22.3S169,586.3,169,586.3z"/>
<path class="st0" d="M166.5,581.6c0,0-0.7-10.3,6.8-19.8c7.5-9.4,19.5-9.8,20.8-9.8c1.3,0,258.3,0,258.3,0s11.7,0,20.3,8.5
	c8.5,8.5,7.7,21.3,7.7,24.4s0,590.8,0,590.8s0.8,8.1-5.3,17.7c-6.4,10.1-21.4,11.6-27.5,11.6s-249.5,0-249.5,0s-13.8,0.8-22.7-7.8
	c-8.9-8.6-8.8-20.7-8.8-22.7S166.5,581.6,166.5,581.6z"/>
<path class="st0" d="M708.5,586.7c0,0-0.6-10.1,6.7-19.2c7.3-9.2,19-9.6,20.3-9.6c1.3,0,251.7,0,251.7,0s11.4,0,19.7,8.3
	s7.5,20.7,7.5,23.8c0,3.1,0,579.6,0,579.6s0.4,8.1-5.7,18c-5.9,9.6-20.3,10.5-26.3,10.5c-5.9,0-243.1,0-243.1,0s-13.4,0.8-22.1-7.6
	c-8.7-8.4-8.6-20.1-8.6-22.1C708.5,1166.4,708.5,586.7,708.5,586.7z"/>
<path class="st0" d="M704.8,582.1c0,0-0.7-10.3,6.8-19.7s19.5-9.8,20.8-9.8c1.3,0,257.7,0,257.7,0s11.7,0,20.2,8.5
	s7.6,21.2,7.6,24.4c0,3.2,0,589.5,0,589.5s0,8.7-5.3,17.6c-6.2,10.3-21.4,11.6-27.5,11.6c-6.1,0-248.9,0-248.9,0s-13.7,0.8-22.6-7.7
	s-8.8-20.6-8.8-22.6C704.8,1171.8,704.8,582.1,704.8,582.1z"/>
<circle class="st0" cx="254.4" cy="577.3" r="3.8"/>
<circle class="st0" cx="254.4" cy="577.3" r="5.3"/>
<circle class="st0" cx="369.3" cy="577.3" r="5.6"/>
<path class="st0" d="M348,577.3c0,1.4-1.1,2.6-2.6,2.6h-41.6c-1.4,0-2.6-1.1-2.6-2.6l0,0c0-1.4,1.1-2.6,2.6-2.6h41.6
	C346.8,574.7,348,575.9,348,577.3L348,577.3z"/>
<polyline class="st0" points="480.4,658.5 482.4,658.5 482.4,751.1 480.4,751.1 "/>
<polyline class="st0" points="480.4,778.3 482.4,778.3 482.4,822.6 480.4,822.6 "/>
<g>
	<path class="st0" d="M-945.3,303.2c0,0,529.4,0,531.2,0c0,0,13.3,0.9,13.3-11.9c0,0,0-249.6,0-255c0-14.4-15.6-13-15.6-13
		s-525,0-527.9,0c-14.4,0-13.2,14.5-13.2,14.5s0,252.7,0,253.9C-957.4,291.6-957.9,303.2-945.3,303.2z"/>
	<path class="st0" d="M-963.8,316.8c0,0-10,0.6-19.1-6.6c-9.1-7.3-9.5-18.9-9.5-20.2s0-250.2,0-250.2s0-11.3,8.2-19.6
		c8.3-8.3,20.6-7.4,23.7-7.4c3.1,0,572.5,0,572.5,0s8.9-0.1,17.1,5.1c9.8,6.2,11.2,20.8,11.2,26.7s0,241.8,0,241.8s0.8,13.3-7.5,22
		c-8.3,8.6-20,8.6-22,8.6C-391.1,316.8-963.8,316.8-963.8,316.8z"/>
	<path class="st0" d="M-968.3,319.2c0,0-10.2,0.7-19.4-6.7c-9.3-7.4-9.7-19.2-9.7-20.5s0-254.1,0-254.1s0-11.5,8.4-19.9
		c8.4-8.4,20.9-7.5,24-7.5s581.4,0,581.4,0s7.4-1,17.4,5.2s11.4,21.1,11.4,27.1s0,245.5,0,245.5s0.8,13.5-7.6,22.3
		c-8.4,8.8-20.3,8.7-22.3,8.7S-968.3,319.2-968.3,319.2z"/>
	<path class="st0" d="M-973,321.7c0,0-10.3,0.7-19.8-6.8c-9.4-7.5-9.8-19.5-9.8-20.8s0-258.3,0-258.3s0-11.7,8.5-20.3
		s21.3-7.7,24.4-7.7c3.2,0,590.8,0,590.8,0s8.1-0.8,17.7,5.3c10.1,6.4,11.6,21.4,11.6,27.5s0,249.5,0,249.5s0.8,13.8-7.8,22.7
		c-8.6,8.9-20.7,8.8-22.7,8.8S-973,321.7-973,321.7z"/>
	<circle class="st0" cx="-977.3" cy="233.8" r="3.3"/>
	<circle class="st0" cx="-977.3" cy="233.8" r="5.3"/>
	<circle class="st0" cx="-977.3" cy="118.8" r="5.6"/>
	<path class="st0" d="M-977.3,140.2c1.4,0,2.6,1.1,2.6,2.6v41.6c0,1.4-1.1,2.6-2.6,2.6l0,0c-1.4,0-2.6-1.1-2.6-2.6v-41.6
		C-979.9,141.3-978.7,140.2-977.3,140.2L-977.3,140.2z"/>
	<polyline class="st0" points="-896.1,7.8 -896.1,5.7 -803.5,5.7 -803.5,7.8 	"/>
	<polyline class="st0" points="-776.3,7.8 -776.3,5.7 -732,5.7 -732,7.8 	"/>
</g>
<g>
	<path class="st0" d="M64.2,303.2c0,0,529.4,0,531.2,0c0,0,13.3,0.9,13.3-11.9c0,0,0-249.6,0-255c0-14.4-15.6-13-15.6-13
		s-525,0-527.9,0C50.8,23.2,52,37.7,52,37.7s0,252.7,0,253.9C52,291.6,51.5,303.2,64.2,303.2z"/>
	<path class="st0" d="M45.6,316.8c0,0-10,0.6-19.1-6.6c-9.1-7.3-9.5-18.9-9.5-20.2s0-250.2,0-250.2s0-11.3,8.2-19.6
		s20.6-7.4,23.7-7.4s572.5,0,572.5,0s8.9-0.1,17.1,5.1c9.8,6.2,11.2,20.8,11.2,26.7s0,241.8,0,241.8s0.8,13.3-7.5,22
		c-8.3,8.6-20,8.6-22,8.6S45.6,316.8,45.6,316.8z"/>
	<path class="st0" d="M41.2,319.2c0,0-10.2,0.7-19.4-6.7s-9.7-19.2-9.7-20.5s0-254.1,0-254.1s0-11.5,8.4-19.9s20.9-7.5,24-7.5
		c3.1,0,581.4,0,581.4,0s7.4-1,17.4,5.2c10,6.3,11.4,21.1,11.4,27.1s0,245.5,0,245.5s0.8,13.5-7.6,22.3c-8.4,8.8-20.3,8.7-22.3,8.7
		C622.8,319.2,41.2,319.2,41.2,319.2z"/>
	<path class="st0" d="M36.4,321.7c0,0-10.3,0.7-19.8-6.8S6.9,295.3,6.9,294s0-258.3,0-258.3s0-11.7,8.5-20.3s21.3-7.7,24.4-7.7
		c3.2,0,590.8,0,590.8,0s8.1-0.8,17.7,5.3c10.1,6.4,11.6,21.4,11.6,27.5s0,249.5,0,249.5s0.8,13.8-7.8,22.7
		c-8.6,8.9-20.7,8.8-22.7,8.8S36.4,321.7,36.4,321.7z"/>
	<circle class="st0" cx="32.2" cy="233.8" r="3.3"/>
	<circle class="st0" cx="32.2" cy="233.8" r="5.3"/>
	<circle class="st0" cx="32.2" cy="118.8" r="5.6"/>
	<path class="st0" d="M32.1,140.2c1.4,0,2.6,1.1,2.6,2.6v41.6c0,1.4-1.1,2.6-2.6,2.6l0,0c-1.4,0-2.6-1.1-2.6-2.6v-41.6
		C29.6,141.3,30.7,140.2,32.1,140.2L32.1,140.2z"/>
	<polyline class="st0" points="113.4,7.8 113.4,5.7 205.9,5.7 205.9,7.8 	"/>
	<polyline class="st0" points="233.1,7.8 233.1,5.7 277.4,5.7 277.4,7.8 	"/>
</g>
<path class="st0" d="M818.7,594.3c0,10.4-10,17.8-18.2,17.8h-47c-8.3,0-18.2-7.4-18.2-17.8v-0.8c0-10.4,10-17.5,18.2-17.5h47
	c8.3,0,18.2,7.2,18.2,17.5V594.3z"/>
<path class="st0" d="M821.9,594.4c0,11.2-10.8,20.2-19.7,20.2h-50.7c-8.9,0-19.7-9.1-19.7-20.2v-0.8c0-11.2,10.8-20.2,19.7-20.2
	h50.7c8.9,0,19.7,9.1,19.7,20.2V594.4z"/>
<circle class="st0" cx="753.8" cy="594.1" r="14.7"/>
<circle class="st0" cx="754.1" cy="594" r="10.3"/>
<circle class="st0" cx="754.4" cy="594" r="8.4"/>
<circle class="st0" cx="754.4" cy="594" r="4.8"/>
<circle class="st0" cx="800.3" cy="594.4" r="9.9"/>
<circle class="st0" cx="800.3" cy="594.4" r="7.5"/>
<circle class="st0" cx="859.8" cy="715.2" r="24.3"/>
<circle class="st0" cx="859.8" cy="715.2" r="20.3"/>
<circle class="st0" cx="831.1" cy="1150.5" r="3"/>
<circle class="st0" cx="840.4" cy="1150.5" r="3"/>
<circle class="st0" cx="850.3" cy="1150.5" r="3"/>
<circle class="st0" cx="859.9" cy="1150.5" r="3"/>
<circle class="st0" cx="869.3" cy="1150.5" r="3"/>
<circle class="st0" cx="879" cy="1150.5" r="3"/>
<circle class="st0" cx="888.6" cy="1150.5" r="3"/>
<polyline class="st0" points="704.8,658.9 702.9,658.9 702.9,751.4 704.8,751.4 704.8,777.8 702.9,777.8 702.9,823 704.8,823 "/>
<g>
	<g>
		<path class="st0" d="M-1229.2-33.2c-70.9,0-166.2,0-166.2,0s-13.4,0.8-22.1-7.6s-8.6-20.1-8.6-22.1c0-1.9,0-581.7,0-581.7
			s-0.6-10.1,6.7-19.2c7.3-9.2,19-9.6,20.3-9.6c0.8,0,98.4,0,171.3,0"/>
		<path class="st0" d="M-1217.9-27c-73.5,0-180.5,0-180.5,0s-13.7,0.8-22.6-7.7c-8.9-8.6-8.8-20.6-8.8-22.6c0-2,0-591.6,0-591.6
			s-0.7-10.3,6.8-19.7s19.5-9.8,20.8-9.8c0.8,0,108.7,0,184.3,0"/>
		<path class="st0" d="M-1316-636.8c0,10.4-10,17.8-18.2,17.8h-47c-8.3,0-18.2-7.4-18.2-17.8v-0.8c0-10.4,10-17.5,18.2-17.5h47
			c8.3,0,18.2,7.2,18.2,17.5V-636.8z"/>
		<path class="st0" d="M-1312.7-636.7c0,11.2-10.8,20.2-19.7,20.2h-50.7c-8.9,0-19.7-9.1-19.7-20.2v-0.8c0-11.2,10.8-20.2,19.7-20.2
			h50.7c8.9,0,19.7,9.1,19.7,20.2V-636.7z"/>
		<circle class="st0" cx="-1380.9" cy="-637" r="14.7"/>
		<circle class="st0" cx="-1380.6" cy="-637.1" r="10.3"/>
		<circle class="st0" cx="-1380.3" cy="-637.1" r="8.4"/>
		<circle class="st0" cx="-1380.3" cy="-637.1" r="4.8"/>
		<circle class="st0" cx="-1334.3" cy="-636.7" r="9.9"/>
		<circle class="st0" cx="-1334.3" cy="-636.7" r="7.5"/>
		<circle class="st0" cx="-1274.9" cy="-516" r="24.3"/>
		<circle class="st0" cx="-1274.9" cy="-516" r="20.3"/>
		<circle class="st0" cx="-1303.6" cy="-80.6" r="3"/>
		<circle class="st0" cx="-1294.2" cy="-80.6" r="3"/>
		<circle class="st0" cx="-1284.4" cy="-80.6" r="3"/>
		<circle class="st0" cx="-1274.8" cy="-80.6" r="3"/>
		<circle class="st0" cx="-1265.3" cy="-80.6" r="3"/>
		<circle class="st0" cx="-1255.6" cy="-80.6" r="3"/>
		<circle class="st0" cx="-1246" cy="-80.6" r="3"/>
		<polyline class="st0" points="-1429.9,-572.2 -1431.7,-572.2 -1431.7,-479.7 -1429.9,-479.7 -1429.9,-453.3 -1431.7,-453.3 
			-1431.7,-408.1 -1429.9,-408.1 		"/>
	</g>
	<g>
		<path class="st0" d="M-1219.5-622.3c0,0,0,530.3,0,532.1c0,0-0.9,13.3,12,13.3c0,0,250,0,255.5,0c14.4,0,13-15.6,13-15.6
			s0-525.9,0-528.8c0-14.4-14.5-13.2-14.5-13.2s-253.2,0-254.4,0C-1207.9-634.5-1219.5-635-1219.5-622.3z"/>
		<path class="st0" d="M-1233.2-640.9c0,0-0.6-10,6.6-19.2c7.3-9.1,18.9-9.5,20.2-9.5c1.3,0,250.7,0,250.7,0s11.4,0,19.7,8.3
			s7.4,20.6,7.4,23.7s0,573.5,0,573.5s0.1,8.9-5.2,17.1c-6.2,9.8-20.8,11.2-26.7,11.2c-5.9,0-242.2,0-242.2,0s-13.3,0.8-22-7.5
			c-8.7-8.3-8.6-20.1-8.6-22C-1233.2-67.2-1233.2-640.9-1233.2-640.9z"/>
		<path class="st0" d="M-1235.5-645.3c0,0-0.7-10.2,6.7-19.5c7.4-9.3,19.2-9.7,20.5-9.7c1.3,0,254.6,0,254.6,0s11.5,0,20,8.4
			s7.6,20.9,7.6,24.1s0,582.4,0,582.4s1,7.4-5.2,17.4s-21.1,11.4-27.1,11.4s-245.9,0-245.9,0s-13.6,0.8-22.3-7.6
			c-8.8-8.5-8.7-20.4-8.7-22.3S-1235.5-645.3-1235.5-645.3z"/>
		<path class="st0" d="M-1238-650.1c0,0-0.7-10.4,6.8-19.8c7.5-9.4,19.5-9.9,20.9-9.9c1.3,0,258.7,0,258.7,0s11.7,0,20.3,8.5
			c8.6,8.6,7.7,21.3,7.7,24.5s0,591.9,0,591.9s0.8,8.1-5.3,17.7c-6.4,10.2-21.5,11.6-27.6,11.6s-249.9,0-249.9,0s-13.8,0.8-22.7-7.8
			s-8.9-20.7-8.9-22.7S-1238-650.1-1238-650.1z"/>
		<circle class="st0" cx="-1150" cy="-654.4" r="3.8"/>
		<circle class="st0" cx="-1150" cy="-654.4" r="5.3"/>
		<circle class="st0" cx="-1034.9" cy="-654.4" r="5.7"/>
		<path class="st0" d="M-1056.3-654.4c0,1.4-1.1,2.6-2.6,2.6h-41.7c-1.4,0-2.6-1.1-2.6-2.6l0,0c0-1.4,1.1-2.6,2.6-2.6h41.7
			C-1057.4-657-1056.3-655.8-1056.3-654.4L-1056.3-654.4z"/>
		<polyline class="st0" points="-923.6,-573 -921.6,-573 -921.6,-480.3 -923.6,-480.3 		"/>
		<polyline class="st0" points="-923.7,-453.1 -921.6,-453.1 -921.6,-408.7 -923.7,-408.7 		"/>
	</g>
</g>
<line class="st1" x1="392.1" y1="193.8" x2="605.8" y2="299.4"/>
<line class="st1" x1="55.1" y1="27.2" x2="270.8" y2="133.8"/>
<text transform="matrix(1 0 0 1 245.6033 179.836)" class="st2 st3">5.45 inch</text>
</svg>
