<?xml version="1.0" encoding="utf-8"?>
<!-- Generator: Adobe Illustrator 21.0.0, SVG Export Plug-In . SVG Version: 6.00 Build 0)  -->
<svg version="1.1" id="Layer_1" xmlns="http://www.w3.org/2000/svg" xmlns:xlink="http://www.w3.org/1999/xlink" x="0px" y="0px"
	 viewBox="0 0 540 688.5" style="enable-background:new 0 0 540 688.5;" xml:space="preserve">
<style type="text/css">
	.st0{fill:none;stroke:#231F20;stroke-miterlimit:10;}
	.st1{fill:none;stroke:#231F20;stroke-width:0.75;stroke-miterlimit:10;}
</style>
<g>
	<path class="st0" d="M2216.3,1659.7c12.3,18.1-5.5,33.4-5.5,33.4l-174.6,158.6c-13.8,12.5-24.8,11.2-24.8,11.2s-9.8,1.3-21.6-8.1
		c-1.4-1.2-4.6-3.8-7-6.2c-2.5-2.3-401.3-419.8-401.3-419.8s-9.2-8.4-13.5-19.7c-4.3-11.3,2.5-21.4,14.5-28l183.2-98.3
		c0,0,8.3-4.9,18.1-4.9c9.8,0.1,14.8,3.5,20.6,8.4l397.2,355.3C2201.7,1641.8,2209.4,1647.1,2216.3,1659.7z"/>
	<path class="st0" d="M1585.4,1379.7c0,0-13.9,8.3-14.2,17.8c-0.1,2.3,0.7,7.3,4.3,11.8l413.7,430.4c0,0,10.7,11.2,24.2,11.5
		c4.8,0.1,10.6-0.8,16-4.4c5.3-3.6,6.7-5.1,10.6-8.4c3.9-3.3,170.3-153.8,170.3-153.8s11.7-10.1,6.5-24"/>
	<path class="st0" d="M1805.8,1287.7c0,0-18.4-13.4-37.6-3.2c-9.6,5.3-174.8,95.1-174.8,95.1s-14.3,6.9-16.6,16.7
		c-0.8,3.4,0.5,9.3,4,13.3s408,423.3,408,423.3s21.3,21.4,42.1,3.3c20.8-18.1,176.6-157.5,176.6-157.5s15.9-17.7-5.1-36.5"/>
	<path class="st0" d="M1978.6,1801.8c0,0,4,4.4,9.6,4.2s7.6-2.8,7.6-2.8l182.4-157.7c0,0,2.7-2.5,2.6-5.7s-1.8-5.1-3-6.4
		s-370.6-332.6-370.6-332.6s-5.1-4.6-12.3-0.8s-189.4,104.6-189.4,104.6s-4.2,2.5-4.1,5.9c0,3.4,2.1,5.3,3.3,6.4
		C1605.7,1418,1978.6,1801.8,1978.6,1801.8z"/>
	<ellipse class="st0" cx="1639.5" cy="1367.2" rx="4.8" ry="3.7"/>
	<ellipse class="st0" cx="1724.4" cy="1321" rx="5.2" ry="3.9"/>
	<path class="st0" d="M1675.2,1345.3l30.7-16.5c0,0,1.8-1,2.8,0l0.8,1.1c0,0,0.8,1-0.5,1.7s-31.1,16.9-31.1,16.9s-1.7,1-2.5-0.1
		C1674.8,1347.6,1673.9,1346.1,1675.2,1345.3z"/>
	<polygon class="st0" points="2072.1,1819.1 2072.1,1816.5 2093.9,1796.6 2093.9,1799.4 	"/>
</g>
<g>
	<path class="st0" d="M3332.2,231.6c12.3,18.1-5.5,33.4-5.5,33.4l-174.6,158.6c-13.8,12.5-24.8,11.2-24.8,11.2s-9.8,1.3-21.6-8.1
		c-1.4-1.2-4.6-3.8-7-6.2c-2.5-2.3-401.3-419.8-401.3-419.8s-9.2-8.4-13.5-19.7s2.5-21.4,14.5-28l183.2-98.3c0,0,8.3-4.9,18.1-4.9
		c9.8,0.1,14.8,3.5,20.6,8.4l397.2,355.3C3317.6,213.7,3325.3,219,3332.2,231.6z"/>
	<path class="st0" d="M2701.3-48.4c0,0-13.9,8.3-14.2,17.8c-0.1,2.3,0.7,7.3,4.3,11.8l413.7,430.4c0,0,10.7,11.2,24.2,11.5
		c4.8,0.1,10.6-0.8,16-4.4c5.3-3.6,6.7-5.1,10.6-8.4c3.9-3.3,170.3-153.8,170.3-153.8s11.7-10.1,6.5-24"/>
	<path class="st0" d="M2921.7-140.4c0,0-18.4-13.4-37.6-3.2c-9.6,5.3-174.8,95.1-174.8,95.1s-14.3,6.9-16.6,16.7
		c-0.8,3.4,0.5,9.3,4,13.3s408,423.3,408,423.3s21.3,21.4,42.1,3.3c20.8-18.1,176.6-157.5,176.6-157.5s15.9-17.7-5.1-36.5"/>
	<path class="st0" d="M3094.5,373.7c0,0,4,4.4,9.6,4.2s7.6-2.8,7.6-2.8l182.4-157.7c0,0,2.7-2.5,2.6-5.7s-1.8-5.1-3-6.4
		S2923-127.3,2923-127.3s-5.1-4.6-12.3-0.8S2721.3-23.6,2721.3-23.6s-4.2,2.5-4.1,5.9s2.1,5.3,3.3,6.4S3094.5,373.7,3094.5,373.7z"
		/>
	<ellipse class="st0" cx="2755.3" cy="-60.9" rx="2.4" ry="1.8"/>
	<ellipse class="st0" cx="2755.3" cy="-60.9" rx="4.8" ry="3.7"/>
	<ellipse class="st0" cx="2840.3" cy="-107.1" rx="5.2" ry="3.9"/>
	<path class="st0" d="M2791.1-82.8l30.7-16.5c0,0,1.8-1,2.8,0l0.8,1.1c0,0,0.8,1-0.5,1.7s-31.1,16.9-31.1,16.9s-1.7,1-2.5-0.1
		C2790.7-80.5,2789.8-82,2791.1-82.8z"/>
	<polygon class="st0" points="3188,391 3188,388.4 3209.8,368.5 3209.8,371.2 	"/>
</g>
<path class="st0" d="M2661.7,1308.6c0,0,0,529.4,0,531.2c0,0-0.9,13.3,11.9,13.3c0,0,249.6,0,255,0c14.4,0,13-15.6,13-15.6
	s0-525,0-527.9c0-14.4-14.5-13.2-14.5-13.2s-252.7,0-253.9,0C2673.3,1296.4,2661.7,1295.9,2661.7,1308.6z"/>
<path class="st0" d="M2648.1,1290.1c0,0-0.6-10,6.6-19.1c7.3-9.1,18.9-9.5,20.2-9.5s250.3,0,250.3,0s11.3,0,19.6,8.2
	c8.3,8.3,7.4,20.6,7.4,23.7c0,3.1,0,572.5,0,572.5s0.1,8.9-5.1,17.1c-6.2,9.8-20.8,11.2-26.7,11.2c-5.9,0-241.8,0-241.8,0
	s-13.3,0.8-22-7.5c-8.6-8.3-8.6-20-8.6-22C2648.1,1862.8,2648.1,1290.1,2648.1,1290.1z"/>
<path class="st0" d="M2645.7,1285.6c0,0-0.7-10.2,6.7-19.4c7.4-9.3,19.2-9.7,20.5-9.7c1.3,0,254.1,0,254.1,0s11.5,0,19.9,8.4
	c8.4,8.4,7.5,20.9,7.5,24c0,3.1,0,581.4,0,581.4s1,7.4-5.2,17.4c-6.3,10-21.1,11.4-27.1,11.4c-6,0-245.5,0-245.5,0
	s-13.5,0.8-22.3-7.6s-8.7-20.3-8.7-22.3S2645.7,1285.6,2645.7,1285.6z"/>
<path class="st0" d="M2643.2,1280.9c0,0-0.7-10.3,6.8-19.8c7.5-9.4,19.5-9.8,20.8-9.8c1.3,0,258.3,0,258.3,0s11.7,0,20.3,8.5
	c8.5,8.5,7.7,21.3,7.7,24.4s0,590.8,0,590.8s0.8,8.1-5.3,17.7c-6.4,10.1-21.4,11.6-27.5,11.6s-249.5,0-249.5,0s-13.8,0.8-22.7-7.8
	c-8.9-8.6-8.8-20.7-8.8-22.7S2643.2,1280.9,2643.2,1280.9z"/>
<path class="st0" d="M3185.2,1285.9c0,0-0.6-10.1,6.7-19.2c7.3-9.2,19-9.6,20.3-9.6c1.3,0,251.7,0,251.7,0s11.4,0,19.7,8.3
	s7.5,20.7,7.5,23.8s0,579.6,0,579.6s0.4,8.1-5.7,18c-5.9,9.6-20.3,10.5-26.3,10.5c-5.9,0-243.1,0-243.1,0s-13.4,0.8-22.1-7.6
	c-8.7-8.4-8.6-20.1-8.6-22.1C3185.2,1865.6,3185.2,1285.9,3185.2,1285.9z"/>
<path class="st0" d="M3181.5,1281.4c0,0-0.7-10.3,6.8-19.7c7.5-9.4,19.5-9.8,20.8-9.8c1.3,0,257.7,0,257.7,0s11.7,0,20.2,8.5
	c8.5,8.5,7.6,21.2,7.6,24.4c0,3.2,0,589.5,0,589.5s0,8.7-5.3,17.6c-6.2,10.3-21.4,11.6-27.5,11.6s-248.9,0-248.9,0
	s-13.7,0.8-22.6-7.7c-8.9-8.6-8.8-20.6-8.8-22.6C3181.5,1871.1,3181.5,1281.4,3181.5,1281.4z"/>
<circle class="st0" cx="2731.1" cy="1276.6" r="3.8"/>
<circle class="st0" cx="2731.1" cy="1276.6" r="5.3"/>
<circle class="st0" cx="2846.1" cy="1276.6" r="5.6"/>
<path class="st0" d="M2824.7,1276.6c0,1.4-1.1,2.6-2.6,2.6h-41.6c-1.4,0-2.6-1.1-2.6-2.6l0,0c0-1.4,1.1-2.6,2.6-2.6h41.6
	C2823.5,1274,2824.7,1275.2,2824.7,1276.6L2824.7,1276.6z"/>
<polyline class="st0" points="2957.1,1357.8 2959.2,1357.8 2959.2,1450.4 2957.1,1450.4 "/>
<polyline class="st0" points="2957.1,1477.5 2959.2,1477.5 2959.2,1521.9 2957.1,1521.9 "/>
<g>
	<path class="st0" d="M1531.5,1002.4c0,0,529.4,0,531.2,0c0,0,13.3,0.9,13.3-11.9c0,0,0-249.6,0-255c0-14.4-15.6-13-15.6-13
		s-525,0-527.9,0c-14.4,0-13.2,14.5-13.2,14.5s0,252.7,0,253.9C1519.3,990.8,1518.8,1002.4,1531.5,1002.4z"/>
	<path class="st0" d="M1512.9,1016.1c0,0-10,0.6-19.1-6.6c-9.1-7.3-9.5-18.9-9.5-20.2c0-1.3,0-250.3,0-250.3s0-11.3,8.2-19.6
		c8.3-8.3,20.6-7.4,23.7-7.4c3.1,0,572.5,0,572.5,0s8.9-0.1,17.1,5.1c9.8,6.2,11.2,20.8,11.2,26.7c0,5.9,0,241.8,0,241.8
		s0.8,13.3-7.5,22c-8.3,8.6-20,8.6-22,8.6C2085.6,1016.1,1512.9,1016.1,1512.9,1016.1z"/>
	<path class="st0" d="M1508.4,1018.4c0,0-10.2,0.7-19.4-6.7c-9.3-7.4-9.7-19.2-9.7-20.5s0-254.1,0-254.1s0-11.5,8.4-19.9
		c8.4-8.4,20.9-7.5,24-7.5s581.4,0,581.4,0s7.4-1,17.4,5.2c10,6.3,11.4,21.1,11.4,27.1c0,6,0,245.5,0,245.5s0.8,13.5-7.6,22.3
		c-8.4,8.8-20.3,8.7-22.3,8.7C2090,1018.4,1508.4,1018.4,1508.4,1018.4z"/>
	<path class="st0" d="M1503.7,1020.9c0,0-10.3,0.7-19.8-6.8c-9.4-7.5-9.8-19.5-9.8-20.8s0-258.3,0-258.3s0-11.7,8.5-20.3
		s21.3-7.7,24.4-7.7c3.2,0,590.8,0,590.8,0s8.1-0.8,17.7,5.3c10.1,6.4,11.6,21.4,11.6,27.5c0,6.1,0,249.5,0,249.5s0.8,13.8-7.8,22.7
		c-8.6,8.9-20.7,8.8-22.7,8.8S1503.7,1020.9,1503.7,1020.9z"/>
	<circle class="st0" cx="1499.4" cy="933.1" r="3.3"/>
	<circle class="st0" cx="1499.4" cy="933.1" r="5.3"/>
	<circle class="st0" cx="1499.4" cy="818.1" r="5.6"/>
	<path class="st0" d="M1499.4,839.5c1.4,0,2.6,1.1,2.6,2.6v41.6c0,1.4-1.1,2.6-2.6,2.6l0,0c-1.4,0-2.6-1.1-2.6-2.6V842
		C1496.8,840.6,1498,839.5,1499.4,839.5L1499.4,839.5z"/>
	<polyline class="st0" points="1580.6,707.1 1580.6,705 1673.2,705 1673.2,707.1 	"/>
	<polyline class="st0" points="1700.4,707.1 1700.4,705 1744.7,705 1744.7,707.1 	"/>
</g>
<g>
	<path class="st0" d="M2540.9,1002.4c0,0,529.4,0,531.2,0c0,0,13.3,0.9,13.3-11.9c0,0,0-249.6,0-255c0-14.4-15.6-13-15.6-13
		s-525,0-527.9,0c-14.4,0-13.2,14.5-13.2,14.5s0,252.7,0,253.9C2528.7,990.8,2528.2,1002.4,2540.9,1002.4z"/>
	<path class="st0" d="M2522.4,1016.1c0,0-10,0.6-19.1-6.6c-9.1-7.3-9.5-18.9-9.5-20.2c0-1.3,0-250.3,0-250.3s0-11.3,8.2-19.6
		c8.3-8.3,20.6-7.4,23.7-7.4s572.5,0,572.5,0s8.9-0.1,17.1,5.1c9.8,6.2,11.2,20.8,11.2,26.7c0,5.9,0,241.8,0,241.8s0.8,13.3-7.5,22
		c-8.3,8.6-20,8.6-22,8.6S2522.4,1016.1,2522.4,1016.1z"/>
	<path class="st0" d="M2517.9,1018.4c0,0-10.2,0.7-19.4-6.7c-9.3-7.4-9.7-19.2-9.7-20.5s0-254.1,0-254.1s0-11.5,8.4-19.9
		c8.4-8.4,20.9-7.5,24-7.5s581.4,0,581.4,0s7.4-1,17.4,5.2c10,6.3,11.4,21.1,11.4,27.1c0,6,0,245.5,0,245.5s0.8,13.5-7.6,22.3
		c-8.4,8.8-20.3,8.7-22.3,8.7C3099.5,1018.4,2517.9,1018.4,2517.9,1018.4z"/>
	<path class="st0" d="M2513.2,1020.9c0,0-10.3,0.7-19.8-6.8s-9.8-19.5-9.8-20.8s0-258.3,0-258.3s0-11.7,8.5-20.3
		c8.5-8.5,21.3-7.7,24.4-7.7c3.2,0,590.8,0,590.8,0s8.1-0.8,17.7,5.3c10.1,6.4,11.6,21.4,11.6,27.5c0,6.1,0,249.5,0,249.5
		s0.8,13.8-7.8,22.7c-8.6,8.9-20.7,8.8-22.7,8.8S2513.2,1020.9,2513.2,1020.9z"/>
	<circle class="st0" cx="2508.9" cy="933.1" r="3.3"/>
	<circle class="st0" cx="2508.9" cy="933.1" r="5.3"/>
	<circle class="st0" cx="2508.9" cy="818.1" r="5.6"/>
	<path class="st0" d="M2508.8,839.5c1.4,0,2.6,1.1,2.6,2.6v41.6c0,1.4-1.1,2.6-2.6,2.6l0,0c-1.4,0-2.6-1.1-2.6-2.6V842
		C2506.3,840.6,2507.4,839.5,2508.8,839.5L2508.8,839.5z"/>
	<polyline class="st0" points="2590.1,707.1 2590.1,705 2682.7,705 2682.7,707.1 	"/>
	<polyline class="st0" points="2709.8,707.1 2709.8,705 2754.2,705 2754.2,707.1 	"/>
</g>
<path class="st0" d="M3295.4,1293.6c0,10.4-10,17.8-18.2,17.8h-47c-8.3,0-18.2-7.4-18.2-17.8v-0.8c0-10.4,10-17.5,18.2-17.5h47
	c8.3,0,18.2,7.2,18.2,17.5V1293.6z"/>
<path class="st0" d="M3298.7,1293.6c0,11.2-10.8,20.2-19.7,20.2h-50.7c-8.9,0-19.7-9.1-19.7-20.2v-0.8c0-11.2,10.8-20.2,19.7-20.2
	h50.7c8.9,0,19.7,9.1,19.7,20.2V1293.6z"/>
<circle class="st0" cx="3230.5" cy="1293.4" r="14.7"/>
<circle class="st0" cx="3230.8" cy="1293.3" r="10.3"/>
<circle class="st0" cx="3231.1" cy="1293.3" r="8.4"/>
<circle class="st0" cx="3231.1" cy="1293.3" r="4.8"/>
<circle class="st0" cx="3277" cy="1293.7" r="9.9"/>
<circle class="st0" cx="3277" cy="1293.7" r="7.5"/>
<circle class="st0" cx="3336.5" cy="1414.4" r="24.3"/>
<circle class="st0" cx="3336.5" cy="1414.4" r="20.3"/>
<circle class="st0" cx="3307.8" cy="1849.7" r="3"/>
<circle class="st0" cx="3317.1" cy="1849.7" r="3"/>
<circle class="st0" cx="3327" cy="1849.7" r="3"/>
<circle class="st0" cx="3336.6" cy="1849.7" r="3"/>
<circle class="st0" cx="3346" cy="1849.7" r="3"/>
<circle class="st0" cx="3355.8" cy="1849.7" r="3"/>
<circle class="st0" cx="3365.3" cy="1849.7" r="3"/>
<polyline class="st0" points="3181.5,1358.2 3179.7,1358.2 3179.7,1450.7 3181.5,1450.7 3181.5,1477.1 3179.7,1477.1 3179.7,1522.3 
	3181.5,1522.3 "/>
<g>
	<g>
		<path class="st0" d="M1247.5,666.1c-70.9,0-166.2,0-166.2,0s-13.4,0.8-22.1-7.6c-8.7-8.4-8.6-20.1-8.6-22.1s0-581.7,0-581.7
			s-0.6-10.1,6.7-19.2s19-9.6,20.3-9.6c0.8,0,98.4,0,171.3,0"/>
		<path class="st0" d="M1258.9,672.3c-73.5,0-180.5,0-180.5,0s-13.7,0.8-22.6-7.7c-8.9-8.6-8.8-20.6-8.8-22.6s0-591.6,0-591.6
			s-0.7-10.3,6.8-19.7s19.5-9.8,20.8-9.8c0.8,0,108.7,0,184.3,0"/>
		<path class="st0" d="M1160.7,62.5c0,10.4-10,17.8-18.2,17.8h-47c-8.3,0-18.2-7.4-18.2-17.8v-0.8c0-10.4,10-17.5,18.2-17.5h47
			c8.3,0,18.2,7.2,18.2,17.5V62.5z"/>
		<path class="st0" d="M1164,62.5c0,11.2-10.8,20.2-19.7,20.2h-50.7c-8.9,0-19.7-9.1-19.7-20.2v-0.8c0-11.2,10.8-20.2,19.7-20.2
			h50.7c8.9,0,19.7,9.1,19.7,20.2V62.5z"/>
		<circle class="st0" cx="1095.8" cy="62.3" r="14.7"/>
		<circle class="st0" cx="1096.1" cy="62.2" r="10.3"/>
		<circle class="st0" cx="1096.4" cy="62.2" r="8.4"/>
		<circle class="st0" cx="1096.4" cy="62.2" r="4.8"/>
		<circle class="st0" cx="1142.4" cy="62.6" r="9.9"/>
		<circle class="st0" cx="1142.4" cy="62.6" r="7.5"/>
		<circle class="st0" cx="1201.8" cy="183.3" r="24.3"/>
		<circle class="st0" cx="1201.8" cy="183.3" r="20.3"/>
		<circle class="st0" cx="1173.1" cy="618.6" r="3"/>
		<circle class="st0" cx="1182.5" cy="618.6" r="3"/>
		<circle class="st0" cx="1192.4" cy="618.6" r="3"/>
		<circle class="st0" cx="1201.9" cy="618.6" r="3"/>
		<circle class="st0" cx="1211.4" cy="618.6" r="3"/>
		<circle class="st0" cx="1221.1" cy="618.6" r="3"/>
		<circle class="st0" cx="1230.7" cy="618.6" r="3"/>
		<polyline class="st0" points="1046.9,127.1 1045,127.1 1045,219.6 1046.9,219.6 1046.9,246 1045,246 1045,291.2 1046.9,291.2 		
			"/>
	</g>
	<g>
		<path class="st0" d="M1257.2,77c0,0,0,530.3,0,532.1c0,0-0.9,13.3,12,13.3c0,0,250,0,255.5,0c14.4,0,13-15.6,13-15.6
			s0-525.9,0-528.8c0-14.4-14.5-13.2-14.5-13.2s-253.2,0-254.4,0C1268.8,64.8,1257.2,64.3,1257.2,77z"/>
		<path class="st0" d="M1243.6,58.4c0,0-0.6-10,6.6-19.2s18.9-9.5,20.2-9.5c1.3,0,250.7,0,250.7,0s11.4,0,19.7,8.3
			c8.3,8.3,7.4,20.6,7.4,23.7c0,3.1,0,573.5,0,573.5s0.1,8.9-5.2,17.1c-6.2,9.8-20.8,11.2-26.7,11.2c-5.9,0-242.2,0-242.2,0
			s-13.3,0.8-22-7.5c-8.7-8.3-8.6-20.1-8.6-22C1243.5,632.1,1243.6,58.4,1243.6,58.4z"/>
		<path class="st0" d="M1241.2,53.9c0,0-0.7-10.2,6.7-19.5c7.4-9.3,19.2-9.7,20.5-9.7s254.6,0,254.6,0s11.5,0,20,8.4
			c8.4,8.4,7.6,20.9,7.6,24.1s0,582.4,0,582.4s1,7.4-5.2,17.4c-6.3,10-21.1,11.4-27.1,11.4c-6,0-245.9,0-245.9,0s-13.6,0.8-22.3-7.6
			c-8.8-8.5-8.7-20.4-8.7-22.3C1241.2,636.5,1241.2,53.9,1241.2,53.9z"/>
		<path class="st0" d="M1238.7,49.2c0,0-0.7-10.4,6.8-19.8c7.5-9.4,19.5-9.9,20.9-9.9c1.3,0,258.7,0,258.7,0s11.7,0,20.3,8.5
			c8.6,8.6,7.7,21.3,7.7,24.5s0,591.9,0,591.9s0.8,8.1-5.3,17.7c-6.4,10.2-21.5,11.6-27.6,11.6s-249.9,0-249.9,0s-13.8,0.8-22.7-7.8
			c-8.9-8.6-8.9-20.7-8.9-22.7C1238.7,641.2,1238.7,49.2,1238.7,49.2z"/>
		<circle class="st0" cx="1326.7" cy="44.9" r="3.8"/>
		<circle class="st0" cx="1326.7" cy="44.9" r="5.3"/>
		<circle class="st0" cx="1441.9" cy="44.9" r="5.7"/>
		<path class="st0" d="M1420.5,44.9c0,1.4-1.1,2.6-2.6,2.6h-41.7c-1.4,0-2.6-1.1-2.6-2.6l0,0c0-1.4,1.1-2.6,2.6-2.6h41.7
			C1419.3,42.3,1420.5,43.5,1420.5,44.9L1420.5,44.9z"/>
		<polyline class="st0" points="1553.1,126.2 1555.1,126.2 1555.1,219 1553.1,219 		"/>
		<polyline class="st0" points="1553.1,246.2 1555.1,246.2 1555.1,290.6 1553.1,290.6 		"/>
	</g>
</g>
<g>
	<g>
		<path class="st0" d="M217.1,666.1c-70.9,0-166.2,0-166.2,0s-13.4,0.8-22.1-7.6c-8.7-8.4-8.6-20.1-8.6-22.1s0-581.7,0-581.7
			s-0.6-10.1,6.7-19.2s19-9.6,20.3-9.6c0.8,0,98.4,0,171.3,0"/>
		<path class="st0" d="M228.4,672.3c-73.5,0-180.5,0-180.5,0s-13.7,0.8-22.6-7.7c-8.9-8.6-8.8-20.6-8.8-22.6s0-591.6,0-591.6
			S15.8,40,23.3,30.6s19.5-9.8,20.8-9.8c0.8,0,108.7,0,184.3,0"/>
		<path class="st0" d="M130.3,62.5c0,10.4-10,17.8-18.2,17.8h-47c-8.3,0-18.2-7.4-18.2-17.8v-0.8c0-10.4,10-17.5,18.2-17.5h47
			c8.3,0,18.2,7.2,18.2,17.5V62.5z"/>
		<path class="st0" d="M133.6,62.5c0,11.2-10.8,20.2-19.7,20.2H63.2c-8.9,0-19.7-9.1-19.7-20.2v-0.8c0-11.2,10.8-20.2,19.7-20.2
			h50.7c8.9,0,19.7,9.1,19.7,20.2V62.5z"/>
		<circle class="st0" cx="65.4" cy="62.3" r="14.7"/>
		<circle class="st0" cx="65.7" cy="62.2" r="10.3"/>
		<circle class="st0" cx="66" cy="62.2" r="8.4"/>
		<circle class="st0" cx="66" cy="62.2" r="4.8"/>
		<circle class="st0" cx="111.9" cy="62.6" r="9.9"/>
		<circle class="st0" cx="111.9" cy="62.6" r="7.5"/>
		<circle class="st0" cx="171.4" cy="183.3" r="24.3"/>
		<circle class="st0" cx="171.4" cy="183.3" r="20.3"/>
		<circle class="st0" cx="142.7" cy="618.6" r="3"/>
		<circle class="st0" cx="152" cy="618.6" r="3"/>
		<circle class="st0" cx="161.9" cy="618.6" r="3"/>
		<circle class="st0" cx="171.5" cy="618.6" r="3"/>
		<circle class="st0" cx="181" cy="618.6" r="3"/>
		<circle class="st0" cx="190.7" cy="618.6" r="3"/>
		<circle class="st0" cx="200.3" cy="618.6" r="3"/>
		<polyline class="st0" points="16.4,127.1 14.6,127.1 14.6,219.6 16.4,219.6 16.4,246 14.6,246 14.6,291.2 16.4,291.2 		"/>
	</g>
	<g>
		<path class="st0" d="M226.8,77c0,0,0,530.3,0,532.1c0,0-0.9,13.3,12,13.3c0,0,250,0,255.5,0c14.4,0,13-15.6,13-15.6
			s0-525.9,0-528.8c0-14.4-14.5-13.2-14.5-13.2s-253.2,0-254.4,0C238.4,64.8,226.8,64.3,226.8,77z"/>
		<path class="st0" d="M213.1,58.4c0,0-0.6-10,6.6-19.2c7.3-9.1,18.9-9.5,20.2-9.5s250.7,0,250.7,0s11.4,0,19.7,8.3
			c8.3,8.3,7.4,20.6,7.4,23.7c0,3.1,0,573.5,0,573.5s0.1,8.9-5.2,17.1c-6.2,9.8-20.8,11.2-26.7,11.2s-242.2,0-242.2,0
			s-13.3,0.8-22-7.5c-8.7-8.3-8.6-20.1-8.6-22C213.1,632.1,213.1,58.4,213.1,58.4z"/>
		<path class="st0" d="M210.8,53.9c0,0-0.7-10.2,6.7-19.5c7.4-9.3,19.2-9.7,20.5-9.7c1.3,0,254.6,0,254.6,0s11.5,0,20,8.4
			c8.4,8.4,7.6,20.9,7.6,24.1s0,582.4,0,582.4s1,7.4-5.2,17.4s-21.1,11.4-27.1,11.4c-6,0-245.9,0-245.9,0s-13.6,0.8-22.3-7.6
			c-8.8-8.5-8.7-20.4-8.7-22.3C210.7,636.5,210.8,53.9,210.8,53.9z"/>
		<path class="st0" d="M208.2,49.2c0,0-0.7-10.4,6.8-19.8s19.5-9.9,20.9-9.9s258.7,0,258.7,0s11.7,0,20.3,8.5
			c8.6,8.6,7.7,21.3,7.7,24.5s0,591.9,0,591.9s0.8,8.1-5.3,17.7c-6.4,10.2-21.5,11.6-27.6,11.6s-249.9,0-249.9,0s-13.8,0.8-22.7-7.8
			c-8.9-8.6-8.9-20.7-8.9-22.7C208.2,641.2,208.2,49.2,208.2,49.2z"/>
		<circle class="st0" cx="296.3" cy="44.9" r="3.8"/>
		<circle class="st0" cx="296.3" cy="44.9" r="5.3"/>
		<circle class="st0" cx="411.4" cy="44.9" r="5.7"/>
		<path class="st0" d="M390,44.9c0,1.4-1.1,2.6-2.6,2.6h-41.7c-1.4,0-2.6-1.1-2.6-2.6l0,0c0-1.4,1.1-2.6,2.6-2.6h41.7
			C388.9,42.3,390,43.5,390,44.9L390,44.9z"/>
		<polyline class="st0" points="522.7,126.2 524.7,126.2 524.7,219 522.7,219 		"/>
		<polyline class="st0" points="522.6,246.2 524.7,246.2 524.7,290.6 522.6,290.6 		"/>
	</g>
</g>
<line class="st1" x1="2868.8" y1="893.1" x2="3082.5" y2="998.7"/>
<line class="st1" x1="2531.8" y1="726.5" x2="2747.5" y2="833.1"/>
<text transform="matrix(1 0 0 1 2722.3232 879.1116)" style="font-family:'MyriadPro-Regular'; font-size:46.8009px;">5.45 inch</text>
</svg>
