<?xml version="1.0" encoding="utf-8"?>
<!-- Generator: Adobe Illustrator 21.0.0, SVG Export Plug-In . SVG Version: 6.00 Build 0)  -->
<svg version="1.1" id="lens" xmlns="http://www.w3.org/2000/svg" xmlns:xlink="http://www.w3.org/1999/xlink" x="0px" y="0px"
	 viewBox="0 0 200 200" style="enable-background:new 0 0 200 200;" xml:space="preserve">
<style type="text/css">
	.st0{fill:#FAFBFB;}
</style>
<g>
	<path class="st0" d="M114.4,67.4L80.6,8.9c-31.3,6.6-56.7,29.1-67.5,58.5H114.4z"/>
	<path class="st0" d="M134.9,95.9l33.8-58.5C151.7,18.6,127.2,6.8,100,6.8c-5.3,0-10.6,0.5-15.7,1.3L134.9,95.9z"/>
	<path class="st0" d="M188.1,128c2.9-9,4.5-18.6,4.5-28.5c0-22.5-8-43.2-21.4-59.2L120.5,128H188.1z"/>
	<path class="st0" d="M65,103l-33.8,58.5C48.2,180.2,72.7,192,100,192c5.3,0,10.6-0.5,15.7-1.3L65,103z"/>
	<path class="st0" d="M79.4,70.9H11.8c-2.9,9-4.5,18.6-4.5,28.5c0,22.5,8,43.2,21.4,59.2L79.4,70.9z"/>
	<path class="st0" d="M85.5,131.5l33.8,58.5c31.3-6.6,56.7-29.1,67.5-58.5H85.5z"/>
</g>
</svg>
